%TF.GenerationSoftware,KiCad,Pcbnew,8.0.2*%
%TF.CreationDate,2024-05-21T12:30:08+05:30*%
%TF.ProjectId,carrier,63617272-6965-4722-9e6b-696361645f70,rev?*%
%TF.SameCoordinates,Original*%
%TF.FileFunction,Legend,Top*%
%TF.FilePolarity,Positive*%
%FSLAX46Y46*%
G04 Gerber Fmt 4.6, Leading zero omitted, Abs format (unit mm)*
G04 Created by KiCad (PCBNEW 8.0.2) date 2024-05-21 12:30:08*
%MOMM*%
%LPD*%
G01*
G04 APERTURE LIST*
G04 Aperture macros list*
%AMRoundRect*
0 Rectangle with rounded corners*
0 $1 Rounding radius*
0 $2 $3 $4 $5 $6 $7 $8 $9 X,Y pos of 4 corners*
0 Add a 4 corners polygon primitive as box body*
4,1,4,$2,$3,$4,$5,$6,$7,$8,$9,$2,$3,0*
0 Add four circle primitives for the rounded corners*
1,1,$1+$1,$2,$3*
1,1,$1+$1,$4,$5*
1,1,$1+$1,$6,$7*
1,1,$1+$1,$8,$9*
0 Add four rect primitives between the rounded corners*
20,1,$1+$1,$2,$3,$4,$5,0*
20,1,$1+$1,$4,$5,$6,$7,0*
20,1,$1+$1,$6,$7,$8,$9,0*
20,1,$1+$1,$8,$9,$2,$3,0*%
%AMOutline5P*
0 Free polygon, 5 corners , with rotation*
0 The origin of the aperture is its center*
0 number of corners: always 5*
0 $1 to $10 corner X, Y*
0 $11 Rotation angle, in degrees counterclockwise*
0 create outline with 5 corners*
4,1,5,$1,$2,$3,$4,$5,$6,$7,$8,$9,$10,$1,$2,$11*%
%AMOutline6P*
0 Free polygon, 6 corners , with rotation*
0 The origin of the aperture is its center*
0 number of corners: always 6*
0 $1 to $12 corner X, Y*
0 $13 Rotation angle, in degrees counterclockwise*
0 create outline with 6 corners*
4,1,6,$1,$2,$3,$4,$5,$6,$7,$8,$9,$10,$11,$12,$1,$2,$13*%
%AMOutline7P*
0 Free polygon, 7 corners , with rotation*
0 The origin of the aperture is its center*
0 number of corners: always 7*
0 $1 to $14 corner X, Y*
0 $15 Rotation angle, in degrees counterclockwise*
0 create outline with 7 corners*
4,1,7,$1,$2,$3,$4,$5,$6,$7,$8,$9,$10,$11,$12,$13,$14,$1,$2,$15*%
%AMOutline8P*
0 Free polygon, 8 corners , with rotation*
0 The origin of the aperture is its center*
0 number of corners: always 8*
0 $1 to $16 corner X, Y*
0 $17 Rotation angle, in degrees counterclockwise*
0 create outline with 8 corners*
4,1,8,$1,$2,$3,$4,$5,$6,$7,$8,$9,$10,$11,$12,$13,$14,$15,$16,$1,$2,$17*%
G04 Aperture macros list end*
%ADD10C,0.200000*%
%ADD11C,0.100000*%
%ADD12C,0.150000*%
%ADD13C,0.120000*%
%ADD14R,1.700000X1.700000*%
%ADD15O,1.700000X1.700000*%
%ADD16C,2.200000*%
%ADD17RoundRect,0.800000X0.800000X0.000010X-0.800000X0.000010X-0.800000X-0.000010X0.800000X-0.000010X0*%
%ADD18RoundRect,0.800000X-0.000010X0.800000X-0.000010X-0.800000X0.000010X-0.800000X0.000010X0.800000X0*%
%ADD19RoundRect,0.800000X-0.800000X-0.000010X0.800000X-0.000010X0.800000X0.000010X-0.800000X0.000010X0*%
%ADD20Outline8P,-0.850000X0.510000X-0.510000X0.850000X0.510000X0.850000X0.850000X0.510000X0.850000X-0.510000X0.510000X-0.850000X-0.510000X-0.850000X-0.850000X-0.510000X270.000000*%
%ADD21C,1.600000*%
%ADD22RoundRect,0.337500X0.337500X-0.562500X0.337500X0.562500X-0.337500X0.562500X-0.337500X-0.562500X0*%
%ADD23RoundRect,0.337500X-0.337500X0.912500X-0.337500X-0.912500X0.337500X-0.912500X0.337500X0.912500X0*%
G04 APERTURE END LIST*
D10*
X35560000Y-43497500D02*
X35560000Y-45085000D01*
X35560000Y-51054000D02*
X35560000Y-53975000D01*
X56475000Y-44450000D02*
G75*
G02*
X51475000Y-44450000I-2500000J0D01*
G01*
X51475000Y-44450000D02*
G75*
G02*
X56475000Y-44450000I2500000J0D01*
G01*
X40640000Y-48006000D02*
X40640000Y-49784000D01*
X40894000Y-50800000D02*
X40640000Y-51054000D01*
X24725000Y-44450000D02*
G75*
G02*
X19725000Y-44450000I-2500000J0D01*
G01*
X19725000Y-44450000D02*
G75*
G02*
X24725000Y-44450000I2500000J0D01*
G01*
X32385000Y-43180000D02*
X32385000Y-44450000D01*
X43180000Y-48006000D02*
X43180000Y-48514000D01*
X39370000Y-51054000D02*
X39370000Y-52070000D01*
X36830000Y-51054000D02*
X36830000Y-52070000D01*
X43180000Y-48514000D02*
X42926000Y-48768000D01*
X35560000Y-43497500D02*
X34925000Y-42862500D01*
X56475000Y-25400000D02*
G75*
G02*
X51475000Y-25400000I-2500000J0D01*
G01*
X51475000Y-25400000D02*
G75*
G02*
X56475000Y-25400000I2500000J0D01*
G01*
X40640000Y-51054000D02*
X40640000Y-53975000D01*
X35560000Y-47244000D02*
X35560000Y-49784000D01*
X24725000Y-25400000D02*
G75*
G02*
X19725000Y-25400000I-2500000J0D01*
G01*
X19725000Y-25400000D02*
G75*
G02*
X24725000Y-25400000I2500000J0D01*
G01*
D11*
X32067500Y-24130000D02*
X44132500Y-24130000D01*
D10*
X33020000Y-47752000D02*
X33020000Y-48514000D01*
X38100000Y-53975000D02*
X37465000Y-54610000D01*
X34290000Y-49784000D02*
X35560000Y-51054000D01*
X33020000Y-45085000D02*
X32385000Y-44450000D01*
X35560000Y-49784000D02*
X36830000Y-51054000D01*
X40640000Y-49784000D02*
X39370000Y-51054000D01*
X38100000Y-48006000D02*
X38100000Y-53975000D01*
X33020000Y-48514000D02*
X33274000Y-48768000D01*
X35560000Y-53975000D02*
X34925000Y-54610000D01*
X40640000Y-53975000D02*
X40005000Y-54610000D01*
D12*
X31559523Y-49694875D02*
X30988095Y-49694875D01*
X31273809Y-49694875D02*
X31273809Y-48694875D01*
X31273809Y-48694875D02*
X31178571Y-48837732D01*
X31178571Y-48837732D02*
X31083333Y-48932970D01*
X31083333Y-48932970D02*
X30988095Y-48980589D01*
X32511904Y-49694875D02*
X31940476Y-49694875D01*
X32226190Y-49694875D02*
X32226190Y-48694875D01*
X32226190Y-48694875D02*
X32130952Y-48837732D01*
X32130952Y-48837732D02*
X32035714Y-48932970D01*
X32035714Y-48932970D02*
X31940476Y-48980589D01*
X31559523Y-51304819D02*
X30988095Y-51304819D01*
X31273809Y-51304819D02*
X31273809Y-50304819D01*
X31273809Y-50304819D02*
X31178571Y-50447676D01*
X31178571Y-50447676D02*
X31083333Y-50542914D01*
X31083333Y-50542914D02*
X30988095Y-50590533D01*
X31940476Y-50400057D02*
X31988095Y-50352438D01*
X31988095Y-50352438D02*
X32083333Y-50304819D01*
X32083333Y-50304819D02*
X32321428Y-50304819D01*
X32321428Y-50304819D02*
X32416666Y-50352438D01*
X32416666Y-50352438D02*
X32464285Y-50400057D01*
X32464285Y-50400057D02*
X32511904Y-50495295D01*
X32511904Y-50495295D02*
X32511904Y-50590533D01*
X32511904Y-50590533D02*
X32464285Y-50733390D01*
X32464285Y-50733390D02*
X31892857Y-51304819D01*
X31892857Y-51304819D02*
X32511904Y-51304819D01*
D10*
X49559863Y-15784742D02*
X48874149Y-15784742D01*
X49217006Y-15784742D02*
X49217006Y-14584742D01*
X49217006Y-14584742D02*
X49102720Y-14756171D01*
X49102720Y-14756171D02*
X48988435Y-14870457D01*
X48988435Y-14870457D02*
X48874149Y-14927600D01*
X50588435Y-14984742D02*
X50588435Y-15784742D01*
X50302720Y-14527600D02*
X50017006Y-15384742D01*
X50017006Y-15384742D02*
X50759863Y-15384742D01*
X48874149Y-37559028D02*
X48931292Y-37501885D01*
X48931292Y-37501885D02*
X49045578Y-37444742D01*
X49045578Y-37444742D02*
X49331292Y-37444742D01*
X49331292Y-37444742D02*
X49445578Y-37501885D01*
X49445578Y-37501885D02*
X49502720Y-37559028D01*
X49502720Y-37559028D02*
X49559863Y-37673314D01*
X49559863Y-37673314D02*
X49559863Y-37787600D01*
X49559863Y-37787600D02*
X49502720Y-37959028D01*
X49502720Y-37959028D02*
X48817006Y-38644742D01*
X48817006Y-38644742D02*
X49559863Y-38644742D01*
X49959863Y-37444742D02*
X50702720Y-37444742D01*
X50702720Y-37444742D02*
X50302720Y-37901885D01*
X50302720Y-37901885D02*
X50474149Y-37901885D01*
X50474149Y-37901885D02*
X50588435Y-37959028D01*
X50588435Y-37959028D02*
X50645577Y-38016171D01*
X50645577Y-38016171D02*
X50702720Y-38130457D01*
X50702720Y-38130457D02*
X50702720Y-38416171D01*
X50702720Y-38416171D02*
X50645577Y-38530457D01*
X50645577Y-38530457D02*
X50588435Y-38587600D01*
X50588435Y-38587600D02*
X50474149Y-38644742D01*
X50474149Y-38644742D02*
X50131292Y-38644742D01*
X50131292Y-38644742D02*
X50017006Y-38587600D01*
X50017006Y-38587600D02*
X49959863Y-38530457D01*
X48874149Y-35019028D02*
X48931292Y-34961885D01*
X48931292Y-34961885D02*
X49045578Y-34904742D01*
X49045578Y-34904742D02*
X49331292Y-34904742D01*
X49331292Y-34904742D02*
X49445578Y-34961885D01*
X49445578Y-34961885D02*
X49502720Y-35019028D01*
X49502720Y-35019028D02*
X49559863Y-35133314D01*
X49559863Y-35133314D02*
X49559863Y-35247600D01*
X49559863Y-35247600D02*
X49502720Y-35419028D01*
X49502720Y-35419028D02*
X48817006Y-36104742D01*
X48817006Y-36104742D02*
X49559863Y-36104742D01*
X50017006Y-35019028D02*
X50074149Y-34961885D01*
X50074149Y-34961885D02*
X50188435Y-34904742D01*
X50188435Y-34904742D02*
X50474149Y-34904742D01*
X50474149Y-34904742D02*
X50588435Y-34961885D01*
X50588435Y-34961885D02*
X50645577Y-35019028D01*
X50645577Y-35019028D02*
X50702720Y-35133314D01*
X50702720Y-35133314D02*
X50702720Y-35247600D01*
X50702720Y-35247600D02*
X50645577Y-35419028D01*
X50645577Y-35419028D02*
X49959863Y-36104742D01*
X49959863Y-36104742D02*
X50702720Y-36104742D01*
X48874149Y-32479027D02*
X48931292Y-32421884D01*
X48931292Y-32421884D02*
X49045578Y-32364741D01*
X49045578Y-32364741D02*
X49331292Y-32364741D01*
X49331292Y-32364741D02*
X49445578Y-32421884D01*
X49445578Y-32421884D02*
X49502720Y-32479027D01*
X49502720Y-32479027D02*
X49559863Y-32593313D01*
X49559863Y-32593313D02*
X49559863Y-32707599D01*
X49559863Y-32707599D02*
X49502720Y-32879027D01*
X49502720Y-32879027D02*
X48817006Y-33564741D01*
X48817006Y-33564741D02*
X49559863Y-33564741D01*
X50702720Y-33564741D02*
X50017006Y-33564741D01*
X50359863Y-33564741D02*
X50359863Y-32364741D01*
X50359863Y-32364741D02*
X50245577Y-32536170D01*
X50245577Y-32536170D02*
X50131292Y-32650456D01*
X50131292Y-32650456D02*
X50017006Y-32707599D01*
X48874149Y-40099028D02*
X48931292Y-40041885D01*
X48931292Y-40041885D02*
X49045578Y-39984742D01*
X49045578Y-39984742D02*
X49331292Y-39984742D01*
X49331292Y-39984742D02*
X49445578Y-40041885D01*
X49445578Y-40041885D02*
X49502720Y-40099028D01*
X49502720Y-40099028D02*
X49559863Y-40213314D01*
X49559863Y-40213314D02*
X49559863Y-40327600D01*
X49559863Y-40327600D02*
X49502720Y-40499028D01*
X49502720Y-40499028D02*
X48817006Y-41184742D01*
X48817006Y-41184742D02*
X49559863Y-41184742D01*
X50588435Y-40384742D02*
X50588435Y-41184742D01*
X50302720Y-39927600D02*
X50017006Y-40784742D01*
X50017006Y-40784742D02*
X50759863Y-40784742D01*
D12*
X51879523Y-49694875D02*
X51308095Y-49694875D01*
X51593809Y-49694875D02*
X51593809Y-48694875D01*
X51593809Y-48694875D02*
X51498571Y-48837732D01*
X51498571Y-48837732D02*
X51403333Y-48932970D01*
X51403333Y-48932970D02*
X51308095Y-48980589D01*
X52450952Y-49123446D02*
X52355714Y-49075827D01*
X52355714Y-49075827D02*
X52308095Y-49028208D01*
X52308095Y-49028208D02*
X52260476Y-48932970D01*
X52260476Y-48932970D02*
X52260476Y-48885351D01*
X52260476Y-48885351D02*
X52308095Y-48790113D01*
X52308095Y-48790113D02*
X52355714Y-48742494D01*
X52355714Y-48742494D02*
X52450952Y-48694875D01*
X52450952Y-48694875D02*
X52641428Y-48694875D01*
X52641428Y-48694875D02*
X52736666Y-48742494D01*
X52736666Y-48742494D02*
X52784285Y-48790113D01*
X52784285Y-48790113D02*
X52831904Y-48885351D01*
X52831904Y-48885351D02*
X52831904Y-48932970D01*
X52831904Y-48932970D02*
X52784285Y-49028208D01*
X52784285Y-49028208D02*
X52736666Y-49075827D01*
X52736666Y-49075827D02*
X52641428Y-49123446D01*
X52641428Y-49123446D02*
X52450952Y-49123446D01*
X52450952Y-49123446D02*
X52355714Y-49171065D01*
X52355714Y-49171065D02*
X52308095Y-49218684D01*
X52308095Y-49218684D02*
X52260476Y-49313922D01*
X52260476Y-49313922D02*
X52260476Y-49504398D01*
X52260476Y-49504398D02*
X52308095Y-49599636D01*
X52308095Y-49599636D02*
X52355714Y-49647256D01*
X52355714Y-49647256D02*
X52450952Y-49694875D01*
X52450952Y-49694875D02*
X52641428Y-49694875D01*
X52641428Y-49694875D02*
X52736666Y-49647256D01*
X52736666Y-49647256D02*
X52784285Y-49599636D01*
X52784285Y-49599636D02*
X52831904Y-49504398D01*
X52831904Y-49504398D02*
X52831904Y-49313922D01*
X52831904Y-49313922D02*
X52784285Y-49218684D01*
X52784285Y-49218684D02*
X52736666Y-49171065D01*
X52736666Y-49171065D02*
X52641428Y-49123446D01*
X51879523Y-51304819D02*
X51308095Y-51304819D01*
X51593809Y-51304819D02*
X51593809Y-50304819D01*
X51593809Y-50304819D02*
X51498571Y-50447676D01*
X51498571Y-50447676D02*
X51403333Y-50542914D01*
X51403333Y-50542914D02*
X51308095Y-50590533D01*
X52212857Y-50304819D02*
X52879523Y-50304819D01*
X52879523Y-50304819D02*
X52450952Y-51304819D01*
D10*
X27268707Y-24744742D02*
X26697279Y-24744742D01*
X26697279Y-24744742D02*
X26640136Y-25316171D01*
X26640136Y-25316171D02*
X26697279Y-25259028D01*
X26697279Y-25259028D02*
X26811565Y-25201885D01*
X26811565Y-25201885D02*
X27097279Y-25201885D01*
X27097279Y-25201885D02*
X27211565Y-25259028D01*
X27211565Y-25259028D02*
X27268707Y-25316171D01*
X27268707Y-25316171D02*
X27325850Y-25430457D01*
X27325850Y-25430457D02*
X27325850Y-25716171D01*
X27325850Y-25716171D02*
X27268707Y-25830457D01*
X27268707Y-25830457D02*
X27211565Y-25887600D01*
X27211565Y-25887600D02*
X27097279Y-25944742D01*
X27097279Y-25944742D02*
X26811565Y-25944742D01*
X26811565Y-25944742D02*
X26697279Y-25887600D01*
X26697279Y-25887600D02*
X26640136Y-25830457D01*
X49559863Y-18324742D02*
X48874149Y-18324742D01*
X49217006Y-18324742D02*
X49217006Y-17124742D01*
X49217006Y-17124742D02*
X49102720Y-17296171D01*
X49102720Y-17296171D02*
X48988435Y-17410457D01*
X48988435Y-17410457D02*
X48874149Y-17467600D01*
X50645577Y-17124742D02*
X50074149Y-17124742D01*
X50074149Y-17124742D02*
X50017006Y-17696171D01*
X50017006Y-17696171D02*
X50074149Y-17639028D01*
X50074149Y-17639028D02*
X50188435Y-17581885D01*
X50188435Y-17581885D02*
X50474149Y-17581885D01*
X50474149Y-17581885D02*
X50588435Y-17639028D01*
X50588435Y-17639028D02*
X50645577Y-17696171D01*
X50645577Y-17696171D02*
X50702720Y-17810457D01*
X50702720Y-17810457D02*
X50702720Y-18096171D01*
X50702720Y-18096171D02*
X50645577Y-18210457D01*
X50645577Y-18210457D02*
X50588435Y-18267600D01*
X50588435Y-18267600D02*
X50474149Y-18324742D01*
X50474149Y-18324742D02*
X50188435Y-18324742D01*
X50188435Y-18324742D02*
X50074149Y-18267600D01*
X50074149Y-18267600D02*
X50017006Y-18210457D01*
X26640136Y-17239028D02*
X26697279Y-17181885D01*
X26697279Y-17181885D02*
X26811565Y-17124742D01*
X26811565Y-17124742D02*
X27097279Y-17124742D01*
X27097279Y-17124742D02*
X27211565Y-17181885D01*
X27211565Y-17181885D02*
X27268707Y-17239028D01*
X27268707Y-17239028D02*
X27325850Y-17353314D01*
X27325850Y-17353314D02*
X27325850Y-17467600D01*
X27325850Y-17467600D02*
X27268707Y-17639028D01*
X27268707Y-17639028D02*
X26582993Y-18324742D01*
X26582993Y-18324742D02*
X27325850Y-18324742D01*
X26182993Y-38644742D02*
X25497279Y-38644742D01*
X25840136Y-38644742D02*
X25840136Y-37444742D01*
X25840136Y-37444742D02*
X25725850Y-37616171D01*
X25725850Y-37616171D02*
X25611565Y-37730457D01*
X25611565Y-37730457D02*
X25497279Y-37787600D01*
X26925850Y-37444742D02*
X27040136Y-37444742D01*
X27040136Y-37444742D02*
X27154422Y-37501885D01*
X27154422Y-37501885D02*
X27211565Y-37559028D01*
X27211565Y-37559028D02*
X27268707Y-37673314D01*
X27268707Y-37673314D02*
X27325850Y-37901885D01*
X27325850Y-37901885D02*
X27325850Y-38187600D01*
X27325850Y-38187600D02*
X27268707Y-38416171D01*
X27268707Y-38416171D02*
X27211565Y-38530457D01*
X27211565Y-38530457D02*
X27154422Y-38587600D01*
X27154422Y-38587600D02*
X27040136Y-38644742D01*
X27040136Y-38644742D02*
X26925850Y-38644742D01*
X26925850Y-38644742D02*
X26811565Y-38587600D01*
X26811565Y-38587600D02*
X26754422Y-38530457D01*
X26754422Y-38530457D02*
X26697279Y-38416171D01*
X26697279Y-38416171D02*
X26640136Y-38187600D01*
X26640136Y-38187600D02*
X26640136Y-37901885D01*
X26640136Y-37901885D02*
X26697279Y-37673314D01*
X26697279Y-37673314D02*
X26754422Y-37559028D01*
X26754422Y-37559028D02*
X26811565Y-37501885D01*
X26811565Y-37501885D02*
X26925850Y-37444742D01*
X54260714Y-39137219D02*
X53689286Y-39137219D01*
X53975000Y-39137219D02*
X53975000Y-38137219D01*
X53975000Y-38137219D02*
X53879762Y-38280076D01*
X53879762Y-38280076D02*
X53784524Y-38375314D01*
X53784524Y-38375314D02*
X53689286Y-38422933D01*
X48874149Y-42639028D02*
X48931292Y-42581885D01*
X48931292Y-42581885D02*
X49045578Y-42524742D01*
X49045578Y-42524742D02*
X49331292Y-42524742D01*
X49331292Y-42524742D02*
X49445578Y-42581885D01*
X49445578Y-42581885D02*
X49502720Y-42639028D01*
X49502720Y-42639028D02*
X49559863Y-42753314D01*
X49559863Y-42753314D02*
X49559863Y-42867600D01*
X49559863Y-42867600D02*
X49502720Y-43039028D01*
X49502720Y-43039028D02*
X48817006Y-43724742D01*
X48817006Y-43724742D02*
X49559863Y-43724742D01*
X50645577Y-42524742D02*
X50074149Y-42524742D01*
X50074149Y-42524742D02*
X50017006Y-43096171D01*
X50017006Y-43096171D02*
X50074149Y-43039028D01*
X50074149Y-43039028D02*
X50188435Y-42981885D01*
X50188435Y-42981885D02*
X50474149Y-42981885D01*
X50474149Y-42981885D02*
X50588435Y-43039028D01*
X50588435Y-43039028D02*
X50645577Y-43096171D01*
X50645577Y-43096171D02*
X50702720Y-43210457D01*
X50702720Y-43210457D02*
X50702720Y-43496171D01*
X50702720Y-43496171D02*
X50645577Y-43610457D01*
X50645577Y-43610457D02*
X50588435Y-43667600D01*
X50588435Y-43667600D02*
X50474149Y-43724742D01*
X50474149Y-43724742D02*
X50188435Y-43724742D01*
X50188435Y-43724742D02*
X50074149Y-43667600D01*
X50074149Y-43667600D02*
X50017006Y-43610457D01*
D12*
X54419523Y-49694875D02*
X53848095Y-49694875D01*
X54133809Y-49694875D02*
X54133809Y-48694875D01*
X54133809Y-48694875D02*
X54038571Y-48837732D01*
X54038571Y-48837732D02*
X53943333Y-48932970D01*
X53943333Y-48932970D02*
X53848095Y-48980589D01*
X55276666Y-48694875D02*
X55086190Y-48694875D01*
X55086190Y-48694875D02*
X54990952Y-48742494D01*
X54990952Y-48742494D02*
X54943333Y-48790113D01*
X54943333Y-48790113D02*
X54848095Y-48932970D01*
X54848095Y-48932970D02*
X54800476Y-49123446D01*
X54800476Y-49123446D02*
X54800476Y-49504398D01*
X54800476Y-49504398D02*
X54848095Y-49599636D01*
X54848095Y-49599636D02*
X54895714Y-49647256D01*
X54895714Y-49647256D02*
X54990952Y-49694875D01*
X54990952Y-49694875D02*
X55181428Y-49694875D01*
X55181428Y-49694875D02*
X55276666Y-49647256D01*
X55276666Y-49647256D02*
X55324285Y-49599636D01*
X55324285Y-49599636D02*
X55371904Y-49504398D01*
X55371904Y-49504398D02*
X55371904Y-49266303D01*
X55371904Y-49266303D02*
X55324285Y-49171065D01*
X55324285Y-49171065D02*
X55276666Y-49123446D01*
X55276666Y-49123446D02*
X55181428Y-49075827D01*
X55181428Y-49075827D02*
X54990952Y-49075827D01*
X54990952Y-49075827D02*
X54895714Y-49123446D01*
X54895714Y-49123446D02*
X54848095Y-49171065D01*
X54848095Y-49171065D02*
X54800476Y-49266303D01*
X54419523Y-51304819D02*
X53848095Y-51304819D01*
X54133809Y-51304819D02*
X54133809Y-50304819D01*
X54133809Y-50304819D02*
X54038571Y-50447676D01*
X54038571Y-50447676D02*
X53943333Y-50542914D01*
X53943333Y-50542914D02*
X53848095Y-50590533D01*
X55324285Y-50304819D02*
X54848095Y-50304819D01*
X54848095Y-50304819D02*
X54800476Y-50781009D01*
X54800476Y-50781009D02*
X54848095Y-50733390D01*
X54848095Y-50733390D02*
X54943333Y-50685771D01*
X54943333Y-50685771D02*
X55181428Y-50685771D01*
X55181428Y-50685771D02*
X55276666Y-50733390D01*
X55276666Y-50733390D02*
X55324285Y-50781009D01*
X55324285Y-50781009D02*
X55371904Y-50876247D01*
X55371904Y-50876247D02*
X55371904Y-51114342D01*
X55371904Y-51114342D02*
X55324285Y-51209580D01*
X55324285Y-51209580D02*
X55276666Y-51257200D01*
X55276666Y-51257200D02*
X55181428Y-51304819D01*
X55181428Y-51304819D02*
X54943333Y-51304819D01*
X54943333Y-51304819D02*
X54848095Y-51257200D01*
X54848095Y-51257200D02*
X54800476Y-51209580D01*
X46228095Y-48790113D02*
X46275714Y-48742494D01*
X46275714Y-48742494D02*
X46370952Y-48694875D01*
X46370952Y-48694875D02*
X46609047Y-48694875D01*
X46609047Y-48694875D02*
X46704285Y-48742494D01*
X46704285Y-48742494D02*
X46751904Y-48790113D01*
X46751904Y-48790113D02*
X46799523Y-48885351D01*
X46799523Y-48885351D02*
X46799523Y-48980589D01*
X46799523Y-48980589D02*
X46751904Y-49123446D01*
X46751904Y-49123446D02*
X46180476Y-49694875D01*
X46180476Y-49694875D02*
X46799523Y-49694875D01*
X47180476Y-48790113D02*
X47228095Y-48742494D01*
X47228095Y-48742494D02*
X47323333Y-48694875D01*
X47323333Y-48694875D02*
X47561428Y-48694875D01*
X47561428Y-48694875D02*
X47656666Y-48742494D01*
X47656666Y-48742494D02*
X47704285Y-48790113D01*
X47704285Y-48790113D02*
X47751904Y-48885351D01*
X47751904Y-48885351D02*
X47751904Y-48980589D01*
X47751904Y-48980589D02*
X47704285Y-49123446D01*
X47704285Y-49123446D02*
X47132857Y-49694875D01*
X47132857Y-49694875D02*
X47751904Y-49694875D01*
X46228095Y-50400057D02*
X46275714Y-50352438D01*
X46275714Y-50352438D02*
X46370952Y-50304819D01*
X46370952Y-50304819D02*
X46609047Y-50304819D01*
X46609047Y-50304819D02*
X46704285Y-50352438D01*
X46704285Y-50352438D02*
X46751904Y-50400057D01*
X46751904Y-50400057D02*
X46799523Y-50495295D01*
X46799523Y-50495295D02*
X46799523Y-50590533D01*
X46799523Y-50590533D02*
X46751904Y-50733390D01*
X46751904Y-50733390D02*
X46180476Y-51304819D01*
X46180476Y-51304819D02*
X46799523Y-51304819D01*
X47751904Y-51304819D02*
X47180476Y-51304819D01*
X47466190Y-51304819D02*
X47466190Y-50304819D01*
X47466190Y-50304819D02*
X47370952Y-50447676D01*
X47370952Y-50447676D02*
X47275714Y-50542914D01*
X47275714Y-50542914D02*
X47180476Y-50590533D01*
D10*
X49559863Y-28484741D02*
X48874149Y-28484741D01*
X49217006Y-28484741D02*
X49217006Y-27284741D01*
X49217006Y-27284741D02*
X49102720Y-27456170D01*
X49102720Y-27456170D02*
X48988435Y-27570456D01*
X48988435Y-27570456D02*
X48874149Y-27627599D01*
X50131292Y-28484741D02*
X50359863Y-28484741D01*
X50359863Y-28484741D02*
X50474149Y-28427599D01*
X50474149Y-28427599D02*
X50531292Y-28370456D01*
X50531292Y-28370456D02*
X50645577Y-28199027D01*
X50645577Y-28199027D02*
X50702720Y-27970456D01*
X50702720Y-27970456D02*
X50702720Y-27513313D01*
X50702720Y-27513313D02*
X50645577Y-27399027D01*
X50645577Y-27399027D02*
X50588435Y-27341884D01*
X50588435Y-27341884D02*
X50474149Y-27284741D01*
X50474149Y-27284741D02*
X50245577Y-27284741D01*
X50245577Y-27284741D02*
X50131292Y-27341884D01*
X50131292Y-27341884D02*
X50074149Y-27399027D01*
X50074149Y-27399027D02*
X50017006Y-27513313D01*
X50017006Y-27513313D02*
X50017006Y-27799027D01*
X50017006Y-27799027D02*
X50074149Y-27913313D01*
X50074149Y-27913313D02*
X50131292Y-27970456D01*
X50131292Y-27970456D02*
X50245577Y-28027599D01*
X50245577Y-28027599D02*
X50474149Y-28027599D01*
X50474149Y-28027599D02*
X50588435Y-27970456D01*
X50588435Y-27970456D02*
X50645577Y-27913313D01*
X50645577Y-27913313D02*
X50702720Y-27799027D01*
D11*
X33409524Y-15822503D02*
X33409524Y-14822503D01*
X33409524Y-14822503D02*
X33790476Y-14822503D01*
X33790476Y-14822503D02*
X33885714Y-14870122D01*
X33885714Y-14870122D02*
X33933333Y-14917741D01*
X33933333Y-14917741D02*
X33980952Y-15012979D01*
X33980952Y-15012979D02*
X33980952Y-15155836D01*
X33980952Y-15155836D02*
X33933333Y-15251074D01*
X33933333Y-15251074D02*
X33885714Y-15298693D01*
X33885714Y-15298693D02*
X33790476Y-15346312D01*
X33790476Y-15346312D02*
X33409524Y-15346312D01*
X34409524Y-15822503D02*
X34409524Y-14822503D01*
X34885714Y-15822503D02*
X34885714Y-14822503D01*
X34885714Y-14822503D02*
X35457142Y-15822503D01*
X35457142Y-15822503D02*
X35457142Y-14822503D01*
X35885714Y-15774884D02*
X36028571Y-15822503D01*
X36028571Y-15822503D02*
X36266666Y-15822503D01*
X36266666Y-15822503D02*
X36361904Y-15774884D01*
X36361904Y-15774884D02*
X36409523Y-15727264D01*
X36409523Y-15727264D02*
X36457142Y-15632026D01*
X36457142Y-15632026D02*
X36457142Y-15536788D01*
X36457142Y-15536788D02*
X36409523Y-15441550D01*
X36409523Y-15441550D02*
X36361904Y-15393931D01*
X36361904Y-15393931D02*
X36266666Y-15346312D01*
X36266666Y-15346312D02*
X36076190Y-15298693D01*
X36076190Y-15298693D02*
X35980952Y-15251074D01*
X35980952Y-15251074D02*
X35933333Y-15203455D01*
X35933333Y-15203455D02*
X35885714Y-15108217D01*
X35885714Y-15108217D02*
X35885714Y-15012979D01*
X35885714Y-15012979D02*
X35933333Y-14917741D01*
X35933333Y-14917741D02*
X35980952Y-14870122D01*
X35980952Y-14870122D02*
X36076190Y-14822503D01*
X36076190Y-14822503D02*
X36314285Y-14822503D01*
X36314285Y-14822503D02*
X36457142Y-14870122D01*
X38171428Y-15822503D02*
X37600000Y-15822503D01*
X37885714Y-15822503D02*
X37885714Y-14822503D01*
X37885714Y-14822503D02*
X37790476Y-14965360D01*
X37790476Y-14965360D02*
X37695238Y-15060598D01*
X37695238Y-15060598D02*
X37600000Y-15108217D01*
X40171429Y-15822503D02*
X40123810Y-15822503D01*
X40123810Y-15822503D02*
X40028571Y-15774884D01*
X40028571Y-15774884D02*
X39885714Y-15632026D01*
X39885714Y-15632026D02*
X39647619Y-15346312D01*
X39647619Y-15346312D02*
X39552381Y-15203455D01*
X39552381Y-15203455D02*
X39504762Y-15060598D01*
X39504762Y-15060598D02*
X39504762Y-14965360D01*
X39504762Y-14965360D02*
X39552381Y-14870122D01*
X39552381Y-14870122D02*
X39647619Y-14822503D01*
X39647619Y-14822503D02*
X39695238Y-14822503D01*
X39695238Y-14822503D02*
X39790476Y-14870122D01*
X39790476Y-14870122D02*
X39838095Y-14965360D01*
X39838095Y-14965360D02*
X39838095Y-15012979D01*
X39838095Y-15012979D02*
X39790476Y-15108217D01*
X39790476Y-15108217D02*
X39742857Y-15155836D01*
X39742857Y-15155836D02*
X39457143Y-15346312D01*
X39457143Y-15346312D02*
X39409524Y-15393931D01*
X39409524Y-15393931D02*
X39361905Y-15489169D01*
X39361905Y-15489169D02*
X39361905Y-15632026D01*
X39361905Y-15632026D02*
X39409524Y-15727264D01*
X39409524Y-15727264D02*
X39457143Y-15774884D01*
X39457143Y-15774884D02*
X39552381Y-15822503D01*
X39552381Y-15822503D02*
X39695238Y-15822503D01*
X39695238Y-15822503D02*
X39790476Y-15774884D01*
X39790476Y-15774884D02*
X39838095Y-15727264D01*
X39838095Y-15727264D02*
X39980952Y-15536788D01*
X39980952Y-15536788D02*
X40028571Y-15393931D01*
X40028571Y-15393931D02*
X40028571Y-15298693D01*
X41885714Y-15822503D02*
X41314286Y-15822503D01*
X41600000Y-15822503D02*
X41600000Y-14822503D01*
X41600000Y-14822503D02*
X41504762Y-14965360D01*
X41504762Y-14965360D02*
X41409524Y-15060598D01*
X41409524Y-15060598D02*
X41314286Y-15108217D01*
X42742857Y-15155836D02*
X42742857Y-15822503D01*
X42504762Y-14774884D02*
X42266667Y-15489169D01*
X42266667Y-15489169D02*
X42885714Y-15489169D01*
X33266666Y-17146732D02*
X33742856Y-17146732D01*
X33171428Y-17432447D02*
X33504761Y-16432447D01*
X33504761Y-16432447D02*
X33838094Y-17432447D01*
X34742856Y-17432447D02*
X34409523Y-16956256D01*
X34171428Y-17432447D02*
X34171428Y-16432447D01*
X34171428Y-16432447D02*
X34552380Y-16432447D01*
X34552380Y-16432447D02*
X34647618Y-16480066D01*
X34647618Y-16480066D02*
X34695237Y-16527685D01*
X34695237Y-16527685D02*
X34742856Y-16622923D01*
X34742856Y-16622923D02*
X34742856Y-16765780D01*
X34742856Y-16765780D02*
X34695237Y-16861018D01*
X34695237Y-16861018D02*
X34647618Y-16908637D01*
X34647618Y-16908637D02*
X34552380Y-16956256D01*
X34552380Y-16956256D02*
X34171428Y-16956256D01*
X35171428Y-16908637D02*
X35504761Y-16908637D01*
X35647618Y-17432447D02*
X35171428Y-17432447D01*
X35171428Y-17432447D02*
X35171428Y-16432447D01*
X35171428Y-16432447D02*
X35647618Y-16432447D01*
X37171428Y-16908637D02*
X37314285Y-16956256D01*
X37314285Y-16956256D02*
X37361904Y-17003875D01*
X37361904Y-17003875D02*
X37409523Y-17099113D01*
X37409523Y-17099113D02*
X37409523Y-17241970D01*
X37409523Y-17241970D02*
X37361904Y-17337208D01*
X37361904Y-17337208D02*
X37314285Y-17384828D01*
X37314285Y-17384828D02*
X37219047Y-17432447D01*
X37219047Y-17432447D02*
X36838095Y-17432447D01*
X36838095Y-17432447D02*
X36838095Y-16432447D01*
X36838095Y-16432447D02*
X37171428Y-16432447D01*
X37171428Y-16432447D02*
X37266666Y-16480066D01*
X37266666Y-16480066D02*
X37314285Y-16527685D01*
X37314285Y-16527685D02*
X37361904Y-16622923D01*
X37361904Y-16622923D02*
X37361904Y-16718161D01*
X37361904Y-16718161D02*
X37314285Y-16813399D01*
X37314285Y-16813399D02*
X37266666Y-16861018D01*
X37266666Y-16861018D02*
X37171428Y-16908637D01*
X37171428Y-16908637D02*
X36838095Y-16908637D01*
X37790476Y-17146732D02*
X38266666Y-17146732D01*
X37695238Y-17432447D02*
X38028571Y-16432447D01*
X38028571Y-16432447D02*
X38361904Y-17432447D01*
X38552381Y-16432447D02*
X39123809Y-16432447D01*
X38838095Y-17432447D02*
X38838095Y-16432447D01*
X40219048Y-17432447D02*
X40219048Y-16432447D01*
X40219048Y-16432447D02*
X40600000Y-16432447D01*
X40600000Y-16432447D02*
X40695238Y-16480066D01*
X40695238Y-16480066D02*
X40742857Y-16527685D01*
X40742857Y-16527685D02*
X40790476Y-16622923D01*
X40790476Y-16622923D02*
X40790476Y-16765780D01*
X40790476Y-16765780D02*
X40742857Y-16861018D01*
X40742857Y-16861018D02*
X40695238Y-16908637D01*
X40695238Y-16908637D02*
X40600000Y-16956256D01*
X40600000Y-16956256D02*
X40219048Y-16956256D01*
X41123810Y-16432447D02*
X41361905Y-17432447D01*
X41361905Y-17432447D02*
X41552381Y-16718161D01*
X41552381Y-16718161D02*
X41742857Y-17432447D01*
X41742857Y-17432447D02*
X41980953Y-16432447D01*
X42933333Y-17432447D02*
X42600000Y-16956256D01*
X42361905Y-17432447D02*
X42361905Y-16432447D01*
X42361905Y-16432447D02*
X42742857Y-16432447D01*
X42742857Y-16432447D02*
X42838095Y-16480066D01*
X42838095Y-16480066D02*
X42885714Y-16527685D01*
X42885714Y-16527685D02*
X42933333Y-16622923D01*
X42933333Y-16622923D02*
X42933333Y-16765780D01*
X42933333Y-16765780D02*
X42885714Y-16861018D01*
X42885714Y-16861018D02*
X42838095Y-16908637D01*
X42838095Y-16908637D02*
X42742857Y-16956256D01*
X42742857Y-16956256D02*
X42361905Y-16956256D01*
X34647619Y-19042391D02*
X34647619Y-18042391D01*
X35457142Y-18518581D02*
X35123809Y-18518581D01*
X35123809Y-19042391D02*
X35123809Y-18042391D01*
X35123809Y-18042391D02*
X35599999Y-18042391D01*
X36742857Y-18042391D02*
X36742857Y-18851914D01*
X36742857Y-18851914D02*
X36790476Y-18947152D01*
X36790476Y-18947152D02*
X36838095Y-18994772D01*
X36838095Y-18994772D02*
X36933333Y-19042391D01*
X36933333Y-19042391D02*
X37123809Y-19042391D01*
X37123809Y-19042391D02*
X37219047Y-18994772D01*
X37219047Y-18994772D02*
X37266666Y-18947152D01*
X37266666Y-18947152D02*
X37314285Y-18851914D01*
X37314285Y-18851914D02*
X37314285Y-18042391D01*
X37742857Y-18994772D02*
X37885714Y-19042391D01*
X37885714Y-19042391D02*
X38123809Y-19042391D01*
X38123809Y-19042391D02*
X38219047Y-18994772D01*
X38219047Y-18994772D02*
X38266666Y-18947152D01*
X38266666Y-18947152D02*
X38314285Y-18851914D01*
X38314285Y-18851914D02*
X38314285Y-18756676D01*
X38314285Y-18756676D02*
X38266666Y-18661438D01*
X38266666Y-18661438D02*
X38219047Y-18613819D01*
X38219047Y-18613819D02*
X38123809Y-18566200D01*
X38123809Y-18566200D02*
X37933333Y-18518581D01*
X37933333Y-18518581D02*
X37838095Y-18470962D01*
X37838095Y-18470962D02*
X37790476Y-18423343D01*
X37790476Y-18423343D02*
X37742857Y-18328105D01*
X37742857Y-18328105D02*
X37742857Y-18232867D01*
X37742857Y-18232867D02*
X37790476Y-18137629D01*
X37790476Y-18137629D02*
X37838095Y-18090010D01*
X37838095Y-18090010D02*
X37933333Y-18042391D01*
X37933333Y-18042391D02*
X38171428Y-18042391D01*
X38171428Y-18042391D02*
X38314285Y-18090010D01*
X38742857Y-19042391D02*
X38742857Y-18042391D01*
X39219047Y-19042391D02*
X39219047Y-18042391D01*
X39219047Y-18042391D02*
X39790475Y-19042391D01*
X39790475Y-19042391D02*
X39790475Y-18042391D01*
X40790475Y-18090010D02*
X40695237Y-18042391D01*
X40695237Y-18042391D02*
X40552380Y-18042391D01*
X40552380Y-18042391D02*
X40409523Y-18090010D01*
X40409523Y-18090010D02*
X40314285Y-18185248D01*
X40314285Y-18185248D02*
X40266666Y-18280486D01*
X40266666Y-18280486D02*
X40219047Y-18470962D01*
X40219047Y-18470962D02*
X40219047Y-18613819D01*
X40219047Y-18613819D02*
X40266666Y-18804295D01*
X40266666Y-18804295D02*
X40314285Y-18899533D01*
X40314285Y-18899533D02*
X40409523Y-18994772D01*
X40409523Y-18994772D02*
X40552380Y-19042391D01*
X40552380Y-19042391D02*
X40647618Y-19042391D01*
X40647618Y-19042391D02*
X40790475Y-18994772D01*
X40790475Y-18994772D02*
X40838094Y-18947152D01*
X40838094Y-18947152D02*
X40838094Y-18613819D01*
X40838094Y-18613819D02*
X40647618Y-18613819D01*
X34385715Y-20652335D02*
X34385715Y-19652335D01*
X34385715Y-19652335D02*
X34957143Y-20652335D01*
X34957143Y-20652335D02*
X34957143Y-19652335D01*
X35433334Y-20652335D02*
X35433334Y-19652335D01*
X36480952Y-20557096D02*
X36433333Y-20604716D01*
X36433333Y-20604716D02*
X36290476Y-20652335D01*
X36290476Y-20652335D02*
X36195238Y-20652335D01*
X36195238Y-20652335D02*
X36052381Y-20604716D01*
X36052381Y-20604716D02*
X35957143Y-20509477D01*
X35957143Y-20509477D02*
X35909524Y-20414239D01*
X35909524Y-20414239D02*
X35861905Y-20223763D01*
X35861905Y-20223763D02*
X35861905Y-20080906D01*
X35861905Y-20080906D02*
X35909524Y-19890430D01*
X35909524Y-19890430D02*
X35957143Y-19795192D01*
X35957143Y-19795192D02*
X36052381Y-19699954D01*
X36052381Y-19699954D02*
X36195238Y-19652335D01*
X36195238Y-19652335D02*
X36290476Y-19652335D01*
X36290476Y-19652335D02*
X36433333Y-19699954D01*
X36433333Y-19699954D02*
X36480952Y-19747573D01*
X36909524Y-20128525D02*
X37242857Y-20128525D01*
X37385714Y-20652335D02*
X36909524Y-20652335D01*
X36909524Y-20652335D02*
X36909524Y-19652335D01*
X36909524Y-19652335D02*
X37385714Y-19652335D01*
X37814286Y-20557096D02*
X37861905Y-20604716D01*
X37861905Y-20604716D02*
X37814286Y-20652335D01*
X37814286Y-20652335D02*
X37766667Y-20604716D01*
X37766667Y-20604716D02*
X37814286Y-20557096D01*
X37814286Y-20557096D02*
X37814286Y-20652335D01*
X37814286Y-20271382D02*
X37766667Y-19699954D01*
X37766667Y-19699954D02*
X37814286Y-19652335D01*
X37814286Y-19652335D02*
X37861905Y-19699954D01*
X37861905Y-19699954D02*
X37814286Y-20271382D01*
X37814286Y-20271382D02*
X37814286Y-19652335D01*
X38290476Y-20652335D02*
X38290476Y-19652335D01*
X38290476Y-19652335D02*
X38861904Y-20652335D01*
X38861904Y-20652335D02*
X38861904Y-19652335D01*
X39290476Y-20366620D02*
X39766666Y-20366620D01*
X39195238Y-20652335D02*
X39528571Y-19652335D01*
X39528571Y-19652335D02*
X39861904Y-20652335D01*
X40195238Y-20652335D02*
X40195238Y-19652335D01*
X40195238Y-19652335D02*
X40766666Y-20652335D01*
X40766666Y-20652335D02*
X40766666Y-19652335D01*
X41433333Y-19652335D02*
X41623809Y-19652335D01*
X41623809Y-19652335D02*
X41719047Y-19699954D01*
X41719047Y-19699954D02*
X41814285Y-19795192D01*
X41814285Y-19795192D02*
X41861904Y-19985668D01*
X41861904Y-19985668D02*
X41861904Y-20319001D01*
X41861904Y-20319001D02*
X41814285Y-20509477D01*
X41814285Y-20509477D02*
X41719047Y-20604716D01*
X41719047Y-20604716D02*
X41623809Y-20652335D01*
X41623809Y-20652335D02*
X41433333Y-20652335D01*
X41433333Y-20652335D02*
X41338095Y-20604716D01*
X41338095Y-20604716D02*
X41242857Y-20509477D01*
X41242857Y-20509477D02*
X41195238Y-20319001D01*
X41195238Y-20319001D02*
X41195238Y-19985668D01*
X41195238Y-19985668D02*
X41242857Y-19795192D01*
X41242857Y-19795192D02*
X41338095Y-19699954D01*
X41338095Y-19699954D02*
X41433333Y-19652335D01*
D10*
X49559863Y-20864741D02*
X48874149Y-20864741D01*
X49217006Y-20864741D02*
X49217006Y-19664741D01*
X49217006Y-19664741D02*
X49102720Y-19836170D01*
X49102720Y-19836170D02*
X48988435Y-19950456D01*
X48988435Y-19950456D02*
X48874149Y-20007599D01*
X50588435Y-19664741D02*
X50359863Y-19664741D01*
X50359863Y-19664741D02*
X50245577Y-19721884D01*
X50245577Y-19721884D02*
X50188435Y-19779027D01*
X50188435Y-19779027D02*
X50074149Y-19950456D01*
X50074149Y-19950456D02*
X50017006Y-20179027D01*
X50017006Y-20179027D02*
X50017006Y-20636170D01*
X50017006Y-20636170D02*
X50074149Y-20750456D01*
X50074149Y-20750456D02*
X50131292Y-20807599D01*
X50131292Y-20807599D02*
X50245577Y-20864741D01*
X50245577Y-20864741D02*
X50474149Y-20864741D01*
X50474149Y-20864741D02*
X50588435Y-20807599D01*
X50588435Y-20807599D02*
X50645577Y-20750456D01*
X50645577Y-20750456D02*
X50702720Y-20636170D01*
X50702720Y-20636170D02*
X50702720Y-20350456D01*
X50702720Y-20350456D02*
X50645577Y-20236170D01*
X50645577Y-20236170D02*
X50588435Y-20179027D01*
X50588435Y-20179027D02*
X50474149Y-20121884D01*
X50474149Y-20121884D02*
X50245577Y-20121884D01*
X50245577Y-20121884D02*
X50131292Y-20179027D01*
X50131292Y-20179027D02*
X50074149Y-20236170D01*
X50074149Y-20236170D02*
X50017006Y-20350456D01*
X27325850Y-15784742D02*
X26640136Y-15784742D01*
X26982993Y-15784742D02*
X26982993Y-14584742D01*
X26982993Y-14584742D02*
X26868707Y-14756171D01*
X26868707Y-14756171D02*
X26754422Y-14870457D01*
X26754422Y-14870457D02*
X26640136Y-14927600D01*
D12*
X48768095Y-48790113D02*
X48815714Y-48742494D01*
X48815714Y-48742494D02*
X48910952Y-48694875D01*
X48910952Y-48694875D02*
X49149047Y-48694875D01*
X49149047Y-48694875D02*
X49244285Y-48742494D01*
X49244285Y-48742494D02*
X49291904Y-48790113D01*
X49291904Y-48790113D02*
X49339523Y-48885351D01*
X49339523Y-48885351D02*
X49339523Y-48980589D01*
X49339523Y-48980589D02*
X49291904Y-49123446D01*
X49291904Y-49123446D02*
X48720476Y-49694875D01*
X48720476Y-49694875D02*
X49339523Y-49694875D01*
X49958571Y-48694875D02*
X50053809Y-48694875D01*
X50053809Y-48694875D02*
X50149047Y-48742494D01*
X50149047Y-48742494D02*
X50196666Y-48790113D01*
X50196666Y-48790113D02*
X50244285Y-48885351D01*
X50244285Y-48885351D02*
X50291904Y-49075827D01*
X50291904Y-49075827D02*
X50291904Y-49313922D01*
X50291904Y-49313922D02*
X50244285Y-49504398D01*
X50244285Y-49504398D02*
X50196666Y-49599636D01*
X50196666Y-49599636D02*
X50149047Y-49647256D01*
X50149047Y-49647256D02*
X50053809Y-49694875D01*
X50053809Y-49694875D02*
X49958571Y-49694875D01*
X49958571Y-49694875D02*
X49863333Y-49647256D01*
X49863333Y-49647256D02*
X49815714Y-49599636D01*
X49815714Y-49599636D02*
X49768095Y-49504398D01*
X49768095Y-49504398D02*
X49720476Y-49313922D01*
X49720476Y-49313922D02*
X49720476Y-49075827D01*
X49720476Y-49075827D02*
X49768095Y-48885351D01*
X49768095Y-48885351D02*
X49815714Y-48790113D01*
X49815714Y-48790113D02*
X49863333Y-48742494D01*
X49863333Y-48742494D02*
X49958571Y-48694875D01*
X49339523Y-51304819D02*
X48768095Y-51304819D01*
X49053809Y-51304819D02*
X49053809Y-50304819D01*
X49053809Y-50304819D02*
X48958571Y-50447676D01*
X48958571Y-50447676D02*
X48863333Y-50542914D01*
X48863333Y-50542914D02*
X48768095Y-50590533D01*
X49815714Y-51304819D02*
X50006190Y-51304819D01*
X50006190Y-51304819D02*
X50101428Y-51257200D01*
X50101428Y-51257200D02*
X50149047Y-51209580D01*
X50149047Y-51209580D02*
X50244285Y-51066723D01*
X50244285Y-51066723D02*
X50291904Y-50876247D01*
X50291904Y-50876247D02*
X50291904Y-50495295D01*
X50291904Y-50495295D02*
X50244285Y-50400057D01*
X50244285Y-50400057D02*
X50196666Y-50352438D01*
X50196666Y-50352438D02*
X50101428Y-50304819D01*
X50101428Y-50304819D02*
X49910952Y-50304819D01*
X49910952Y-50304819D02*
X49815714Y-50352438D01*
X49815714Y-50352438D02*
X49768095Y-50400057D01*
X49768095Y-50400057D02*
X49720476Y-50495295D01*
X49720476Y-50495295D02*
X49720476Y-50733390D01*
X49720476Y-50733390D02*
X49768095Y-50828628D01*
X49768095Y-50828628D02*
X49815714Y-50876247D01*
X49815714Y-50876247D02*
X49910952Y-50923866D01*
X49910952Y-50923866D02*
X50101428Y-50923866D01*
X50101428Y-50923866D02*
X50196666Y-50876247D01*
X50196666Y-50876247D02*
X50244285Y-50828628D01*
X50244285Y-50828628D02*
X50291904Y-50733390D01*
D10*
X26868707Y-32879028D02*
X26754422Y-32821885D01*
X26754422Y-32821885D02*
X26697279Y-32764742D01*
X26697279Y-32764742D02*
X26640136Y-32650457D01*
X26640136Y-32650457D02*
X26640136Y-32593314D01*
X26640136Y-32593314D02*
X26697279Y-32479028D01*
X26697279Y-32479028D02*
X26754422Y-32421885D01*
X26754422Y-32421885D02*
X26868707Y-32364742D01*
X26868707Y-32364742D02*
X27097279Y-32364742D01*
X27097279Y-32364742D02*
X27211565Y-32421885D01*
X27211565Y-32421885D02*
X27268707Y-32479028D01*
X27268707Y-32479028D02*
X27325850Y-32593314D01*
X27325850Y-32593314D02*
X27325850Y-32650457D01*
X27325850Y-32650457D02*
X27268707Y-32764742D01*
X27268707Y-32764742D02*
X27211565Y-32821885D01*
X27211565Y-32821885D02*
X27097279Y-32879028D01*
X27097279Y-32879028D02*
X26868707Y-32879028D01*
X26868707Y-32879028D02*
X26754422Y-32936171D01*
X26754422Y-32936171D02*
X26697279Y-32993314D01*
X26697279Y-32993314D02*
X26640136Y-33107600D01*
X26640136Y-33107600D02*
X26640136Y-33336171D01*
X26640136Y-33336171D02*
X26697279Y-33450457D01*
X26697279Y-33450457D02*
X26754422Y-33507600D01*
X26754422Y-33507600D02*
X26868707Y-33564742D01*
X26868707Y-33564742D02*
X27097279Y-33564742D01*
X27097279Y-33564742D02*
X27211565Y-33507600D01*
X27211565Y-33507600D02*
X27268707Y-33450457D01*
X27268707Y-33450457D02*
X27325850Y-33336171D01*
X27325850Y-33336171D02*
X27325850Y-33107600D01*
X27325850Y-33107600D02*
X27268707Y-32993314D01*
X27268707Y-32993314D02*
X27211565Y-32936171D01*
X27211565Y-32936171D02*
X27097279Y-32879028D01*
X27211565Y-22604742D02*
X27211565Y-23404742D01*
X26925850Y-22147600D02*
X26640136Y-23004742D01*
X26640136Y-23004742D02*
X27382993Y-23004742D01*
X53784523Y-31617219D02*
X53213095Y-31617219D01*
X53498809Y-31617219D02*
X53498809Y-30617219D01*
X53498809Y-30617219D02*
X53403571Y-30760076D01*
X53403571Y-30760076D02*
X53308333Y-30855314D01*
X53308333Y-30855314D02*
X53213095Y-30902933D01*
X54641666Y-30950552D02*
X54641666Y-31617219D01*
X54403571Y-30569600D02*
X54165476Y-31283885D01*
X54165476Y-31283885D02*
X54784523Y-31283885D01*
X26582993Y-19664742D02*
X27325850Y-19664742D01*
X27325850Y-19664742D02*
X26925850Y-20121885D01*
X26925850Y-20121885D02*
X27097279Y-20121885D01*
X27097279Y-20121885D02*
X27211565Y-20179028D01*
X27211565Y-20179028D02*
X27268707Y-20236171D01*
X27268707Y-20236171D02*
X27325850Y-20350457D01*
X27325850Y-20350457D02*
X27325850Y-20636171D01*
X27325850Y-20636171D02*
X27268707Y-20750457D01*
X27268707Y-20750457D02*
X27211565Y-20807600D01*
X27211565Y-20807600D02*
X27097279Y-20864742D01*
X27097279Y-20864742D02*
X26754422Y-20864742D01*
X26754422Y-20864742D02*
X26640136Y-20807600D01*
X26640136Y-20807600D02*
X26582993Y-20750457D01*
X26182993Y-41184742D02*
X25497279Y-41184742D01*
X25840136Y-41184742D02*
X25840136Y-39984742D01*
X25840136Y-39984742D02*
X25725850Y-40156171D01*
X25725850Y-40156171D02*
X25611565Y-40270457D01*
X25611565Y-40270457D02*
X25497279Y-40327600D01*
X27325850Y-41184742D02*
X26640136Y-41184742D01*
X26982993Y-41184742D02*
X26982993Y-39984742D01*
X26982993Y-39984742D02*
X26868707Y-40156171D01*
X26868707Y-40156171D02*
X26754422Y-40270457D01*
X26754422Y-40270457D02*
X26640136Y-40327600D01*
X26182993Y-43724742D02*
X25497279Y-43724742D01*
X25840136Y-43724742D02*
X25840136Y-42524742D01*
X25840136Y-42524742D02*
X25725850Y-42696171D01*
X25725850Y-42696171D02*
X25611565Y-42810457D01*
X25611565Y-42810457D02*
X25497279Y-42867600D01*
X26640136Y-42639028D02*
X26697279Y-42581885D01*
X26697279Y-42581885D02*
X26811565Y-42524742D01*
X26811565Y-42524742D02*
X27097279Y-42524742D01*
X27097279Y-42524742D02*
X27211565Y-42581885D01*
X27211565Y-42581885D02*
X27268707Y-42639028D01*
X27268707Y-42639028D02*
X27325850Y-42753314D01*
X27325850Y-42753314D02*
X27325850Y-42867600D01*
X27325850Y-42867600D02*
X27268707Y-43039028D01*
X27268707Y-43039028D02*
X26582993Y-43724742D01*
X26582993Y-43724742D02*
X27325850Y-43724742D01*
X27706993Y-46264742D02*
X27021279Y-46264742D01*
X27364136Y-46264742D02*
X27364136Y-45064742D01*
X27364136Y-45064742D02*
X27249850Y-45236171D01*
X27249850Y-45236171D02*
X27135565Y-45350457D01*
X27135565Y-45350457D02*
X27021279Y-45407600D01*
X28106993Y-45064742D02*
X28849850Y-45064742D01*
X28849850Y-45064742D02*
X28449850Y-45521885D01*
X28449850Y-45521885D02*
X28621279Y-45521885D01*
X28621279Y-45521885D02*
X28735565Y-45579028D01*
X28735565Y-45579028D02*
X28792707Y-45636171D01*
X28792707Y-45636171D02*
X28849850Y-45750457D01*
X28849850Y-45750457D02*
X28849850Y-46036171D01*
X28849850Y-46036171D02*
X28792707Y-46150457D01*
X28792707Y-46150457D02*
X28735565Y-46207600D01*
X28735565Y-46207600D02*
X28621279Y-46264742D01*
X28621279Y-46264742D02*
X28278422Y-46264742D01*
X28278422Y-46264742D02*
X28164136Y-46207600D01*
X28164136Y-46207600D02*
X28106993Y-46150457D01*
D12*
X26336667Y-48694875D02*
X27003333Y-48694875D01*
X27003333Y-48694875D02*
X26574762Y-49694875D01*
X26574762Y-50733390D02*
X26479524Y-50685771D01*
X26479524Y-50685771D02*
X26431905Y-50638152D01*
X26431905Y-50638152D02*
X26384286Y-50542914D01*
X26384286Y-50542914D02*
X26384286Y-50495295D01*
X26384286Y-50495295D02*
X26431905Y-50400057D01*
X26431905Y-50400057D02*
X26479524Y-50352438D01*
X26479524Y-50352438D02*
X26574762Y-50304819D01*
X26574762Y-50304819D02*
X26765238Y-50304819D01*
X26765238Y-50304819D02*
X26860476Y-50352438D01*
X26860476Y-50352438D02*
X26908095Y-50400057D01*
X26908095Y-50400057D02*
X26955714Y-50495295D01*
X26955714Y-50495295D02*
X26955714Y-50542914D01*
X26955714Y-50542914D02*
X26908095Y-50638152D01*
X26908095Y-50638152D02*
X26860476Y-50685771D01*
X26860476Y-50685771D02*
X26765238Y-50733390D01*
X26765238Y-50733390D02*
X26574762Y-50733390D01*
X26574762Y-50733390D02*
X26479524Y-50781009D01*
X26479524Y-50781009D02*
X26431905Y-50828628D01*
X26431905Y-50828628D02*
X26384286Y-50923866D01*
X26384286Y-50923866D02*
X26384286Y-51114342D01*
X26384286Y-51114342D02*
X26431905Y-51209580D01*
X26431905Y-51209580D02*
X26479524Y-51257200D01*
X26479524Y-51257200D02*
X26574762Y-51304819D01*
X26574762Y-51304819D02*
X26765238Y-51304819D01*
X26765238Y-51304819D02*
X26860476Y-51257200D01*
X26860476Y-51257200D02*
X26908095Y-51209580D01*
X26908095Y-51209580D02*
X26955714Y-51114342D01*
X26955714Y-51114342D02*
X26955714Y-50923866D01*
X26955714Y-50923866D02*
X26908095Y-50828628D01*
X26908095Y-50828628D02*
X26860476Y-50781009D01*
X26860476Y-50781009D02*
X26765238Y-50733390D01*
D10*
X49559863Y-23404741D02*
X48874149Y-23404741D01*
X49217006Y-23404741D02*
X49217006Y-22204741D01*
X49217006Y-22204741D02*
X49102720Y-22376170D01*
X49102720Y-22376170D02*
X48988435Y-22490456D01*
X48988435Y-22490456D02*
X48874149Y-22547599D01*
X49959863Y-22204741D02*
X50759863Y-22204741D01*
X50759863Y-22204741D02*
X50245577Y-23404741D01*
D12*
X21256667Y-48694875D02*
X21875714Y-48694875D01*
X21875714Y-48694875D02*
X21542381Y-49075827D01*
X21542381Y-49075827D02*
X21685238Y-49075827D01*
X21685238Y-49075827D02*
X21780476Y-49123446D01*
X21780476Y-49123446D02*
X21828095Y-49171065D01*
X21828095Y-49171065D02*
X21875714Y-49266303D01*
X21875714Y-49266303D02*
X21875714Y-49504398D01*
X21875714Y-49504398D02*
X21828095Y-49599636D01*
X21828095Y-49599636D02*
X21780476Y-49647256D01*
X21780476Y-49647256D02*
X21685238Y-49694875D01*
X21685238Y-49694875D02*
X21399524Y-49694875D01*
X21399524Y-49694875D02*
X21304286Y-49647256D01*
X21304286Y-49647256D02*
X21256667Y-49599636D01*
X21780476Y-50638152D02*
X21780476Y-51304819D01*
X21542381Y-50257200D02*
X21304286Y-50971485D01*
X21304286Y-50971485D02*
X21923333Y-50971485D01*
X41148095Y-48790113D02*
X41195714Y-48742494D01*
X41195714Y-48742494D02*
X41290952Y-48694875D01*
X41290952Y-48694875D02*
X41529047Y-48694875D01*
X41529047Y-48694875D02*
X41624285Y-48742494D01*
X41624285Y-48742494D02*
X41671904Y-48790113D01*
X41671904Y-48790113D02*
X41719523Y-48885351D01*
X41719523Y-48885351D02*
X41719523Y-48980589D01*
X41719523Y-48980589D02*
X41671904Y-49123446D01*
X41671904Y-49123446D02*
X41100476Y-49694875D01*
X41100476Y-49694875D02*
X41719523Y-49694875D01*
X42576666Y-48694875D02*
X42386190Y-48694875D01*
X42386190Y-48694875D02*
X42290952Y-48742494D01*
X42290952Y-48742494D02*
X42243333Y-48790113D01*
X42243333Y-48790113D02*
X42148095Y-48932970D01*
X42148095Y-48932970D02*
X42100476Y-49123446D01*
X42100476Y-49123446D02*
X42100476Y-49504398D01*
X42100476Y-49504398D02*
X42148095Y-49599636D01*
X42148095Y-49599636D02*
X42195714Y-49647256D01*
X42195714Y-49647256D02*
X42290952Y-49694875D01*
X42290952Y-49694875D02*
X42481428Y-49694875D01*
X42481428Y-49694875D02*
X42576666Y-49647256D01*
X42576666Y-49647256D02*
X42624285Y-49599636D01*
X42624285Y-49599636D02*
X42671904Y-49504398D01*
X42671904Y-49504398D02*
X42671904Y-49266303D01*
X42671904Y-49266303D02*
X42624285Y-49171065D01*
X42624285Y-49171065D02*
X42576666Y-49123446D01*
X42576666Y-49123446D02*
X42481428Y-49075827D01*
X42481428Y-49075827D02*
X42290952Y-49075827D01*
X42290952Y-49075827D02*
X42195714Y-49123446D01*
X42195714Y-49123446D02*
X42148095Y-49171065D01*
X42148095Y-49171065D02*
X42100476Y-49266303D01*
X41148095Y-50400057D02*
X41195714Y-50352438D01*
X41195714Y-50352438D02*
X41290952Y-50304819D01*
X41290952Y-50304819D02*
X41529047Y-50304819D01*
X41529047Y-50304819D02*
X41624285Y-50352438D01*
X41624285Y-50352438D02*
X41671904Y-50400057D01*
X41671904Y-50400057D02*
X41719523Y-50495295D01*
X41719523Y-50495295D02*
X41719523Y-50590533D01*
X41719523Y-50590533D02*
X41671904Y-50733390D01*
X41671904Y-50733390D02*
X41100476Y-51304819D01*
X41100476Y-51304819D02*
X41719523Y-51304819D01*
X42624285Y-50304819D02*
X42148095Y-50304819D01*
X42148095Y-50304819D02*
X42100476Y-50781009D01*
X42100476Y-50781009D02*
X42148095Y-50733390D01*
X42148095Y-50733390D02*
X42243333Y-50685771D01*
X42243333Y-50685771D02*
X42481428Y-50685771D01*
X42481428Y-50685771D02*
X42576666Y-50733390D01*
X42576666Y-50733390D02*
X42624285Y-50781009D01*
X42624285Y-50781009D02*
X42671904Y-50876247D01*
X42671904Y-50876247D02*
X42671904Y-51114342D01*
X42671904Y-51114342D02*
X42624285Y-51209580D01*
X42624285Y-51209580D02*
X42576666Y-51257200D01*
X42576666Y-51257200D02*
X42481428Y-51304819D01*
X42481428Y-51304819D02*
X42243333Y-51304819D01*
X42243333Y-51304819D02*
X42148095Y-51257200D01*
X42148095Y-51257200D02*
X42100476Y-51209580D01*
D10*
X48874149Y-29939027D02*
X48931292Y-29881884D01*
X48931292Y-29881884D02*
X49045578Y-29824741D01*
X49045578Y-29824741D02*
X49331292Y-29824741D01*
X49331292Y-29824741D02*
X49445578Y-29881884D01*
X49445578Y-29881884D02*
X49502720Y-29939027D01*
X49502720Y-29939027D02*
X49559863Y-30053313D01*
X49559863Y-30053313D02*
X49559863Y-30167599D01*
X49559863Y-30167599D02*
X49502720Y-30339027D01*
X49502720Y-30339027D02*
X48817006Y-31024741D01*
X48817006Y-31024741D02*
X49559863Y-31024741D01*
X50302720Y-29824741D02*
X50417006Y-29824741D01*
X50417006Y-29824741D02*
X50531292Y-29881884D01*
X50531292Y-29881884D02*
X50588435Y-29939027D01*
X50588435Y-29939027D02*
X50645577Y-30053313D01*
X50645577Y-30053313D02*
X50702720Y-30281884D01*
X50702720Y-30281884D02*
X50702720Y-30567599D01*
X50702720Y-30567599D02*
X50645577Y-30796170D01*
X50645577Y-30796170D02*
X50588435Y-30910456D01*
X50588435Y-30910456D02*
X50531292Y-30967599D01*
X50531292Y-30967599D02*
X50417006Y-31024741D01*
X50417006Y-31024741D02*
X50302720Y-31024741D01*
X50302720Y-31024741D02*
X50188435Y-30967599D01*
X50188435Y-30967599D02*
X50131292Y-30910456D01*
X50131292Y-30910456D02*
X50074149Y-30796170D01*
X50074149Y-30796170D02*
X50017006Y-30567599D01*
X50017006Y-30567599D02*
X50017006Y-30281884D01*
X50017006Y-30281884D02*
X50074149Y-30053313D01*
X50074149Y-30053313D02*
X50131292Y-29939027D01*
X50131292Y-29939027D02*
X50188435Y-29881884D01*
X50188435Y-29881884D02*
X50302720Y-29824741D01*
X26582993Y-29824742D02*
X27382993Y-29824742D01*
X27382993Y-29824742D02*
X26868707Y-31024742D01*
X26754422Y-36104742D02*
X26982993Y-36104742D01*
X26982993Y-36104742D02*
X27097279Y-36047600D01*
X27097279Y-36047600D02*
X27154422Y-35990457D01*
X27154422Y-35990457D02*
X27268707Y-35819028D01*
X27268707Y-35819028D02*
X27325850Y-35590457D01*
X27325850Y-35590457D02*
X27325850Y-35133314D01*
X27325850Y-35133314D02*
X27268707Y-35019028D01*
X27268707Y-35019028D02*
X27211565Y-34961885D01*
X27211565Y-34961885D02*
X27097279Y-34904742D01*
X27097279Y-34904742D02*
X26868707Y-34904742D01*
X26868707Y-34904742D02*
X26754422Y-34961885D01*
X26754422Y-34961885D02*
X26697279Y-35019028D01*
X26697279Y-35019028D02*
X26640136Y-35133314D01*
X26640136Y-35133314D02*
X26640136Y-35419028D01*
X26640136Y-35419028D02*
X26697279Y-35533314D01*
X26697279Y-35533314D02*
X26754422Y-35590457D01*
X26754422Y-35590457D02*
X26868707Y-35647600D01*
X26868707Y-35647600D02*
X27097279Y-35647600D01*
X27097279Y-35647600D02*
X27211565Y-35590457D01*
X27211565Y-35590457D02*
X27268707Y-35533314D01*
X27268707Y-35533314D02*
X27325850Y-35419028D01*
D12*
X24368095Y-48694875D02*
X23891905Y-48694875D01*
X23891905Y-48694875D02*
X23844286Y-49171065D01*
X23844286Y-49171065D02*
X23891905Y-49123446D01*
X23891905Y-49123446D02*
X23987143Y-49075827D01*
X23987143Y-49075827D02*
X24225238Y-49075827D01*
X24225238Y-49075827D02*
X24320476Y-49123446D01*
X24320476Y-49123446D02*
X24368095Y-49171065D01*
X24368095Y-49171065D02*
X24415714Y-49266303D01*
X24415714Y-49266303D02*
X24415714Y-49504398D01*
X24415714Y-49504398D02*
X24368095Y-49599636D01*
X24368095Y-49599636D02*
X24320476Y-49647256D01*
X24320476Y-49647256D02*
X24225238Y-49694875D01*
X24225238Y-49694875D02*
X23987143Y-49694875D01*
X23987143Y-49694875D02*
X23891905Y-49647256D01*
X23891905Y-49647256D02*
X23844286Y-49599636D01*
X24320476Y-50304819D02*
X24130000Y-50304819D01*
X24130000Y-50304819D02*
X24034762Y-50352438D01*
X24034762Y-50352438D02*
X23987143Y-50400057D01*
X23987143Y-50400057D02*
X23891905Y-50542914D01*
X23891905Y-50542914D02*
X23844286Y-50733390D01*
X23844286Y-50733390D02*
X23844286Y-51114342D01*
X23844286Y-51114342D02*
X23891905Y-51209580D01*
X23891905Y-51209580D02*
X23939524Y-51257200D01*
X23939524Y-51257200D02*
X24034762Y-51304819D01*
X24034762Y-51304819D02*
X24225238Y-51304819D01*
X24225238Y-51304819D02*
X24320476Y-51257200D01*
X24320476Y-51257200D02*
X24368095Y-51209580D01*
X24368095Y-51209580D02*
X24415714Y-51114342D01*
X24415714Y-51114342D02*
X24415714Y-50876247D01*
X24415714Y-50876247D02*
X24368095Y-50781009D01*
X24368095Y-50781009D02*
X24320476Y-50733390D01*
X24320476Y-50733390D02*
X24225238Y-50685771D01*
X24225238Y-50685771D02*
X24034762Y-50685771D01*
X24034762Y-50685771D02*
X23939524Y-50733390D01*
X23939524Y-50733390D02*
X23891905Y-50781009D01*
X23891905Y-50781009D02*
X23844286Y-50876247D01*
D10*
X56443409Y-35663095D02*
X56491028Y-35520238D01*
X56491028Y-35520238D02*
X56538647Y-35472619D01*
X56538647Y-35472619D02*
X56633885Y-35425000D01*
X56633885Y-35425000D02*
X56776742Y-35425000D01*
X56776742Y-35425000D02*
X56871980Y-35472619D01*
X56871980Y-35472619D02*
X56919600Y-35520238D01*
X56919600Y-35520238D02*
X56967219Y-35615476D01*
X56967219Y-35615476D02*
X56967219Y-35996428D01*
X56967219Y-35996428D02*
X55967219Y-35996428D01*
X55967219Y-35996428D02*
X55967219Y-35663095D01*
X55967219Y-35663095D02*
X56014838Y-35567857D01*
X56014838Y-35567857D02*
X56062457Y-35520238D01*
X56062457Y-35520238D02*
X56157695Y-35472619D01*
X56157695Y-35472619D02*
X56252933Y-35472619D01*
X56252933Y-35472619D02*
X56348171Y-35520238D01*
X56348171Y-35520238D02*
X56395790Y-35567857D01*
X56395790Y-35567857D02*
X56443409Y-35663095D01*
X56443409Y-35663095D02*
X56443409Y-35996428D01*
X56681504Y-35044047D02*
X56681504Y-34567857D01*
X56967219Y-35139285D02*
X55967219Y-34805952D01*
X55967219Y-34805952D02*
X56967219Y-34472619D01*
X55967219Y-34282142D02*
X55967219Y-33710714D01*
X56967219Y-33996428D02*
X55967219Y-33996428D01*
D12*
X43688095Y-48790113D02*
X43735714Y-48742494D01*
X43735714Y-48742494D02*
X43830952Y-48694875D01*
X43830952Y-48694875D02*
X44069047Y-48694875D01*
X44069047Y-48694875D02*
X44164285Y-48742494D01*
X44164285Y-48742494D02*
X44211904Y-48790113D01*
X44211904Y-48790113D02*
X44259523Y-48885351D01*
X44259523Y-48885351D02*
X44259523Y-48980589D01*
X44259523Y-48980589D02*
X44211904Y-49123446D01*
X44211904Y-49123446D02*
X43640476Y-49694875D01*
X43640476Y-49694875D02*
X44259523Y-49694875D01*
X45116666Y-49028208D02*
X45116666Y-49694875D01*
X44878571Y-48647256D02*
X44640476Y-49361541D01*
X44640476Y-49361541D02*
X45259523Y-49361541D01*
X43688095Y-50400057D02*
X43735714Y-50352438D01*
X43735714Y-50352438D02*
X43830952Y-50304819D01*
X43830952Y-50304819D02*
X44069047Y-50304819D01*
X44069047Y-50304819D02*
X44164285Y-50352438D01*
X44164285Y-50352438D02*
X44211904Y-50400057D01*
X44211904Y-50400057D02*
X44259523Y-50495295D01*
X44259523Y-50495295D02*
X44259523Y-50590533D01*
X44259523Y-50590533D02*
X44211904Y-50733390D01*
X44211904Y-50733390D02*
X43640476Y-51304819D01*
X43640476Y-51304819D02*
X44259523Y-51304819D01*
X44592857Y-50304819D02*
X45211904Y-50304819D01*
X45211904Y-50304819D02*
X44878571Y-50685771D01*
X44878571Y-50685771D02*
X45021428Y-50685771D01*
X45021428Y-50685771D02*
X45116666Y-50733390D01*
X45116666Y-50733390D02*
X45164285Y-50781009D01*
X45164285Y-50781009D02*
X45211904Y-50876247D01*
X45211904Y-50876247D02*
X45211904Y-51114342D01*
X45211904Y-51114342D02*
X45164285Y-51209580D01*
X45164285Y-51209580D02*
X45116666Y-51257200D01*
X45116666Y-51257200D02*
X45021428Y-51304819D01*
X45021428Y-51304819D02*
X44735714Y-51304819D01*
X44735714Y-51304819D02*
X44640476Y-51257200D01*
X44640476Y-51257200D02*
X44592857Y-51209580D01*
X19335714Y-49694875D02*
X18764286Y-49694875D01*
X19050000Y-49694875D02*
X19050000Y-48694875D01*
X19050000Y-48694875D02*
X18954762Y-48837732D01*
X18954762Y-48837732D02*
X18859524Y-48932970D01*
X18859524Y-48932970D02*
X18764286Y-48980589D01*
X18764286Y-50400057D02*
X18811905Y-50352438D01*
X18811905Y-50352438D02*
X18907143Y-50304819D01*
X18907143Y-50304819D02*
X19145238Y-50304819D01*
X19145238Y-50304819D02*
X19240476Y-50352438D01*
X19240476Y-50352438D02*
X19288095Y-50400057D01*
X19288095Y-50400057D02*
X19335714Y-50495295D01*
X19335714Y-50495295D02*
X19335714Y-50590533D01*
X19335714Y-50590533D02*
X19288095Y-50733390D01*
X19288095Y-50733390D02*
X18716667Y-51304819D01*
X18716667Y-51304819D02*
X19335714Y-51304819D01*
X34099523Y-49694875D02*
X33528095Y-49694875D01*
X33813809Y-49694875D02*
X33813809Y-48694875D01*
X33813809Y-48694875D02*
X33718571Y-48837732D01*
X33718571Y-48837732D02*
X33623333Y-48932970D01*
X33623333Y-48932970D02*
X33528095Y-48980589D01*
X34432857Y-48694875D02*
X35051904Y-48694875D01*
X35051904Y-48694875D02*
X34718571Y-49075827D01*
X34718571Y-49075827D02*
X34861428Y-49075827D01*
X34861428Y-49075827D02*
X34956666Y-49123446D01*
X34956666Y-49123446D02*
X35004285Y-49171065D01*
X35004285Y-49171065D02*
X35051904Y-49266303D01*
X35051904Y-49266303D02*
X35051904Y-49504398D01*
X35051904Y-49504398D02*
X35004285Y-49599636D01*
X35004285Y-49599636D02*
X34956666Y-49647256D01*
X34956666Y-49647256D02*
X34861428Y-49694875D01*
X34861428Y-49694875D02*
X34575714Y-49694875D01*
X34575714Y-49694875D02*
X34480476Y-49647256D01*
X34480476Y-49647256D02*
X34432857Y-49599636D01*
D10*
X27211565Y-27284742D02*
X26982993Y-27284742D01*
X26982993Y-27284742D02*
X26868707Y-27341885D01*
X26868707Y-27341885D02*
X26811565Y-27399028D01*
X26811565Y-27399028D02*
X26697279Y-27570457D01*
X26697279Y-27570457D02*
X26640136Y-27799028D01*
X26640136Y-27799028D02*
X26640136Y-28256171D01*
X26640136Y-28256171D02*
X26697279Y-28370457D01*
X26697279Y-28370457D02*
X26754422Y-28427600D01*
X26754422Y-28427600D02*
X26868707Y-28484742D01*
X26868707Y-28484742D02*
X27097279Y-28484742D01*
X27097279Y-28484742D02*
X27211565Y-28427600D01*
X27211565Y-28427600D02*
X27268707Y-28370457D01*
X27268707Y-28370457D02*
X27325850Y-28256171D01*
X27325850Y-28256171D02*
X27325850Y-27970457D01*
X27325850Y-27970457D02*
X27268707Y-27856171D01*
X27268707Y-27856171D02*
X27211565Y-27799028D01*
X27211565Y-27799028D02*
X27097279Y-27741885D01*
X27097279Y-27741885D02*
X26868707Y-27741885D01*
X26868707Y-27741885D02*
X26754422Y-27799028D01*
X26754422Y-27799028D02*
X26697279Y-27856171D01*
X26697279Y-27856171D02*
X26640136Y-27970457D01*
D12*
X29019524Y-49694875D02*
X29210000Y-49694875D01*
X29210000Y-49694875D02*
X29305238Y-49647256D01*
X29305238Y-49647256D02*
X29352857Y-49599636D01*
X29352857Y-49599636D02*
X29448095Y-49456779D01*
X29448095Y-49456779D02*
X29495714Y-49266303D01*
X29495714Y-49266303D02*
X29495714Y-48885351D01*
X29495714Y-48885351D02*
X29448095Y-48790113D01*
X29448095Y-48790113D02*
X29400476Y-48742494D01*
X29400476Y-48742494D02*
X29305238Y-48694875D01*
X29305238Y-48694875D02*
X29114762Y-48694875D01*
X29114762Y-48694875D02*
X29019524Y-48742494D01*
X29019524Y-48742494D02*
X28971905Y-48790113D01*
X28971905Y-48790113D02*
X28924286Y-48885351D01*
X28924286Y-48885351D02*
X28924286Y-49123446D01*
X28924286Y-49123446D02*
X28971905Y-49218684D01*
X28971905Y-49218684D02*
X29019524Y-49266303D01*
X29019524Y-49266303D02*
X29114762Y-49313922D01*
X29114762Y-49313922D02*
X29305238Y-49313922D01*
X29305238Y-49313922D02*
X29400476Y-49266303D01*
X29400476Y-49266303D02*
X29448095Y-49218684D01*
X29448095Y-49218684D02*
X29495714Y-49123446D01*
X29019523Y-51304819D02*
X28448095Y-51304819D01*
X28733809Y-51304819D02*
X28733809Y-50304819D01*
X28733809Y-50304819D02*
X28638571Y-50447676D01*
X28638571Y-50447676D02*
X28543333Y-50542914D01*
X28543333Y-50542914D02*
X28448095Y-50590533D01*
X29638571Y-50304819D02*
X29733809Y-50304819D01*
X29733809Y-50304819D02*
X29829047Y-50352438D01*
X29829047Y-50352438D02*
X29876666Y-50400057D01*
X29876666Y-50400057D02*
X29924285Y-50495295D01*
X29924285Y-50495295D02*
X29971904Y-50685771D01*
X29971904Y-50685771D02*
X29971904Y-50923866D01*
X29971904Y-50923866D02*
X29924285Y-51114342D01*
X29924285Y-51114342D02*
X29876666Y-51209580D01*
X29876666Y-51209580D02*
X29829047Y-51257200D01*
X29829047Y-51257200D02*
X29733809Y-51304819D01*
X29733809Y-51304819D02*
X29638571Y-51304819D01*
X29638571Y-51304819D02*
X29543333Y-51257200D01*
X29543333Y-51257200D02*
X29495714Y-51209580D01*
X29495714Y-51209580D02*
X29448095Y-51114342D01*
X29448095Y-51114342D02*
X29400476Y-50923866D01*
X29400476Y-50923866D02*
X29400476Y-50685771D01*
X29400476Y-50685771D02*
X29448095Y-50495295D01*
X29448095Y-50495295D02*
X29495714Y-50400057D01*
X29495714Y-50400057D02*
X29543333Y-50352438D01*
X29543333Y-50352438D02*
X29638571Y-50304819D01*
D10*
X47350149Y-45179028D02*
X47407292Y-45121885D01*
X47407292Y-45121885D02*
X47521578Y-45064742D01*
X47521578Y-45064742D02*
X47807292Y-45064742D01*
X47807292Y-45064742D02*
X47921578Y-45121885D01*
X47921578Y-45121885D02*
X47978720Y-45179028D01*
X47978720Y-45179028D02*
X48035863Y-45293314D01*
X48035863Y-45293314D02*
X48035863Y-45407600D01*
X48035863Y-45407600D02*
X47978720Y-45579028D01*
X47978720Y-45579028D02*
X47293006Y-46264742D01*
X47293006Y-46264742D02*
X48035863Y-46264742D01*
X49064435Y-45064742D02*
X48835863Y-45064742D01*
X48835863Y-45064742D02*
X48721577Y-45121885D01*
X48721577Y-45121885D02*
X48664435Y-45179028D01*
X48664435Y-45179028D02*
X48550149Y-45350457D01*
X48550149Y-45350457D02*
X48493006Y-45579028D01*
X48493006Y-45579028D02*
X48493006Y-46036171D01*
X48493006Y-46036171D02*
X48550149Y-46150457D01*
X48550149Y-46150457D02*
X48607292Y-46207600D01*
X48607292Y-46207600D02*
X48721577Y-46264742D01*
X48721577Y-46264742D02*
X48950149Y-46264742D01*
X48950149Y-46264742D02*
X49064435Y-46207600D01*
X49064435Y-46207600D02*
X49121577Y-46150457D01*
X49121577Y-46150457D02*
X49178720Y-46036171D01*
X49178720Y-46036171D02*
X49178720Y-45750457D01*
X49178720Y-45750457D02*
X49121577Y-45636171D01*
X49121577Y-45636171D02*
X49064435Y-45579028D01*
X49064435Y-45579028D02*
X48950149Y-45521885D01*
X48950149Y-45521885D02*
X48721577Y-45521885D01*
X48721577Y-45521885D02*
X48607292Y-45579028D01*
X48607292Y-45579028D02*
X48550149Y-45636171D01*
X48550149Y-45636171D02*
X48493006Y-45750457D01*
D11*
X31933333Y-23002419D02*
X32599999Y-24002419D01*
X32599999Y-23002419D02*
X31933333Y-24002419D01*
X32980952Y-24002419D02*
X32980952Y-23002419D01*
X33409523Y-23716704D02*
X33885713Y-23716704D01*
X33314285Y-24002419D02*
X33647618Y-23002419D01*
X33647618Y-23002419D02*
X33980951Y-24002419D01*
X34504761Y-23002419D02*
X34695237Y-23002419D01*
X34695237Y-23002419D02*
X34790475Y-23050038D01*
X34790475Y-23050038D02*
X34885713Y-23145276D01*
X34885713Y-23145276D02*
X34933332Y-23335752D01*
X34933332Y-23335752D02*
X34933332Y-23669085D01*
X34933332Y-23669085D02*
X34885713Y-23859561D01*
X34885713Y-23859561D02*
X34790475Y-23954800D01*
X34790475Y-23954800D02*
X34695237Y-24002419D01*
X34695237Y-24002419D02*
X34504761Y-24002419D01*
X34504761Y-24002419D02*
X34409523Y-23954800D01*
X34409523Y-23954800D02*
X34314285Y-23859561D01*
X34314285Y-23859561D02*
X34266666Y-23669085D01*
X34266666Y-23669085D02*
X34266666Y-23335752D01*
X34266666Y-23335752D02*
X34314285Y-23145276D01*
X34314285Y-23145276D02*
X34409523Y-23050038D01*
X34409523Y-23050038D02*
X34504761Y-23002419D01*
X36647618Y-23050038D02*
X36552380Y-23002419D01*
X36552380Y-23002419D02*
X36409523Y-23002419D01*
X36409523Y-23002419D02*
X36266666Y-23050038D01*
X36266666Y-23050038D02*
X36171428Y-23145276D01*
X36171428Y-23145276D02*
X36123809Y-23240514D01*
X36123809Y-23240514D02*
X36076190Y-23430990D01*
X36076190Y-23430990D02*
X36076190Y-23573847D01*
X36076190Y-23573847D02*
X36123809Y-23764323D01*
X36123809Y-23764323D02*
X36171428Y-23859561D01*
X36171428Y-23859561D02*
X36266666Y-23954800D01*
X36266666Y-23954800D02*
X36409523Y-24002419D01*
X36409523Y-24002419D02*
X36504761Y-24002419D01*
X36504761Y-24002419D02*
X36647618Y-23954800D01*
X36647618Y-23954800D02*
X36695237Y-23907180D01*
X36695237Y-23907180D02*
X36695237Y-23573847D01*
X36695237Y-23573847D02*
X36504761Y-23573847D01*
X37314285Y-23002419D02*
X37504761Y-23002419D01*
X37504761Y-23002419D02*
X37599999Y-23050038D01*
X37599999Y-23050038D02*
X37695237Y-23145276D01*
X37695237Y-23145276D02*
X37742856Y-23335752D01*
X37742856Y-23335752D02*
X37742856Y-23669085D01*
X37742856Y-23669085D02*
X37695237Y-23859561D01*
X37695237Y-23859561D02*
X37599999Y-23954800D01*
X37599999Y-23954800D02*
X37504761Y-24002419D01*
X37504761Y-24002419D02*
X37314285Y-24002419D01*
X37314285Y-24002419D02*
X37219047Y-23954800D01*
X37219047Y-23954800D02*
X37123809Y-23859561D01*
X37123809Y-23859561D02*
X37076190Y-23669085D01*
X37076190Y-23669085D02*
X37076190Y-23335752D01*
X37076190Y-23335752D02*
X37123809Y-23145276D01*
X37123809Y-23145276D02*
X37219047Y-23050038D01*
X37219047Y-23050038D02*
X37314285Y-23002419D01*
X38171428Y-23478609D02*
X38504761Y-23478609D01*
X38647618Y-24002419D02*
X38171428Y-24002419D01*
X38171428Y-24002419D02*
X38171428Y-23002419D01*
X38171428Y-23002419D02*
X38647618Y-23002419D01*
X39028571Y-23954800D02*
X39171428Y-24002419D01*
X39171428Y-24002419D02*
X39409523Y-24002419D01*
X39409523Y-24002419D02*
X39504761Y-23954800D01*
X39504761Y-23954800D02*
X39552380Y-23907180D01*
X39552380Y-23907180D02*
X39599999Y-23811942D01*
X39599999Y-23811942D02*
X39599999Y-23716704D01*
X39599999Y-23716704D02*
X39552380Y-23621466D01*
X39552380Y-23621466D02*
X39504761Y-23573847D01*
X39504761Y-23573847D02*
X39409523Y-23526228D01*
X39409523Y-23526228D02*
X39219047Y-23478609D01*
X39219047Y-23478609D02*
X39123809Y-23430990D01*
X39123809Y-23430990D02*
X39076190Y-23383371D01*
X39076190Y-23383371D02*
X39028571Y-23288133D01*
X39028571Y-23288133D02*
X39028571Y-23192895D01*
X39028571Y-23192895D02*
X39076190Y-23097657D01*
X39076190Y-23097657D02*
X39123809Y-23050038D01*
X39123809Y-23050038D02*
X39219047Y-23002419D01*
X39219047Y-23002419D02*
X39457142Y-23002419D01*
X39457142Y-23002419D02*
X39599999Y-23050038D01*
X40790476Y-24002419D02*
X40790476Y-23002419D01*
X40790476Y-23478609D02*
X41361904Y-23478609D01*
X41361904Y-24002419D02*
X41361904Y-23002419D01*
X41838095Y-23478609D02*
X42171428Y-23478609D01*
X42314285Y-24002419D02*
X41838095Y-24002419D01*
X41838095Y-24002419D02*
X41838095Y-23002419D01*
X41838095Y-23002419D02*
X42314285Y-23002419D01*
X43314285Y-24002419D02*
X42980952Y-23526228D01*
X42742857Y-24002419D02*
X42742857Y-23002419D01*
X42742857Y-23002419D02*
X43123809Y-23002419D01*
X43123809Y-23002419D02*
X43219047Y-23050038D01*
X43219047Y-23050038D02*
X43266666Y-23097657D01*
X43266666Y-23097657D02*
X43314285Y-23192895D01*
X43314285Y-23192895D02*
X43314285Y-23335752D01*
X43314285Y-23335752D02*
X43266666Y-23430990D01*
X43266666Y-23430990D02*
X43219047Y-23478609D01*
X43219047Y-23478609D02*
X43123809Y-23526228D01*
X43123809Y-23526228D02*
X42742857Y-23526228D01*
X43742857Y-23478609D02*
X44076190Y-23478609D01*
X44219047Y-24002419D02*
X43742857Y-24002419D01*
X43742857Y-24002419D02*
X43742857Y-23002419D01*
X43742857Y-23002419D02*
X44219047Y-23002419D01*
D10*
X49559863Y-25944741D02*
X48874149Y-25944741D01*
X49217006Y-25944741D02*
X49217006Y-24744741D01*
X49217006Y-24744741D02*
X49102720Y-24916170D01*
X49102720Y-24916170D02*
X48988435Y-25030456D01*
X48988435Y-25030456D02*
X48874149Y-25087599D01*
X50245577Y-25259027D02*
X50131292Y-25201884D01*
X50131292Y-25201884D02*
X50074149Y-25144741D01*
X50074149Y-25144741D02*
X50017006Y-25030456D01*
X50017006Y-25030456D02*
X50017006Y-24973313D01*
X50017006Y-24973313D02*
X50074149Y-24859027D01*
X50074149Y-24859027D02*
X50131292Y-24801884D01*
X50131292Y-24801884D02*
X50245577Y-24744741D01*
X50245577Y-24744741D02*
X50474149Y-24744741D01*
X50474149Y-24744741D02*
X50588435Y-24801884D01*
X50588435Y-24801884D02*
X50645577Y-24859027D01*
X50645577Y-24859027D02*
X50702720Y-24973313D01*
X50702720Y-24973313D02*
X50702720Y-25030456D01*
X50702720Y-25030456D02*
X50645577Y-25144741D01*
X50645577Y-25144741D02*
X50588435Y-25201884D01*
X50588435Y-25201884D02*
X50474149Y-25259027D01*
X50474149Y-25259027D02*
X50245577Y-25259027D01*
X50245577Y-25259027D02*
X50131292Y-25316170D01*
X50131292Y-25316170D02*
X50074149Y-25373313D01*
X50074149Y-25373313D02*
X50017006Y-25487599D01*
X50017006Y-25487599D02*
X50017006Y-25716170D01*
X50017006Y-25716170D02*
X50074149Y-25830456D01*
X50074149Y-25830456D02*
X50131292Y-25887599D01*
X50131292Y-25887599D02*
X50245577Y-25944741D01*
X50245577Y-25944741D02*
X50474149Y-25944741D01*
X50474149Y-25944741D02*
X50588435Y-25887599D01*
X50588435Y-25887599D02*
X50645577Y-25830456D01*
X50645577Y-25830456D02*
X50702720Y-25716170D01*
X50702720Y-25716170D02*
X50702720Y-25487599D01*
X50702720Y-25487599D02*
X50645577Y-25373313D01*
X50645577Y-25373313D02*
X50588435Y-25316170D01*
X50588435Y-25316170D02*
X50474149Y-25259027D01*
D12*
X56959523Y-49694875D02*
X56388095Y-49694875D01*
X56673809Y-49694875D02*
X56673809Y-48694875D01*
X56673809Y-48694875D02*
X56578571Y-48837732D01*
X56578571Y-48837732D02*
X56483333Y-48932970D01*
X56483333Y-48932970D02*
X56388095Y-48980589D01*
X57816666Y-49028208D02*
X57816666Y-49694875D01*
X57578571Y-48647256D02*
X57340476Y-49361541D01*
X57340476Y-49361541D02*
X57959523Y-49361541D01*
X56364286Y-51304819D02*
X56364286Y-50304819D01*
X56364286Y-50304819D02*
X56935714Y-51304819D01*
X56935714Y-51304819D02*
X56935714Y-50304819D01*
X57983333Y-51209580D02*
X57935714Y-51257200D01*
X57935714Y-51257200D02*
X57792857Y-51304819D01*
X57792857Y-51304819D02*
X57697619Y-51304819D01*
X57697619Y-51304819D02*
X57554762Y-51257200D01*
X57554762Y-51257200D02*
X57459524Y-51161961D01*
X57459524Y-51161961D02*
X57411905Y-51066723D01*
X57411905Y-51066723D02*
X57364286Y-50876247D01*
X57364286Y-50876247D02*
X57364286Y-50733390D01*
X57364286Y-50733390D02*
X57411905Y-50542914D01*
X57411905Y-50542914D02*
X57459524Y-50447676D01*
X57459524Y-50447676D02*
X57554762Y-50352438D01*
X57554762Y-50352438D02*
X57697619Y-50304819D01*
X57697619Y-50304819D02*
X57792857Y-50304819D01*
X57792857Y-50304819D02*
X57935714Y-50352438D01*
X57935714Y-50352438D02*
X57983333Y-50400057D01*
X53213095Y-29156819D02*
X53213095Y-28156819D01*
X53213095Y-28633009D02*
X53784523Y-28633009D01*
X53784523Y-29156819D02*
X53784523Y-28156819D01*
X54213095Y-28252057D02*
X54260714Y-28204438D01*
X54260714Y-28204438D02*
X54355952Y-28156819D01*
X54355952Y-28156819D02*
X54594047Y-28156819D01*
X54594047Y-28156819D02*
X54689285Y-28204438D01*
X54689285Y-28204438D02*
X54736904Y-28252057D01*
X54736904Y-28252057D02*
X54784523Y-28347295D01*
X54784523Y-28347295D02*
X54784523Y-28442533D01*
X54784523Y-28442533D02*
X54736904Y-28585390D01*
X54736904Y-28585390D02*
X54165476Y-29156819D01*
X54165476Y-29156819D02*
X54784523Y-29156819D01*
X58874819Y-58758333D02*
X59589104Y-58758333D01*
X59589104Y-58758333D02*
X59731961Y-58805952D01*
X59731961Y-58805952D02*
X59827200Y-58901190D01*
X59827200Y-58901190D02*
X59874819Y-59044047D01*
X59874819Y-59044047D02*
X59874819Y-59139285D01*
X59874819Y-57758333D02*
X59874819Y-58329761D01*
X59874819Y-58044047D02*
X58874819Y-58044047D01*
X58874819Y-58044047D02*
X59017676Y-58139285D01*
X59017676Y-58139285D02*
X59112914Y-58234523D01*
X59112914Y-58234523D02*
X59160533Y-58329761D01*
X21463095Y-29156819D02*
X21463095Y-28156819D01*
X21463095Y-28633009D02*
X22034523Y-28633009D01*
X22034523Y-29156819D02*
X22034523Y-28156819D01*
X23034523Y-29156819D02*
X22463095Y-29156819D01*
X22748809Y-29156819D02*
X22748809Y-28156819D01*
X22748809Y-28156819D02*
X22653571Y-28299676D01*
X22653571Y-28299676D02*
X22558333Y-28394914D01*
X22558333Y-28394914D02*
X22463095Y-28442533D01*
X21463095Y-41729819D02*
X21463095Y-40729819D01*
X21463095Y-41206009D02*
X22034523Y-41206009D01*
X22034523Y-41729819D02*
X22034523Y-40729819D01*
X22939285Y-41063152D02*
X22939285Y-41729819D01*
X22701190Y-40682200D02*
X22463095Y-41396485D01*
X22463095Y-41396485D02*
X23082142Y-41396485D01*
X53213095Y-41704819D02*
X53213095Y-40704819D01*
X53213095Y-41181009D02*
X53784523Y-41181009D01*
X53784523Y-41704819D02*
X53784523Y-40704819D01*
X54165476Y-40704819D02*
X54784523Y-40704819D01*
X54784523Y-40704819D02*
X54451190Y-41085771D01*
X54451190Y-41085771D02*
X54594047Y-41085771D01*
X54594047Y-41085771D02*
X54689285Y-41133390D01*
X54689285Y-41133390D02*
X54736904Y-41181009D01*
X54736904Y-41181009D02*
X54784523Y-41276247D01*
X54784523Y-41276247D02*
X54784523Y-41514342D01*
X54784523Y-41514342D02*
X54736904Y-41609580D01*
X54736904Y-41609580D02*
X54689285Y-41657200D01*
X54689285Y-41657200D02*
X54594047Y-41704819D01*
X54594047Y-41704819D02*
X54308333Y-41704819D01*
X54308333Y-41704819D02*
X54213095Y-41657200D01*
X54213095Y-41657200D02*
X54165476Y-41609580D01*
D13*
%TO.C,J2*%
X52645000Y-34924999D02*
X52645000Y-32325000D01*
X55305000Y-32325000D02*
X52645000Y-32325000D01*
X55305000Y-34924999D02*
X52645000Y-34924999D01*
X55305000Y-34924999D02*
X55305000Y-32325000D01*
X55305000Y-36195000D02*
X55305000Y-37525000D01*
X55305000Y-37525000D02*
X53975000Y-37525000D01*
%TO.C,J1*%
X17720001Y-56750000D02*
X17720001Y-59410000D01*
X17720001Y-59410000D02*
X58480000Y-59410000D01*
X18670000Y-53812929D02*
X18670000Y-54267071D01*
X18670000Y-56352928D02*
X18670000Y-56750000D01*
X18670000Y-65410000D02*
X18670000Y-59410000D01*
X19430000Y-53812929D02*
X19430000Y-54267071D01*
X19430000Y-56352929D02*
X19430000Y-56750000D01*
X19430000Y-59410000D02*
X19430000Y-65410000D01*
X19430000Y-65410000D02*
X18670000Y-65410000D01*
X20320000Y-56750000D02*
X20320000Y-59410000D01*
X21210000Y-53812929D02*
X21210000Y-54267071D01*
X21210000Y-56352929D02*
X21210000Y-56750000D01*
X21210000Y-65410000D02*
X21210000Y-59410000D01*
X21969999Y-59410000D02*
X21970000Y-65410000D01*
X21970000Y-53812929D02*
X21969999Y-54267071D01*
X21970000Y-56352929D02*
X21969999Y-56750000D01*
X21970000Y-65410000D02*
X21210000Y-65410000D01*
X22859999Y-56750000D02*
X22860000Y-59410001D01*
X23750000Y-53812929D02*
X23750000Y-54267072D01*
X23750000Y-56352929D02*
X23750000Y-56749999D01*
X23750000Y-65410000D02*
X23750000Y-59410001D01*
X24510000Y-53812929D02*
X24510000Y-54267071D01*
X24510000Y-56352929D02*
X24510000Y-56750000D01*
X24510000Y-59410000D02*
X24510000Y-65410000D01*
X24510000Y-65410000D02*
X23750000Y-65410000D01*
X25400000Y-56750000D02*
X25400000Y-59410000D01*
X26290000Y-53812929D02*
X26290000Y-54267071D01*
X26290000Y-56352929D02*
X26290000Y-56750000D01*
X26290000Y-65410000D02*
X26290000Y-59410000D01*
X27049999Y-56352929D02*
X27050000Y-56750000D01*
X27050000Y-53812929D02*
X27050000Y-54267071D01*
X27050000Y-59410000D02*
X27050000Y-65410000D01*
X27050000Y-65410000D02*
X26290000Y-65410000D01*
X27940000Y-56750000D02*
X27940000Y-59410000D01*
X28830000Y-53812929D02*
X28830000Y-54267071D01*
X28830000Y-56352928D02*
X28830000Y-56750000D01*
X28830000Y-65410000D02*
X28830000Y-59410000D01*
X29590000Y-53812929D02*
X29590000Y-54267071D01*
X29590000Y-59410000D02*
X29590000Y-65410000D01*
X29590000Y-65410000D02*
X28830000Y-65410000D01*
X29590001Y-56352929D02*
X29590000Y-56750000D01*
X30480000Y-56750000D02*
X30480000Y-59410000D01*
X31370000Y-53812929D02*
X31370000Y-54267071D01*
X31370000Y-56352929D02*
X31370000Y-56750000D01*
X31370000Y-65410000D02*
X31370000Y-59410000D01*
X32130000Y-53812929D02*
X32130000Y-54267071D01*
X32130000Y-56352929D02*
X32130000Y-56750000D01*
X32130000Y-59410000D02*
X32130000Y-65410000D01*
X32130000Y-65410000D02*
X31370000Y-65410000D01*
X33019999Y-56750000D02*
X33019999Y-59410000D01*
X33910000Y-53812929D02*
X33909999Y-54267071D01*
X33910000Y-56352929D02*
X33909999Y-56750000D01*
X33910000Y-65410000D02*
X33909999Y-59410000D01*
X34670000Y-53812929D02*
X34670001Y-54267071D01*
X34670000Y-56352929D02*
X34670001Y-56750000D01*
X34670000Y-65410000D02*
X33910000Y-65410000D01*
X34670001Y-59410000D02*
X34670000Y-65410000D01*
X35560001Y-56750000D02*
X35560001Y-59410000D01*
X36450000Y-53812929D02*
X36450001Y-54267071D01*
X36450000Y-56352929D02*
X36450001Y-56750000D01*
X36450000Y-65410000D02*
X36450001Y-59410000D01*
X37210000Y-53812929D02*
X37210000Y-54267071D01*
X37210000Y-56352929D02*
X37210000Y-56750000D01*
X37210000Y-59410000D02*
X37210000Y-65410000D01*
X37210000Y-65410000D02*
X36450000Y-65410000D01*
X38100000Y-56750000D02*
X38100000Y-59410000D01*
X38989999Y-56352929D02*
X38990000Y-56750000D01*
X38990000Y-53812929D02*
X38990000Y-54267071D01*
X38990000Y-65410000D02*
X38990000Y-59410000D01*
X39750000Y-53812929D02*
X39750000Y-54267071D01*
X39750000Y-56352928D02*
X39750000Y-56750000D01*
X39750000Y-59410000D02*
X39750000Y-65410000D01*
X39750000Y-65410000D02*
X38990000Y-65410000D01*
X40640000Y-56750000D02*
X40640000Y-59410000D01*
X41530000Y-53812929D02*
X41530000Y-54267071D01*
X41530000Y-56352928D02*
X41530000Y-56750000D01*
X41530000Y-65410000D02*
X41530000Y-59410000D01*
X42290000Y-53812929D02*
X42290000Y-54267071D01*
X42290000Y-56352929D02*
X42290000Y-56750000D01*
X42290000Y-59410000D02*
X42290000Y-65410000D01*
X42290000Y-65410000D02*
X41530000Y-65410000D01*
X43180000Y-56750000D02*
X43180000Y-59410000D01*
X44070000Y-53812929D02*
X44070000Y-54267071D01*
X44070000Y-56352929D02*
X44070000Y-56750000D01*
X44070000Y-65410000D02*
X44070000Y-59410000D01*
X44829999Y-59410000D02*
X44830000Y-65410000D01*
X44830000Y-53812929D02*
X44830000Y-54267072D01*
X44830000Y-56352929D02*
X44829999Y-56750000D01*
X44830000Y-65410000D02*
X44070000Y-65410000D01*
X45720000Y-56749999D02*
X45720000Y-59410001D01*
X46610000Y-53812929D02*
X46610000Y-54267072D01*
X46610000Y-56352929D02*
X46610001Y-56750000D01*
X46610000Y-65410000D02*
X46610000Y-59410001D01*
X47370000Y-53812929D02*
X47370000Y-54267071D01*
X47370000Y-56352929D02*
X47370000Y-56750000D01*
X47370000Y-59410000D02*
X47370000Y-65410000D01*
X47370000Y-65410000D02*
X46610000Y-65410000D01*
X48260000Y-56750000D02*
X48260000Y-59410000D01*
X49150000Y-53812929D02*
X49150000Y-54267071D01*
X49150000Y-56352929D02*
X49150000Y-56750000D01*
X49150000Y-65410000D02*
X49150000Y-59410000D01*
X49910000Y-53812929D02*
X49910000Y-54267071D01*
X49910000Y-56352928D02*
X49910000Y-56750000D01*
X49910000Y-59410000D02*
X49910000Y-65410000D01*
X49910000Y-65410000D02*
X49150000Y-65410000D01*
X50800000Y-56750000D02*
X50800000Y-59410000D01*
X51690000Y-53812929D02*
X51690000Y-54267071D01*
X51690000Y-56352928D02*
X51690000Y-56750000D01*
X51690000Y-65410000D02*
X51690000Y-59410000D01*
X52450000Y-53812929D02*
X52450000Y-54267071D01*
X52450000Y-59410000D02*
X52450000Y-65410000D01*
X52450000Y-65410000D02*
X51690000Y-65410000D01*
X52450001Y-56352929D02*
X52450000Y-56750000D01*
X53340000Y-56750000D02*
X53340000Y-59410000D01*
X54230000Y-53812929D02*
X54230000Y-54267071D01*
X54230000Y-56352929D02*
X54230000Y-56750000D01*
X54230000Y-65410000D02*
X54230000Y-59410000D01*
X54990000Y-53812929D02*
X54990000Y-54267071D01*
X54990000Y-56352929D02*
X54990000Y-56750000D01*
X54990000Y-59410000D02*
X54990000Y-65410000D01*
X54990000Y-65410000D02*
X54230000Y-65410000D01*
X55879999Y-56750000D02*
X55879999Y-59410000D01*
X56770000Y-53880000D02*
X56769999Y-54267071D01*
X56770000Y-56352929D02*
X56769999Y-56750000D01*
X56770000Y-65410000D02*
X56769999Y-59410000D01*
X56870000Y-59410000D02*
X56870000Y-65410000D01*
X56990000Y-59410000D02*
X56990000Y-65410000D01*
X57110000Y-59410000D02*
X57110000Y-65410000D01*
X57150000Y-51499999D02*
X58420000Y-51500000D01*
X57230001Y-59410000D02*
X57230000Y-65410000D01*
X57349999Y-59410000D02*
X57350000Y-65410000D01*
X57470000Y-59410000D02*
X57470000Y-65410000D01*
X57530000Y-53880000D02*
X57530001Y-54267071D01*
X57530000Y-56352929D02*
X57530001Y-56750000D01*
X57530000Y-65410000D02*
X56770000Y-65410000D01*
X57530001Y-59410000D02*
X57530000Y-65410000D01*
X58420000Y-51500000D02*
X58420001Y-52770000D01*
X58480000Y-56750000D02*
X17720001Y-56750000D01*
X58480000Y-59410000D02*
X58480000Y-56750000D01*
%TD*%
%LPC*%
D14*
%TO.C,J2*%
X53975000Y-36195000D03*
D15*
X53975000Y-33655000D03*
%TD*%
D16*
%TO.C,H2*%
X53975000Y-25400000D03*
%TD*%
D17*
%TO.C,U1*%
X29680000Y-17780000D03*
X29680000Y-20320000D03*
X29680000Y-22860000D03*
X29680000Y-25400000D03*
X29680000Y-27940000D03*
X29680000Y-30480000D03*
X29680000Y-33020000D03*
X29680000Y-35560000D03*
X29680000Y-38100000D03*
X29680000Y-40640000D03*
X29680000Y-43180000D03*
D18*
X30480000Y-46520000D03*
D19*
X46520000Y-17780000D03*
X46520000Y-20320000D03*
X46520000Y-22860000D03*
X46520000Y-25400000D03*
X46520000Y-27940000D03*
X46520000Y-30480000D03*
X46520000Y-33020000D03*
X46520000Y-35560000D03*
X46520000Y-38100000D03*
X46520000Y-40640000D03*
X46520000Y-43180000D03*
D18*
X45720000Y-46520000D03*
X33020000Y-46520000D03*
X35560000Y-46520000D03*
X38100000Y-46520000D03*
X40640000Y-46520000D03*
X43180000Y-46520000D03*
D19*
X46520000Y-15240000D03*
D17*
X29680000Y-15240000D03*
%TD*%
D15*
%TO.C,J1*%
X57150000Y-52770000D03*
D20*
X57150000Y-55310000D03*
D15*
X54610000Y-52770000D03*
X54610000Y-55310000D03*
X52070001Y-52770000D03*
X52070000Y-55310000D03*
X49530000Y-52770000D03*
X49530000Y-55310000D03*
X46990000Y-52770000D03*
X46990000Y-55310000D03*
X44450000Y-52770000D03*
X44450000Y-55310000D03*
X41910000Y-52770000D03*
X41910000Y-55310000D03*
X39369999Y-52770000D03*
X39370000Y-55310000D03*
X36830000Y-52770000D03*
X36830000Y-55310000D03*
X34290000Y-52770000D03*
X34290000Y-55310000D03*
X31750000Y-52770000D03*
X31750000Y-55310000D03*
X29210001Y-52770000D03*
X29210000Y-55310000D03*
X26670000Y-52770000D03*
X26670000Y-55310000D03*
X24130000Y-52770000D03*
X24130000Y-55310000D03*
X21590000Y-52770000D03*
X21590000Y-55310000D03*
X19050001Y-52770000D03*
X19050000Y-55310000D03*
%TD*%
D16*
%TO.C,H1*%
X22225000Y-25400000D03*
%TD*%
%TO.C,H4*%
X22225000Y-44450000D03*
%TD*%
%TO.C,H3*%
X53975000Y-44450000D03*
%TD*%
D21*
%TO.C,U2*%
X45720000Y-25400000D03*
X45720000Y-27940000D03*
X45720000Y-30480000D03*
X45720000Y-33020000D03*
X45720000Y-35560000D03*
X45720000Y-38100000D03*
X45720000Y-40640000D03*
X30480000Y-25400000D03*
X30480000Y-27940000D03*
X30480000Y-30480000D03*
X30480000Y-33020000D03*
X30480000Y-35560000D03*
X30480000Y-38100000D03*
X30480000Y-40640000D03*
D22*
X34290000Y-42227500D03*
D23*
X34290000Y-42227500D03*
D22*
X32385000Y-42227500D03*
D23*
X32385000Y-42227500D03*
%TD*%
%LPD*%
M02*
