%TF.GenerationSoftware,KiCad,Pcbnew,8.0.2*%
%TF.CreationDate,2024-05-21T12:30:08+05:30*%
%TF.ProjectId,carrier,63617272-6965-4722-9e6b-696361645f70,rev?*%
%TF.SameCoordinates,Original*%
%TF.FileFunction,Legend,Bot*%
%TF.FilePolarity,Positive*%
%FSLAX46Y46*%
G04 Gerber Fmt 4.6, Leading zero omitted, Abs format (unit mm)*
G04 Created by KiCad (PCBNEW 8.0.2) date 2024-05-21 12:30:08*
%MOMM*%
%LPD*%
G01*
G04 APERTURE LIST*
G04 Aperture macros list*
%AMRoundRect*
0 Rectangle with rounded corners*
0 $1 Rounding radius*
0 $2 $3 $4 $5 $6 $7 $8 $9 X,Y pos of 4 corners*
0 Add a 4 corners polygon primitive as box body*
4,1,4,$2,$3,$4,$5,$6,$7,$8,$9,$2,$3,0*
0 Add four circle primitives for the rounded corners*
1,1,$1+$1,$2,$3*
1,1,$1+$1,$4,$5*
1,1,$1+$1,$6,$7*
1,1,$1+$1,$8,$9*
0 Add four rect primitives between the rounded corners*
20,1,$1+$1,$2,$3,$4,$5,0*
20,1,$1+$1,$4,$5,$6,$7,0*
20,1,$1+$1,$6,$7,$8,$9,0*
20,1,$1+$1,$8,$9,$2,$3,0*%
%AMOutline5P*
0 Free polygon, 5 corners , with rotation*
0 The origin of the aperture is its center*
0 number of corners: always 5*
0 $1 to $10 corner X, Y*
0 $11 Rotation angle, in degrees counterclockwise*
0 create outline with 5 corners*
4,1,5,$1,$2,$3,$4,$5,$6,$7,$8,$9,$10,$1,$2,$11*%
%AMOutline6P*
0 Free polygon, 6 corners , with rotation*
0 The origin of the aperture is its center*
0 number of corners: always 6*
0 $1 to $12 corner X, Y*
0 $13 Rotation angle, in degrees counterclockwise*
0 create outline with 6 corners*
4,1,6,$1,$2,$3,$4,$5,$6,$7,$8,$9,$10,$11,$12,$1,$2,$13*%
%AMOutline7P*
0 Free polygon, 7 corners , with rotation*
0 The origin of the aperture is its center*
0 number of corners: always 7*
0 $1 to $14 corner X, Y*
0 $15 Rotation angle, in degrees counterclockwise*
0 create outline with 7 corners*
4,1,7,$1,$2,$3,$4,$5,$6,$7,$8,$9,$10,$11,$12,$13,$14,$1,$2,$15*%
%AMOutline8P*
0 Free polygon, 8 corners , with rotation*
0 The origin of the aperture is its center*
0 number of corners: always 8*
0 $1 to $16 corner X, Y*
0 $17 Rotation angle, in degrees counterclockwise*
0 create outline with 8 corners*
4,1,8,$1,$2,$3,$4,$5,$6,$7,$8,$9,$10,$11,$12,$13,$14,$15,$16,$1,$2,$17*%
G04 Aperture macros list end*
%ADD10C,0.200000*%
%ADD11C,0.100000*%
%ADD12C,0.150000*%
%ADD13C,0.120000*%
%ADD14R,1.700000X1.700000*%
%ADD15O,1.700000X1.700000*%
%ADD16C,2.200000*%
%ADD17RoundRect,0.800000X0.800000X0.000010X-0.800000X0.000010X-0.800000X-0.000010X0.800000X-0.000010X0*%
%ADD18RoundRect,0.800000X-0.000010X0.800000X-0.000010X-0.800000X0.000010X-0.800000X0.000010X0.800000X0*%
%ADD19RoundRect,0.800000X-0.800000X-0.000010X0.800000X-0.000010X0.800000X0.000010X-0.800000X0.000010X0*%
%ADD20Outline8P,-0.850000X0.510000X-0.510000X0.850000X0.510000X0.850000X0.850000X0.510000X0.850000X-0.510000X0.510000X-0.850000X-0.510000X-0.850000X-0.850000X-0.510000X270.000000*%
%ADD21C,1.600000*%
%ADD22RoundRect,0.337500X0.337500X-0.562500X0.337500X0.562500X-0.337500X0.562500X-0.337500X-0.562500X0*%
%ADD23RoundRect,0.337500X0.337500X-0.912500X0.337500X0.912500X-0.337500X0.912500X-0.337500X-0.912500X0*%
G04 APERTURE END LIST*
D10*
X40640000Y-53975001D02*
X40640000Y-51054000D01*
X24725000Y-25400000D02*
G75*
G02*
X19725000Y-25400000I-2500000J0D01*
G01*
X19725000Y-25400000D02*
G75*
G02*
X24725000Y-25400000I2500000J0D01*
G01*
X40005000Y-54610000D02*
X40640000Y-53975000D01*
X42926000Y-48768000D02*
X43180000Y-48514000D01*
X40640000Y-49784000D02*
X40640000Y-48006000D01*
X36830000Y-52070000D02*
X36830000Y-51054000D01*
X35560000Y-51054000D02*
X35560000Y-53975000D01*
X35560000Y-43497500D02*
X34925000Y-42862500D01*
X35560000Y-49784000D02*
X36830000Y-51054000D01*
X40640000Y-51054000D02*
X40894000Y-50800000D01*
X56475000Y-44450000D02*
G75*
G02*
X51475000Y-44450000I-2500000J0D01*
G01*
X51475000Y-44450000D02*
G75*
G02*
X56475000Y-44450000I2500000J0D01*
G01*
X24725000Y-44450000D02*
G75*
G02*
X19725000Y-44450000I-2500000J0D01*
G01*
X19725000Y-44450000D02*
G75*
G02*
X24725000Y-44450000I2500000J0D01*
G01*
X35560000Y-49784000D02*
X35560000Y-47244000D01*
X39370000Y-51054000D02*
X40640000Y-49784000D01*
X37465000Y-54610000D02*
X38100000Y-53975000D01*
X38100000Y-53975000D02*
X38100000Y-48006000D01*
X32385000Y-44450000D02*
X32385000Y-43180000D01*
X34290000Y-49784000D02*
X35560000Y-51054000D01*
X39370000Y-51054000D02*
X39370000Y-52070000D01*
X34925000Y-54610000D02*
X35560000Y-53975000D01*
X35560000Y-45085000D02*
X35560000Y-43497500D01*
D11*
X32067500Y-24130000D02*
X44132500Y-24130000D01*
D10*
X33020000Y-48514000D02*
X33274000Y-48768000D01*
X32385000Y-44450000D02*
X33020000Y-45085000D01*
X56475000Y-25400000D02*
G75*
G02*
X51475000Y-25400000I-2500000J0D01*
G01*
X51475000Y-25400000D02*
G75*
G02*
X56475000Y-25400000I2500000J0D01*
G01*
X43180000Y-48514000D02*
X43180000Y-48006000D01*
X33020000Y-48514000D02*
X33020000Y-47752000D01*
D12*
X22986904Y-41729819D02*
X22986904Y-40729819D01*
X22986904Y-41206009D02*
X22415476Y-41206009D01*
X22415476Y-41729819D02*
X22415476Y-40729819D01*
X21510714Y-41063152D02*
X21510714Y-41729819D01*
X21748809Y-40682200D02*
X21986904Y-41396485D01*
X21986904Y-41396485D02*
X21367857Y-41396485D01*
X22986904Y-29131819D02*
X22986904Y-28131819D01*
X22986904Y-28608009D02*
X22415476Y-28608009D01*
X22415476Y-29131819D02*
X22415476Y-28131819D01*
X21415476Y-29131819D02*
X21986904Y-29131819D01*
X21701190Y-29131819D02*
X21701190Y-28131819D01*
X21701190Y-28131819D02*
X21796428Y-28274676D01*
X21796428Y-28274676D02*
X21891666Y-28369914D01*
X21891666Y-28369914D02*
X21986904Y-28417533D01*
D10*
X50702720Y-40099028D02*
X50645577Y-40041885D01*
X50645577Y-40041885D02*
X50531292Y-39984742D01*
X50531292Y-39984742D02*
X50245577Y-39984742D01*
X50245577Y-39984742D02*
X50131292Y-40041885D01*
X50131292Y-40041885D02*
X50074149Y-40099028D01*
X50074149Y-40099028D02*
X50017006Y-40213314D01*
X50017006Y-40213314D02*
X50017006Y-40327600D01*
X50017006Y-40327600D02*
X50074149Y-40499028D01*
X50074149Y-40499028D02*
X50759863Y-41184742D01*
X50759863Y-41184742D02*
X50017006Y-41184742D01*
X48988435Y-40384742D02*
X48988435Y-41184742D01*
X49274149Y-39927600D02*
X49559863Y-40784742D01*
X49559863Y-40784742D02*
X48817006Y-40784742D01*
D12*
X23891904Y-48694875D02*
X24368094Y-48694875D01*
X24368094Y-48694875D02*
X24415713Y-49171065D01*
X24415713Y-49171065D02*
X24368094Y-49123446D01*
X24368094Y-49123446D02*
X24272856Y-49075827D01*
X24272856Y-49075827D02*
X24034761Y-49075827D01*
X24034761Y-49075827D02*
X23939523Y-49123446D01*
X23939523Y-49123446D02*
X23891904Y-49171065D01*
X23891904Y-49171065D02*
X23844285Y-49266303D01*
X23844285Y-49266303D02*
X23844285Y-49504398D01*
X23844285Y-49504398D02*
X23891904Y-49599636D01*
X23891904Y-49599636D02*
X23939523Y-49647256D01*
X23939523Y-49647256D02*
X24034761Y-49694875D01*
X24034761Y-49694875D02*
X24272856Y-49694875D01*
X24272856Y-49694875D02*
X24368094Y-49647256D01*
X24368094Y-49647256D02*
X24415713Y-49599636D01*
X23939523Y-50304819D02*
X24129999Y-50304819D01*
X24129999Y-50304819D02*
X24225237Y-50352438D01*
X24225237Y-50352438D02*
X24272856Y-50400057D01*
X24272856Y-50400057D02*
X24368094Y-50542914D01*
X24368094Y-50542914D02*
X24415713Y-50733390D01*
X24415713Y-50733390D02*
X24415713Y-51114342D01*
X24415713Y-51114342D02*
X24368094Y-51209580D01*
X24368094Y-51209580D02*
X24320475Y-51257200D01*
X24320475Y-51257200D02*
X24225237Y-51304819D01*
X24225237Y-51304819D02*
X24034761Y-51304819D01*
X24034761Y-51304819D02*
X23939523Y-51257200D01*
X23939523Y-51257200D02*
X23891904Y-51209580D01*
X23891904Y-51209580D02*
X23844285Y-51114342D01*
X23844285Y-51114342D02*
X23844285Y-50876247D01*
X23844285Y-50876247D02*
X23891904Y-50781009D01*
X23891904Y-50781009D02*
X23939523Y-50733390D01*
X23939523Y-50733390D02*
X24034761Y-50685771D01*
X24034761Y-50685771D02*
X24225237Y-50685771D01*
X24225237Y-50685771D02*
X24320475Y-50733390D01*
X24320475Y-50733390D02*
X24368094Y-50781009D01*
X24368094Y-50781009D02*
X24415713Y-50876247D01*
X21923332Y-48694875D02*
X21304285Y-48694875D01*
X21304285Y-48694875D02*
X21637618Y-49075827D01*
X21637618Y-49075827D02*
X21494761Y-49075827D01*
X21494761Y-49075827D02*
X21399523Y-49123446D01*
X21399523Y-49123446D02*
X21351904Y-49171065D01*
X21351904Y-49171065D02*
X21304285Y-49266303D01*
X21304285Y-49266303D02*
X21304285Y-49504398D01*
X21304285Y-49504398D02*
X21351904Y-49599636D01*
X21351904Y-49599636D02*
X21399523Y-49647256D01*
X21399523Y-49647256D02*
X21494761Y-49694875D01*
X21494761Y-49694875D02*
X21780475Y-49694875D01*
X21780475Y-49694875D02*
X21875713Y-49647256D01*
X21875713Y-49647256D02*
X21923332Y-49599636D01*
X21399523Y-50638152D02*
X21399523Y-51304819D01*
X21637618Y-50257200D02*
X21875713Y-50971485D01*
X21875713Y-50971485D02*
X21256666Y-50971485D01*
X52260476Y-49694875D02*
X52831904Y-49694875D01*
X52546190Y-49694875D02*
X52546190Y-48694875D01*
X52546190Y-48694875D02*
X52641428Y-48837732D01*
X52641428Y-48837732D02*
X52736666Y-48932970D01*
X52736666Y-48932970D02*
X52831904Y-48980589D01*
X51689047Y-49123446D02*
X51784285Y-49075827D01*
X51784285Y-49075827D02*
X51831904Y-49028208D01*
X51831904Y-49028208D02*
X51879523Y-48932970D01*
X51879523Y-48932970D02*
X51879523Y-48885351D01*
X51879523Y-48885351D02*
X51831904Y-48790113D01*
X51831904Y-48790113D02*
X51784285Y-48742494D01*
X51784285Y-48742494D02*
X51689047Y-48694875D01*
X51689047Y-48694875D02*
X51498571Y-48694875D01*
X51498571Y-48694875D02*
X51403333Y-48742494D01*
X51403333Y-48742494D02*
X51355714Y-48790113D01*
X51355714Y-48790113D02*
X51308095Y-48885351D01*
X51308095Y-48885351D02*
X51308095Y-48932970D01*
X51308095Y-48932970D02*
X51355714Y-49028208D01*
X51355714Y-49028208D02*
X51403333Y-49075827D01*
X51403333Y-49075827D02*
X51498571Y-49123446D01*
X51498571Y-49123446D02*
X51689047Y-49123446D01*
X51689047Y-49123446D02*
X51784285Y-49171065D01*
X51784285Y-49171065D02*
X51831904Y-49218684D01*
X51831904Y-49218684D02*
X51879523Y-49313922D01*
X51879523Y-49313922D02*
X51879523Y-49504398D01*
X51879523Y-49504398D02*
X51831904Y-49599636D01*
X51831904Y-49599636D02*
X51784285Y-49647256D01*
X51784285Y-49647256D02*
X51689047Y-49694875D01*
X51689047Y-49694875D02*
X51498571Y-49694875D01*
X51498571Y-49694875D02*
X51403333Y-49647256D01*
X51403333Y-49647256D02*
X51355714Y-49599636D01*
X51355714Y-49599636D02*
X51308095Y-49504398D01*
X51308095Y-49504398D02*
X51308095Y-49313922D01*
X51308095Y-49313922D02*
X51355714Y-49218684D01*
X51355714Y-49218684D02*
X51403333Y-49171065D01*
X51403333Y-49171065D02*
X51498571Y-49123446D01*
X52260476Y-51304819D02*
X52831904Y-51304819D01*
X52546190Y-51304819D02*
X52546190Y-50304819D01*
X52546190Y-50304819D02*
X52641428Y-50447676D01*
X52641428Y-50447676D02*
X52736666Y-50542914D01*
X52736666Y-50542914D02*
X52831904Y-50590533D01*
X51927142Y-50304819D02*
X51260476Y-50304819D01*
X51260476Y-50304819D02*
X51689047Y-51304819D01*
D10*
X49178720Y-45179028D02*
X49121577Y-45121885D01*
X49121577Y-45121885D02*
X49007292Y-45064742D01*
X49007292Y-45064742D02*
X48721577Y-45064742D01*
X48721577Y-45064742D02*
X48607292Y-45121885D01*
X48607292Y-45121885D02*
X48550149Y-45179028D01*
X48550149Y-45179028D02*
X48493006Y-45293314D01*
X48493006Y-45293314D02*
X48493006Y-45407600D01*
X48493006Y-45407600D02*
X48550149Y-45579028D01*
X48550149Y-45579028D02*
X49235863Y-46264742D01*
X49235863Y-46264742D02*
X48493006Y-46264742D01*
X47464435Y-45064742D02*
X47693006Y-45064742D01*
X47693006Y-45064742D02*
X47807292Y-45121885D01*
X47807292Y-45121885D02*
X47864435Y-45179028D01*
X47864435Y-45179028D02*
X47978720Y-45350457D01*
X47978720Y-45350457D02*
X48035863Y-45579028D01*
X48035863Y-45579028D02*
X48035863Y-46036171D01*
X48035863Y-46036171D02*
X47978720Y-46150457D01*
X47978720Y-46150457D02*
X47921577Y-46207600D01*
X47921577Y-46207600D02*
X47807292Y-46264742D01*
X47807292Y-46264742D02*
X47578720Y-46264742D01*
X47578720Y-46264742D02*
X47464435Y-46207600D01*
X47464435Y-46207600D02*
X47407292Y-46150457D01*
X47407292Y-46150457D02*
X47350149Y-46036171D01*
X47350149Y-46036171D02*
X47350149Y-45750457D01*
X47350149Y-45750457D02*
X47407292Y-45636171D01*
X47407292Y-45636171D02*
X47464435Y-45579028D01*
X47464435Y-45579028D02*
X47578720Y-45521885D01*
X47578720Y-45521885D02*
X47807292Y-45521885D01*
X47807292Y-45521885D02*
X47921577Y-45579028D01*
X47921577Y-45579028D02*
X47978720Y-45636171D01*
X47978720Y-45636171D02*
X48035863Y-45750457D01*
X50017006Y-25944741D02*
X50702720Y-25944741D01*
X50359863Y-25944741D02*
X50359863Y-24744741D01*
X50359863Y-24744741D02*
X50474149Y-24916170D01*
X50474149Y-24916170D02*
X50588434Y-25030456D01*
X50588434Y-25030456D02*
X50702720Y-25087599D01*
X49331292Y-25259027D02*
X49445577Y-25201884D01*
X49445577Y-25201884D02*
X49502720Y-25144741D01*
X49502720Y-25144741D02*
X49559863Y-25030456D01*
X49559863Y-25030456D02*
X49559863Y-24973313D01*
X49559863Y-24973313D02*
X49502720Y-24859027D01*
X49502720Y-24859027D02*
X49445577Y-24801884D01*
X49445577Y-24801884D02*
X49331292Y-24744741D01*
X49331292Y-24744741D02*
X49102720Y-24744741D01*
X49102720Y-24744741D02*
X48988435Y-24801884D01*
X48988435Y-24801884D02*
X48931292Y-24859027D01*
X48931292Y-24859027D02*
X48874149Y-24973313D01*
X48874149Y-24973313D02*
X48874149Y-25030456D01*
X48874149Y-25030456D02*
X48931292Y-25144741D01*
X48931292Y-25144741D02*
X48988435Y-25201884D01*
X48988435Y-25201884D02*
X49102720Y-25259027D01*
X49102720Y-25259027D02*
X49331292Y-25259027D01*
X49331292Y-25259027D02*
X49445577Y-25316170D01*
X49445577Y-25316170D02*
X49502720Y-25373313D01*
X49502720Y-25373313D02*
X49559863Y-25487599D01*
X49559863Y-25487599D02*
X49559863Y-25716170D01*
X49559863Y-25716170D02*
X49502720Y-25830456D01*
X49502720Y-25830456D02*
X49445577Y-25887599D01*
X49445577Y-25887599D02*
X49331292Y-25944741D01*
X49331292Y-25944741D02*
X49102720Y-25944741D01*
X49102720Y-25944741D02*
X48988435Y-25887599D01*
X48988435Y-25887599D02*
X48931292Y-25830456D01*
X48931292Y-25830456D02*
X48874149Y-25716170D01*
X48874149Y-25716170D02*
X48874149Y-25487599D01*
X48874149Y-25487599D02*
X48931292Y-25373313D01*
X48931292Y-25373313D02*
X48988435Y-25316170D01*
X48988435Y-25316170D02*
X49102720Y-25259027D01*
X27382993Y-19664742D02*
X26640136Y-19664742D01*
X26640136Y-19664742D02*
X27040136Y-20121885D01*
X27040136Y-20121885D02*
X26868707Y-20121885D01*
X26868707Y-20121885D02*
X26754422Y-20179028D01*
X26754422Y-20179028D02*
X26697279Y-20236171D01*
X26697279Y-20236171D02*
X26640136Y-20350457D01*
X26640136Y-20350457D02*
X26640136Y-20636171D01*
X26640136Y-20636171D02*
X26697279Y-20750457D01*
X26697279Y-20750457D02*
X26754422Y-20807600D01*
X26754422Y-20807600D02*
X26868707Y-20864742D01*
X26868707Y-20864742D02*
X27211564Y-20864742D01*
X27211564Y-20864742D02*
X27325850Y-20807600D01*
X27325850Y-20807600D02*
X27382993Y-20750457D01*
X27097279Y-32879028D02*
X27211564Y-32821885D01*
X27211564Y-32821885D02*
X27268707Y-32764742D01*
X27268707Y-32764742D02*
X27325850Y-32650457D01*
X27325850Y-32650457D02*
X27325850Y-32593314D01*
X27325850Y-32593314D02*
X27268707Y-32479028D01*
X27268707Y-32479028D02*
X27211564Y-32421885D01*
X27211564Y-32421885D02*
X27097279Y-32364742D01*
X27097279Y-32364742D02*
X26868707Y-32364742D01*
X26868707Y-32364742D02*
X26754422Y-32421885D01*
X26754422Y-32421885D02*
X26697279Y-32479028D01*
X26697279Y-32479028D02*
X26640136Y-32593314D01*
X26640136Y-32593314D02*
X26640136Y-32650457D01*
X26640136Y-32650457D02*
X26697279Y-32764742D01*
X26697279Y-32764742D02*
X26754422Y-32821885D01*
X26754422Y-32821885D02*
X26868707Y-32879028D01*
X26868707Y-32879028D02*
X27097279Y-32879028D01*
X27097279Y-32879028D02*
X27211564Y-32936171D01*
X27211564Y-32936171D02*
X27268707Y-32993314D01*
X27268707Y-32993314D02*
X27325850Y-33107600D01*
X27325850Y-33107600D02*
X27325850Y-33336171D01*
X27325850Y-33336171D02*
X27268707Y-33450457D01*
X27268707Y-33450457D02*
X27211564Y-33507600D01*
X27211564Y-33507600D02*
X27097279Y-33564742D01*
X27097279Y-33564742D02*
X26868707Y-33564742D01*
X26868707Y-33564742D02*
X26754422Y-33507600D01*
X26754422Y-33507600D02*
X26697279Y-33450457D01*
X26697279Y-33450457D02*
X26640136Y-33336171D01*
X26640136Y-33336171D02*
X26640136Y-33107600D01*
X26640136Y-33107600D02*
X26697279Y-32993314D01*
X26697279Y-32993314D02*
X26754422Y-32936171D01*
X26754422Y-32936171D02*
X26868707Y-32879028D01*
X26640136Y-41184742D02*
X27325850Y-41184742D01*
X26982993Y-41184742D02*
X26982993Y-39984742D01*
X26982993Y-39984742D02*
X27097279Y-40156171D01*
X27097279Y-40156171D02*
X27211564Y-40270457D01*
X27211564Y-40270457D02*
X27325850Y-40327600D01*
X25497279Y-41184742D02*
X26182993Y-41184742D01*
X25840136Y-41184742D02*
X25840136Y-39984742D01*
X25840136Y-39984742D02*
X25954422Y-40156171D01*
X25954422Y-40156171D02*
X26068707Y-40270457D01*
X26068707Y-40270457D02*
X26182993Y-40327600D01*
D12*
X27003332Y-48694875D02*
X26336666Y-48694875D01*
X26336666Y-48694875D02*
X26765237Y-49694875D01*
X26765237Y-50733390D02*
X26860475Y-50685771D01*
X26860475Y-50685771D02*
X26908094Y-50638152D01*
X26908094Y-50638152D02*
X26955713Y-50542914D01*
X26955713Y-50542914D02*
X26955713Y-50495295D01*
X26955713Y-50495295D02*
X26908094Y-50400057D01*
X26908094Y-50400057D02*
X26860475Y-50352438D01*
X26860475Y-50352438D02*
X26765237Y-50304819D01*
X26765237Y-50304819D02*
X26574761Y-50304819D01*
X26574761Y-50304819D02*
X26479523Y-50352438D01*
X26479523Y-50352438D02*
X26431904Y-50400057D01*
X26431904Y-50400057D02*
X26384285Y-50495295D01*
X26384285Y-50495295D02*
X26384285Y-50542914D01*
X26384285Y-50542914D02*
X26431904Y-50638152D01*
X26431904Y-50638152D02*
X26479523Y-50685771D01*
X26479523Y-50685771D02*
X26574761Y-50733390D01*
X26574761Y-50733390D02*
X26765237Y-50733390D01*
X26765237Y-50733390D02*
X26860475Y-50781009D01*
X26860475Y-50781009D02*
X26908094Y-50828628D01*
X26908094Y-50828628D02*
X26955713Y-50923866D01*
X26955713Y-50923866D02*
X26955713Y-51114342D01*
X26955713Y-51114342D02*
X26908094Y-51209580D01*
X26908094Y-51209580D02*
X26860475Y-51257200D01*
X26860475Y-51257200D02*
X26765237Y-51304819D01*
X26765237Y-51304819D02*
X26574761Y-51304819D01*
X26574761Y-51304819D02*
X26479523Y-51257200D01*
X26479523Y-51257200D02*
X26431904Y-51209580D01*
X26431904Y-51209580D02*
X26384285Y-51114342D01*
X26384285Y-51114342D02*
X26384285Y-50923866D01*
X26384285Y-50923866D02*
X26431904Y-50828628D01*
X26431904Y-50828628D02*
X26479523Y-50781009D01*
X26479523Y-50781009D02*
X26574761Y-50733390D01*
D10*
X50017006Y-18324742D02*
X50702720Y-18324742D01*
X50359863Y-18324742D02*
X50359863Y-17124742D01*
X50359863Y-17124742D02*
X50474149Y-17296171D01*
X50474149Y-17296171D02*
X50588434Y-17410457D01*
X50588434Y-17410457D02*
X50702720Y-17467600D01*
X48931292Y-17124742D02*
X49502720Y-17124742D01*
X49502720Y-17124742D02*
X49559863Y-17696171D01*
X49559863Y-17696171D02*
X49502720Y-17639028D01*
X49502720Y-17639028D02*
X49388435Y-17581885D01*
X49388435Y-17581885D02*
X49102720Y-17581885D01*
X49102720Y-17581885D02*
X48988435Y-17639028D01*
X48988435Y-17639028D02*
X48931292Y-17696171D01*
X48931292Y-17696171D02*
X48874149Y-17810457D01*
X48874149Y-17810457D02*
X48874149Y-18096171D01*
X48874149Y-18096171D02*
X48931292Y-18210457D01*
X48931292Y-18210457D02*
X48988435Y-18267600D01*
X48988435Y-18267600D02*
X49102720Y-18324742D01*
X49102720Y-18324742D02*
X49388435Y-18324742D01*
X49388435Y-18324742D02*
X49502720Y-18267600D01*
X49502720Y-18267600D02*
X49559863Y-18210457D01*
X56586590Y-35663095D02*
X56538971Y-35520238D01*
X56538971Y-35520238D02*
X56491352Y-35472619D01*
X56491352Y-35472619D02*
X56396114Y-35425000D01*
X56396114Y-35425000D02*
X56253257Y-35425000D01*
X56253257Y-35425000D02*
X56158019Y-35472619D01*
X56158019Y-35472619D02*
X56110400Y-35520238D01*
X56110400Y-35520238D02*
X56062780Y-35615476D01*
X56062780Y-35615476D02*
X56062780Y-35996428D01*
X56062780Y-35996428D02*
X57062780Y-35996428D01*
X57062780Y-35996428D02*
X57062780Y-35663095D01*
X57062780Y-35663095D02*
X57015161Y-35567857D01*
X57015161Y-35567857D02*
X56967542Y-35520238D01*
X56967542Y-35520238D02*
X56872304Y-35472619D01*
X56872304Y-35472619D02*
X56777066Y-35472619D01*
X56777066Y-35472619D02*
X56681828Y-35520238D01*
X56681828Y-35520238D02*
X56634209Y-35567857D01*
X56634209Y-35567857D02*
X56586590Y-35663095D01*
X56586590Y-35663095D02*
X56586590Y-35996428D01*
X56348495Y-35044047D02*
X56348495Y-34567857D01*
X56062780Y-35139285D02*
X57062780Y-34805952D01*
X57062780Y-34805952D02*
X56062780Y-34472619D01*
X57062780Y-34282142D02*
X57062780Y-33710714D01*
X56062780Y-33996428D02*
X57062780Y-33996428D01*
X27325850Y-17239028D02*
X27268707Y-17181885D01*
X27268707Y-17181885D02*
X27154422Y-17124742D01*
X27154422Y-17124742D02*
X26868707Y-17124742D01*
X26868707Y-17124742D02*
X26754422Y-17181885D01*
X26754422Y-17181885D02*
X26697279Y-17239028D01*
X26697279Y-17239028D02*
X26640136Y-17353314D01*
X26640136Y-17353314D02*
X26640136Y-17467600D01*
X26640136Y-17467600D02*
X26697279Y-17639028D01*
X26697279Y-17639028D02*
X27382993Y-18324742D01*
X27382993Y-18324742D02*
X26640136Y-18324742D01*
X27211564Y-36104742D02*
X26982993Y-36104742D01*
X26982993Y-36104742D02*
X26868707Y-36047600D01*
X26868707Y-36047600D02*
X26811564Y-35990457D01*
X26811564Y-35990457D02*
X26697279Y-35819028D01*
X26697279Y-35819028D02*
X26640136Y-35590457D01*
X26640136Y-35590457D02*
X26640136Y-35133314D01*
X26640136Y-35133314D02*
X26697279Y-35019028D01*
X26697279Y-35019028D02*
X26754422Y-34961885D01*
X26754422Y-34961885D02*
X26868707Y-34904742D01*
X26868707Y-34904742D02*
X27097279Y-34904742D01*
X27097279Y-34904742D02*
X27211564Y-34961885D01*
X27211564Y-34961885D02*
X27268707Y-35019028D01*
X27268707Y-35019028D02*
X27325850Y-35133314D01*
X27325850Y-35133314D02*
X27325850Y-35419028D01*
X27325850Y-35419028D02*
X27268707Y-35533314D01*
X27268707Y-35533314D02*
X27211564Y-35590457D01*
X27211564Y-35590457D02*
X27097279Y-35647600D01*
X27097279Y-35647600D02*
X26868707Y-35647600D01*
X26868707Y-35647600D02*
X26754422Y-35590457D01*
X26754422Y-35590457D02*
X26697279Y-35533314D01*
X26697279Y-35533314D02*
X26640136Y-35419028D01*
X50017006Y-28484741D02*
X50702720Y-28484741D01*
X50359863Y-28484741D02*
X50359863Y-27284741D01*
X50359863Y-27284741D02*
X50474149Y-27456170D01*
X50474149Y-27456170D02*
X50588434Y-27570456D01*
X50588434Y-27570456D02*
X50702720Y-27627599D01*
X49445577Y-28484741D02*
X49217006Y-28484741D01*
X49217006Y-28484741D02*
X49102720Y-28427599D01*
X49102720Y-28427599D02*
X49045577Y-28370456D01*
X49045577Y-28370456D02*
X48931292Y-28199027D01*
X48931292Y-28199027D02*
X48874149Y-27970456D01*
X48874149Y-27970456D02*
X48874149Y-27513313D01*
X48874149Y-27513313D02*
X48931292Y-27399027D01*
X48931292Y-27399027D02*
X48988435Y-27341884D01*
X48988435Y-27341884D02*
X49102720Y-27284741D01*
X49102720Y-27284741D02*
X49331292Y-27284741D01*
X49331292Y-27284741D02*
X49445577Y-27341884D01*
X49445577Y-27341884D02*
X49502720Y-27399027D01*
X49502720Y-27399027D02*
X49559863Y-27513313D01*
X49559863Y-27513313D02*
X49559863Y-27799027D01*
X49559863Y-27799027D02*
X49502720Y-27913313D01*
X49502720Y-27913313D02*
X49445577Y-27970456D01*
X49445577Y-27970456D02*
X49331292Y-28027599D01*
X49331292Y-28027599D02*
X49102720Y-28027599D01*
X49102720Y-28027599D02*
X48988435Y-27970456D01*
X48988435Y-27970456D02*
X48931292Y-27913313D01*
X48931292Y-27913313D02*
X48874149Y-27799027D01*
D12*
X54800476Y-49694875D02*
X55371904Y-49694875D01*
X55086190Y-49694875D02*
X55086190Y-48694875D01*
X55086190Y-48694875D02*
X55181428Y-48837732D01*
X55181428Y-48837732D02*
X55276666Y-48932970D01*
X55276666Y-48932970D02*
X55371904Y-48980589D01*
X53943333Y-48694875D02*
X54133809Y-48694875D01*
X54133809Y-48694875D02*
X54229047Y-48742494D01*
X54229047Y-48742494D02*
X54276666Y-48790113D01*
X54276666Y-48790113D02*
X54371904Y-48932970D01*
X54371904Y-48932970D02*
X54419523Y-49123446D01*
X54419523Y-49123446D02*
X54419523Y-49504398D01*
X54419523Y-49504398D02*
X54371904Y-49599636D01*
X54371904Y-49599636D02*
X54324285Y-49647256D01*
X54324285Y-49647256D02*
X54229047Y-49694875D01*
X54229047Y-49694875D02*
X54038571Y-49694875D01*
X54038571Y-49694875D02*
X53943333Y-49647256D01*
X53943333Y-49647256D02*
X53895714Y-49599636D01*
X53895714Y-49599636D02*
X53848095Y-49504398D01*
X53848095Y-49504398D02*
X53848095Y-49266303D01*
X53848095Y-49266303D02*
X53895714Y-49171065D01*
X53895714Y-49171065D02*
X53943333Y-49123446D01*
X53943333Y-49123446D02*
X54038571Y-49075827D01*
X54038571Y-49075827D02*
X54229047Y-49075827D01*
X54229047Y-49075827D02*
X54324285Y-49123446D01*
X54324285Y-49123446D02*
X54371904Y-49171065D01*
X54371904Y-49171065D02*
X54419523Y-49266303D01*
X54800476Y-51304819D02*
X55371904Y-51304819D01*
X55086190Y-51304819D02*
X55086190Y-50304819D01*
X55086190Y-50304819D02*
X55181428Y-50447676D01*
X55181428Y-50447676D02*
X55276666Y-50542914D01*
X55276666Y-50542914D02*
X55371904Y-50590533D01*
X53895714Y-50304819D02*
X54371904Y-50304819D01*
X54371904Y-50304819D02*
X54419523Y-50781009D01*
X54419523Y-50781009D02*
X54371904Y-50733390D01*
X54371904Y-50733390D02*
X54276666Y-50685771D01*
X54276666Y-50685771D02*
X54038571Y-50685771D01*
X54038571Y-50685771D02*
X53943333Y-50733390D01*
X53943333Y-50733390D02*
X53895714Y-50781009D01*
X53895714Y-50781009D02*
X53848095Y-50876247D01*
X53848095Y-50876247D02*
X53848095Y-51114342D01*
X53848095Y-51114342D02*
X53895714Y-51209580D01*
X53895714Y-51209580D02*
X53943333Y-51257200D01*
X53943333Y-51257200D02*
X54038571Y-51304819D01*
X54038571Y-51304819D02*
X54276666Y-51304819D01*
X54276666Y-51304819D02*
X54371904Y-51257200D01*
X54371904Y-51257200D02*
X54419523Y-51209580D01*
X31940476Y-49694875D02*
X32511904Y-49694875D01*
X32226190Y-49694875D02*
X32226190Y-48694875D01*
X32226190Y-48694875D02*
X32321428Y-48837732D01*
X32321428Y-48837732D02*
X32416666Y-48932970D01*
X32416666Y-48932970D02*
X32511904Y-48980589D01*
X30988095Y-49694875D02*
X31559523Y-49694875D01*
X31273809Y-49694875D02*
X31273809Y-48694875D01*
X31273809Y-48694875D02*
X31369047Y-48837732D01*
X31369047Y-48837732D02*
X31464285Y-48932970D01*
X31464285Y-48932970D02*
X31559523Y-48980589D01*
X31940476Y-51304819D02*
X32511904Y-51304819D01*
X32226190Y-51304819D02*
X32226190Y-50304819D01*
X32226190Y-50304819D02*
X32321428Y-50447676D01*
X32321428Y-50447676D02*
X32416666Y-50542914D01*
X32416666Y-50542914D02*
X32511904Y-50590533D01*
X31559523Y-50400057D02*
X31511904Y-50352438D01*
X31511904Y-50352438D02*
X31416666Y-50304819D01*
X31416666Y-50304819D02*
X31178571Y-50304819D01*
X31178571Y-50304819D02*
X31083333Y-50352438D01*
X31083333Y-50352438D02*
X31035714Y-50400057D01*
X31035714Y-50400057D02*
X30988095Y-50495295D01*
X30988095Y-50495295D02*
X30988095Y-50590533D01*
X30988095Y-50590533D02*
X31035714Y-50733390D01*
X31035714Y-50733390D02*
X31607142Y-51304819D01*
X31607142Y-51304819D02*
X30988095Y-51304819D01*
D10*
X26640136Y-15784742D02*
X27325850Y-15784742D01*
X26982993Y-15784742D02*
X26982993Y-14584742D01*
X26982993Y-14584742D02*
X27097279Y-14756171D01*
X27097279Y-14756171D02*
X27211564Y-14870457D01*
X27211564Y-14870457D02*
X27325850Y-14927600D01*
X50702720Y-35019028D02*
X50645577Y-34961885D01*
X50645577Y-34961885D02*
X50531292Y-34904742D01*
X50531292Y-34904742D02*
X50245577Y-34904742D01*
X50245577Y-34904742D02*
X50131292Y-34961885D01*
X50131292Y-34961885D02*
X50074149Y-35019028D01*
X50074149Y-35019028D02*
X50017006Y-35133314D01*
X50017006Y-35133314D02*
X50017006Y-35247600D01*
X50017006Y-35247600D02*
X50074149Y-35419028D01*
X50074149Y-35419028D02*
X50759863Y-36104742D01*
X50759863Y-36104742D02*
X50017006Y-36104742D01*
X49559863Y-35019028D02*
X49502720Y-34961885D01*
X49502720Y-34961885D02*
X49388435Y-34904742D01*
X49388435Y-34904742D02*
X49102720Y-34904742D01*
X49102720Y-34904742D02*
X48988435Y-34961885D01*
X48988435Y-34961885D02*
X48931292Y-35019028D01*
X48931292Y-35019028D02*
X48874149Y-35133314D01*
X48874149Y-35133314D02*
X48874149Y-35247600D01*
X48874149Y-35247600D02*
X48931292Y-35419028D01*
X48931292Y-35419028D02*
X49617006Y-36104742D01*
X49617006Y-36104742D02*
X48874149Y-36104742D01*
D12*
X50291904Y-48790113D02*
X50244285Y-48742494D01*
X50244285Y-48742494D02*
X50149047Y-48694875D01*
X50149047Y-48694875D02*
X49910952Y-48694875D01*
X49910952Y-48694875D02*
X49815714Y-48742494D01*
X49815714Y-48742494D02*
X49768095Y-48790113D01*
X49768095Y-48790113D02*
X49720476Y-48885351D01*
X49720476Y-48885351D02*
X49720476Y-48980589D01*
X49720476Y-48980589D02*
X49768095Y-49123446D01*
X49768095Y-49123446D02*
X50339523Y-49694875D01*
X50339523Y-49694875D02*
X49720476Y-49694875D01*
X49101428Y-48694875D02*
X49006190Y-48694875D01*
X49006190Y-48694875D02*
X48910952Y-48742494D01*
X48910952Y-48742494D02*
X48863333Y-48790113D01*
X48863333Y-48790113D02*
X48815714Y-48885351D01*
X48815714Y-48885351D02*
X48768095Y-49075827D01*
X48768095Y-49075827D02*
X48768095Y-49313922D01*
X48768095Y-49313922D02*
X48815714Y-49504398D01*
X48815714Y-49504398D02*
X48863333Y-49599636D01*
X48863333Y-49599636D02*
X48910952Y-49647256D01*
X48910952Y-49647256D02*
X49006190Y-49694875D01*
X49006190Y-49694875D02*
X49101428Y-49694875D01*
X49101428Y-49694875D02*
X49196666Y-49647256D01*
X49196666Y-49647256D02*
X49244285Y-49599636D01*
X49244285Y-49599636D02*
X49291904Y-49504398D01*
X49291904Y-49504398D02*
X49339523Y-49313922D01*
X49339523Y-49313922D02*
X49339523Y-49075827D01*
X49339523Y-49075827D02*
X49291904Y-48885351D01*
X49291904Y-48885351D02*
X49244285Y-48790113D01*
X49244285Y-48790113D02*
X49196666Y-48742494D01*
X49196666Y-48742494D02*
X49101428Y-48694875D01*
X49720476Y-51304819D02*
X50291904Y-51304819D01*
X50006190Y-51304819D02*
X50006190Y-50304819D01*
X50006190Y-50304819D02*
X50101428Y-50447676D01*
X50101428Y-50447676D02*
X50196666Y-50542914D01*
X50196666Y-50542914D02*
X50291904Y-50590533D01*
X49244285Y-51304819D02*
X49053809Y-51304819D01*
X49053809Y-51304819D02*
X48958571Y-51257200D01*
X48958571Y-51257200D02*
X48910952Y-51209580D01*
X48910952Y-51209580D02*
X48815714Y-51066723D01*
X48815714Y-51066723D02*
X48768095Y-50876247D01*
X48768095Y-50876247D02*
X48768095Y-50495295D01*
X48768095Y-50495295D02*
X48815714Y-50400057D01*
X48815714Y-50400057D02*
X48863333Y-50352438D01*
X48863333Y-50352438D02*
X48958571Y-50304819D01*
X48958571Y-50304819D02*
X49149047Y-50304819D01*
X49149047Y-50304819D02*
X49244285Y-50352438D01*
X49244285Y-50352438D02*
X49291904Y-50400057D01*
X49291904Y-50400057D02*
X49339523Y-50495295D01*
X49339523Y-50495295D02*
X49339523Y-50733390D01*
X49339523Y-50733390D02*
X49291904Y-50828628D01*
X49291904Y-50828628D02*
X49244285Y-50876247D01*
X49244285Y-50876247D02*
X49149047Y-50923866D01*
X49149047Y-50923866D02*
X48958571Y-50923866D01*
X48958571Y-50923866D02*
X48863333Y-50876247D01*
X48863333Y-50876247D02*
X48815714Y-50828628D01*
X48815714Y-50828628D02*
X48768095Y-50733390D01*
X47751904Y-48790113D02*
X47704285Y-48742494D01*
X47704285Y-48742494D02*
X47609047Y-48694875D01*
X47609047Y-48694875D02*
X47370952Y-48694875D01*
X47370952Y-48694875D02*
X47275714Y-48742494D01*
X47275714Y-48742494D02*
X47228095Y-48790113D01*
X47228095Y-48790113D02*
X47180476Y-48885351D01*
X47180476Y-48885351D02*
X47180476Y-48980589D01*
X47180476Y-48980589D02*
X47228095Y-49123446D01*
X47228095Y-49123446D02*
X47799523Y-49694875D01*
X47799523Y-49694875D02*
X47180476Y-49694875D01*
X46799523Y-48790113D02*
X46751904Y-48742494D01*
X46751904Y-48742494D02*
X46656666Y-48694875D01*
X46656666Y-48694875D02*
X46418571Y-48694875D01*
X46418571Y-48694875D02*
X46323333Y-48742494D01*
X46323333Y-48742494D02*
X46275714Y-48790113D01*
X46275714Y-48790113D02*
X46228095Y-48885351D01*
X46228095Y-48885351D02*
X46228095Y-48980589D01*
X46228095Y-48980589D02*
X46275714Y-49123446D01*
X46275714Y-49123446D02*
X46847142Y-49694875D01*
X46847142Y-49694875D02*
X46228095Y-49694875D01*
X47751904Y-50400057D02*
X47704285Y-50352438D01*
X47704285Y-50352438D02*
X47609047Y-50304819D01*
X47609047Y-50304819D02*
X47370952Y-50304819D01*
X47370952Y-50304819D02*
X47275714Y-50352438D01*
X47275714Y-50352438D02*
X47228095Y-50400057D01*
X47228095Y-50400057D02*
X47180476Y-50495295D01*
X47180476Y-50495295D02*
X47180476Y-50590533D01*
X47180476Y-50590533D02*
X47228095Y-50733390D01*
X47228095Y-50733390D02*
X47799523Y-51304819D01*
X47799523Y-51304819D02*
X47180476Y-51304819D01*
X46228095Y-51304819D02*
X46799523Y-51304819D01*
X46513809Y-51304819D02*
X46513809Y-50304819D01*
X46513809Y-50304819D02*
X46609047Y-50447676D01*
X46609047Y-50447676D02*
X46704285Y-50542914D01*
X46704285Y-50542914D02*
X46799523Y-50590533D01*
D10*
X50702720Y-32479028D02*
X50645577Y-32421885D01*
X50645577Y-32421885D02*
X50531292Y-32364742D01*
X50531292Y-32364742D02*
X50245577Y-32364742D01*
X50245577Y-32364742D02*
X50131292Y-32421885D01*
X50131292Y-32421885D02*
X50074149Y-32479028D01*
X50074149Y-32479028D02*
X50017006Y-32593314D01*
X50017006Y-32593314D02*
X50017006Y-32707600D01*
X50017006Y-32707600D02*
X50074149Y-32879028D01*
X50074149Y-32879028D02*
X50759863Y-33564742D01*
X50759863Y-33564742D02*
X50017006Y-33564742D01*
X48874149Y-33564742D02*
X49559863Y-33564742D01*
X49217006Y-33564742D02*
X49217006Y-32364742D01*
X49217006Y-32364742D02*
X49331292Y-32536171D01*
X49331292Y-32536171D02*
X49445577Y-32650457D01*
X49445577Y-32650457D02*
X49559863Y-32707600D01*
D12*
X42671904Y-48790113D02*
X42624285Y-48742494D01*
X42624285Y-48742494D02*
X42529047Y-48694875D01*
X42529047Y-48694875D02*
X42290952Y-48694875D01*
X42290952Y-48694875D02*
X42195714Y-48742494D01*
X42195714Y-48742494D02*
X42148095Y-48790113D01*
X42148095Y-48790113D02*
X42100476Y-48885351D01*
X42100476Y-48885351D02*
X42100476Y-48980589D01*
X42100476Y-48980589D02*
X42148095Y-49123446D01*
X42148095Y-49123446D02*
X42719523Y-49694875D01*
X42719523Y-49694875D02*
X42100476Y-49694875D01*
X41243333Y-48694875D02*
X41433809Y-48694875D01*
X41433809Y-48694875D02*
X41529047Y-48742494D01*
X41529047Y-48742494D02*
X41576666Y-48790113D01*
X41576666Y-48790113D02*
X41671904Y-48932970D01*
X41671904Y-48932970D02*
X41719523Y-49123446D01*
X41719523Y-49123446D02*
X41719523Y-49504398D01*
X41719523Y-49504398D02*
X41671904Y-49599636D01*
X41671904Y-49599636D02*
X41624285Y-49647256D01*
X41624285Y-49647256D02*
X41529047Y-49694875D01*
X41529047Y-49694875D02*
X41338571Y-49694875D01*
X41338571Y-49694875D02*
X41243333Y-49647256D01*
X41243333Y-49647256D02*
X41195714Y-49599636D01*
X41195714Y-49599636D02*
X41148095Y-49504398D01*
X41148095Y-49504398D02*
X41148095Y-49266303D01*
X41148095Y-49266303D02*
X41195714Y-49171065D01*
X41195714Y-49171065D02*
X41243333Y-49123446D01*
X41243333Y-49123446D02*
X41338571Y-49075827D01*
X41338571Y-49075827D02*
X41529047Y-49075827D01*
X41529047Y-49075827D02*
X41624285Y-49123446D01*
X41624285Y-49123446D02*
X41671904Y-49171065D01*
X41671904Y-49171065D02*
X41719523Y-49266303D01*
X42671904Y-50400057D02*
X42624285Y-50352438D01*
X42624285Y-50352438D02*
X42529047Y-50304819D01*
X42529047Y-50304819D02*
X42290952Y-50304819D01*
X42290952Y-50304819D02*
X42195714Y-50352438D01*
X42195714Y-50352438D02*
X42148095Y-50400057D01*
X42148095Y-50400057D02*
X42100476Y-50495295D01*
X42100476Y-50495295D02*
X42100476Y-50590533D01*
X42100476Y-50590533D02*
X42148095Y-50733390D01*
X42148095Y-50733390D02*
X42719523Y-51304819D01*
X42719523Y-51304819D02*
X42100476Y-51304819D01*
X41195714Y-50304819D02*
X41671904Y-50304819D01*
X41671904Y-50304819D02*
X41719523Y-50781009D01*
X41719523Y-50781009D02*
X41671904Y-50733390D01*
X41671904Y-50733390D02*
X41576666Y-50685771D01*
X41576666Y-50685771D02*
X41338571Y-50685771D01*
X41338571Y-50685771D02*
X41243333Y-50733390D01*
X41243333Y-50733390D02*
X41195714Y-50781009D01*
X41195714Y-50781009D02*
X41148095Y-50876247D01*
X41148095Y-50876247D02*
X41148095Y-51114342D01*
X41148095Y-51114342D02*
X41195714Y-51209580D01*
X41195714Y-51209580D02*
X41243333Y-51257200D01*
X41243333Y-51257200D02*
X41338571Y-51304819D01*
X41338571Y-51304819D02*
X41576666Y-51304819D01*
X41576666Y-51304819D02*
X41671904Y-51257200D01*
X41671904Y-51257200D02*
X41719523Y-51209580D01*
D10*
X50702720Y-29939026D02*
X50645577Y-29881883D01*
X50645577Y-29881883D02*
X50531292Y-29824740D01*
X50531292Y-29824740D02*
X50245577Y-29824740D01*
X50245577Y-29824740D02*
X50131292Y-29881883D01*
X50131292Y-29881883D02*
X50074149Y-29939026D01*
X50074149Y-29939026D02*
X50017006Y-30053312D01*
X50017006Y-30053312D02*
X50017006Y-30167598D01*
X50017006Y-30167598D02*
X50074149Y-30339026D01*
X50074149Y-30339026D02*
X50759863Y-31024740D01*
X50759863Y-31024740D02*
X50017006Y-31024740D01*
X49274149Y-29824740D02*
X49159863Y-29824740D01*
X49159863Y-29824740D02*
X49045577Y-29881883D01*
X49045577Y-29881883D02*
X48988435Y-29939026D01*
X48988435Y-29939026D02*
X48931292Y-30053312D01*
X48931292Y-30053312D02*
X48874149Y-30281883D01*
X48874149Y-30281883D02*
X48874149Y-30567598D01*
X48874149Y-30567598D02*
X48931292Y-30796169D01*
X48931292Y-30796169D02*
X48988435Y-30910455D01*
X48988435Y-30910455D02*
X49045577Y-30967598D01*
X49045577Y-30967598D02*
X49159863Y-31024740D01*
X49159863Y-31024740D02*
X49274149Y-31024740D01*
X49274149Y-31024740D02*
X49388435Y-30967598D01*
X49388435Y-30967598D02*
X49445577Y-30910455D01*
X49445577Y-30910455D02*
X49502720Y-30796169D01*
X49502720Y-30796169D02*
X49559863Y-30567598D01*
X49559863Y-30567598D02*
X49559863Y-30281883D01*
X49559863Y-30281883D02*
X49502720Y-30053312D01*
X49502720Y-30053312D02*
X49445577Y-29939026D01*
X49445577Y-29939026D02*
X49388435Y-29881883D01*
X49388435Y-29881883D02*
X49274149Y-29824740D01*
X50017006Y-20864741D02*
X50702720Y-20864741D01*
X50359863Y-20864741D02*
X50359863Y-19664741D01*
X50359863Y-19664741D02*
X50474149Y-19836170D01*
X50474149Y-19836170D02*
X50588434Y-19950456D01*
X50588434Y-19950456D02*
X50702720Y-20007599D01*
X48988435Y-19664741D02*
X49217006Y-19664741D01*
X49217006Y-19664741D02*
X49331292Y-19721884D01*
X49331292Y-19721884D02*
X49388435Y-19779027D01*
X49388435Y-19779027D02*
X49502720Y-19950456D01*
X49502720Y-19950456D02*
X49559863Y-20179027D01*
X49559863Y-20179027D02*
X49559863Y-20636170D01*
X49559863Y-20636170D02*
X49502720Y-20750456D01*
X49502720Y-20750456D02*
X49445577Y-20807599D01*
X49445577Y-20807599D02*
X49331292Y-20864741D01*
X49331292Y-20864741D02*
X49102720Y-20864741D01*
X49102720Y-20864741D02*
X48988435Y-20807599D01*
X48988435Y-20807599D02*
X48931292Y-20750456D01*
X48931292Y-20750456D02*
X48874149Y-20636170D01*
X48874149Y-20636170D02*
X48874149Y-20350456D01*
X48874149Y-20350456D02*
X48931292Y-20236170D01*
X48931292Y-20236170D02*
X48988435Y-20179027D01*
X48988435Y-20179027D02*
X49102720Y-20121884D01*
X49102720Y-20121884D02*
X49331292Y-20121884D01*
X49331292Y-20121884D02*
X49445577Y-20179027D01*
X49445577Y-20179027D02*
X49502720Y-20236170D01*
X49502720Y-20236170D02*
X49559863Y-20350456D01*
D12*
X54736904Y-29131819D02*
X54736904Y-28131819D01*
X54736904Y-28608009D02*
X54165476Y-28608009D01*
X54165476Y-29131819D02*
X54165476Y-28131819D01*
X53736904Y-28227057D02*
X53689285Y-28179438D01*
X53689285Y-28179438D02*
X53594047Y-28131819D01*
X53594047Y-28131819D02*
X53355952Y-28131819D01*
X53355952Y-28131819D02*
X53260714Y-28179438D01*
X53260714Y-28179438D02*
X53213095Y-28227057D01*
X53213095Y-28227057D02*
X53165476Y-28322295D01*
X53165476Y-28322295D02*
X53165476Y-28417533D01*
X53165476Y-28417533D02*
X53213095Y-28560390D01*
X53213095Y-28560390D02*
X53784523Y-29131819D01*
X53784523Y-29131819D02*
X53165476Y-29131819D01*
D10*
X50702720Y-37559028D02*
X50645577Y-37501885D01*
X50645577Y-37501885D02*
X50531292Y-37444742D01*
X50531292Y-37444742D02*
X50245577Y-37444742D01*
X50245577Y-37444742D02*
X50131292Y-37501885D01*
X50131292Y-37501885D02*
X50074149Y-37559028D01*
X50074149Y-37559028D02*
X50017006Y-37673314D01*
X50017006Y-37673314D02*
X50017006Y-37787600D01*
X50017006Y-37787600D02*
X50074149Y-37959028D01*
X50074149Y-37959028D02*
X50759863Y-38644742D01*
X50759863Y-38644742D02*
X50017006Y-38644742D01*
X49617006Y-37444742D02*
X48874149Y-37444742D01*
X48874149Y-37444742D02*
X49274149Y-37901885D01*
X49274149Y-37901885D02*
X49102720Y-37901885D01*
X49102720Y-37901885D02*
X48988435Y-37959028D01*
X48988435Y-37959028D02*
X48931292Y-38016171D01*
X48931292Y-38016171D02*
X48874149Y-38130457D01*
X48874149Y-38130457D02*
X48874149Y-38416171D01*
X48874149Y-38416171D02*
X48931292Y-38530457D01*
X48931292Y-38530457D02*
X48988435Y-38587600D01*
X48988435Y-38587600D02*
X49102720Y-38644742D01*
X49102720Y-38644742D02*
X49445577Y-38644742D01*
X49445577Y-38644742D02*
X49559863Y-38587600D01*
X49559863Y-38587600D02*
X49617006Y-38530457D01*
D11*
X44266666Y-23002419D02*
X43600000Y-24002419D01*
X43600000Y-23002419D02*
X44266666Y-24002419D01*
X43219047Y-24002419D02*
X43219047Y-23002419D01*
X42790476Y-23716704D02*
X42314286Y-23716704D01*
X42885714Y-24002419D02*
X42552381Y-23002419D01*
X42552381Y-23002419D02*
X42219048Y-24002419D01*
X41695238Y-23002419D02*
X41504762Y-23002419D01*
X41504762Y-23002419D02*
X41409524Y-23050038D01*
X41409524Y-23050038D02*
X41314286Y-23145276D01*
X41314286Y-23145276D02*
X41266667Y-23335752D01*
X41266667Y-23335752D02*
X41266667Y-23669085D01*
X41266667Y-23669085D02*
X41314286Y-23859561D01*
X41314286Y-23859561D02*
X41409524Y-23954800D01*
X41409524Y-23954800D02*
X41504762Y-24002419D01*
X41504762Y-24002419D02*
X41695238Y-24002419D01*
X41695238Y-24002419D02*
X41790476Y-23954800D01*
X41790476Y-23954800D02*
X41885714Y-23859561D01*
X41885714Y-23859561D02*
X41933333Y-23669085D01*
X41933333Y-23669085D02*
X41933333Y-23335752D01*
X41933333Y-23335752D02*
X41885714Y-23145276D01*
X41885714Y-23145276D02*
X41790476Y-23050038D01*
X41790476Y-23050038D02*
X41695238Y-23002419D01*
X39552381Y-23050038D02*
X39647619Y-23002419D01*
X39647619Y-23002419D02*
X39790476Y-23002419D01*
X39790476Y-23002419D02*
X39933333Y-23050038D01*
X39933333Y-23050038D02*
X40028571Y-23145276D01*
X40028571Y-23145276D02*
X40076190Y-23240514D01*
X40076190Y-23240514D02*
X40123809Y-23430990D01*
X40123809Y-23430990D02*
X40123809Y-23573847D01*
X40123809Y-23573847D02*
X40076190Y-23764323D01*
X40076190Y-23764323D02*
X40028571Y-23859561D01*
X40028571Y-23859561D02*
X39933333Y-23954800D01*
X39933333Y-23954800D02*
X39790476Y-24002419D01*
X39790476Y-24002419D02*
X39695238Y-24002419D01*
X39695238Y-24002419D02*
X39552381Y-23954800D01*
X39552381Y-23954800D02*
X39504762Y-23907180D01*
X39504762Y-23907180D02*
X39504762Y-23573847D01*
X39504762Y-23573847D02*
X39695238Y-23573847D01*
X38885714Y-23002419D02*
X38695238Y-23002419D01*
X38695238Y-23002419D02*
X38600000Y-23050038D01*
X38600000Y-23050038D02*
X38504762Y-23145276D01*
X38504762Y-23145276D02*
X38457143Y-23335752D01*
X38457143Y-23335752D02*
X38457143Y-23669085D01*
X38457143Y-23669085D02*
X38504762Y-23859561D01*
X38504762Y-23859561D02*
X38600000Y-23954800D01*
X38600000Y-23954800D02*
X38695238Y-24002419D01*
X38695238Y-24002419D02*
X38885714Y-24002419D01*
X38885714Y-24002419D02*
X38980952Y-23954800D01*
X38980952Y-23954800D02*
X39076190Y-23859561D01*
X39076190Y-23859561D02*
X39123809Y-23669085D01*
X39123809Y-23669085D02*
X39123809Y-23335752D01*
X39123809Y-23335752D02*
X39076190Y-23145276D01*
X39076190Y-23145276D02*
X38980952Y-23050038D01*
X38980952Y-23050038D02*
X38885714Y-23002419D01*
X38028571Y-23478609D02*
X37695238Y-23478609D01*
X37552381Y-24002419D02*
X38028571Y-24002419D01*
X38028571Y-24002419D02*
X38028571Y-23002419D01*
X38028571Y-23002419D02*
X37552381Y-23002419D01*
X37171428Y-23954800D02*
X37028571Y-24002419D01*
X37028571Y-24002419D02*
X36790476Y-24002419D01*
X36790476Y-24002419D02*
X36695238Y-23954800D01*
X36695238Y-23954800D02*
X36647619Y-23907180D01*
X36647619Y-23907180D02*
X36600000Y-23811942D01*
X36600000Y-23811942D02*
X36600000Y-23716704D01*
X36600000Y-23716704D02*
X36647619Y-23621466D01*
X36647619Y-23621466D02*
X36695238Y-23573847D01*
X36695238Y-23573847D02*
X36790476Y-23526228D01*
X36790476Y-23526228D02*
X36980952Y-23478609D01*
X36980952Y-23478609D02*
X37076190Y-23430990D01*
X37076190Y-23430990D02*
X37123809Y-23383371D01*
X37123809Y-23383371D02*
X37171428Y-23288133D01*
X37171428Y-23288133D02*
X37171428Y-23192895D01*
X37171428Y-23192895D02*
X37123809Y-23097657D01*
X37123809Y-23097657D02*
X37076190Y-23050038D01*
X37076190Y-23050038D02*
X36980952Y-23002419D01*
X36980952Y-23002419D02*
X36742857Y-23002419D01*
X36742857Y-23002419D02*
X36600000Y-23050038D01*
X35409523Y-24002419D02*
X35409523Y-23002419D01*
X35409523Y-23478609D02*
X34838095Y-23478609D01*
X34838095Y-24002419D02*
X34838095Y-23002419D01*
X34361904Y-23478609D02*
X34028571Y-23478609D01*
X33885714Y-24002419D02*
X34361904Y-24002419D01*
X34361904Y-24002419D02*
X34361904Y-23002419D01*
X34361904Y-23002419D02*
X33885714Y-23002419D01*
X32885714Y-24002419D02*
X33219047Y-23526228D01*
X33457142Y-24002419D02*
X33457142Y-23002419D01*
X33457142Y-23002419D02*
X33076190Y-23002419D01*
X33076190Y-23002419D02*
X32980952Y-23050038D01*
X32980952Y-23050038D02*
X32933333Y-23097657D01*
X32933333Y-23097657D02*
X32885714Y-23192895D01*
X32885714Y-23192895D02*
X32885714Y-23335752D01*
X32885714Y-23335752D02*
X32933333Y-23430990D01*
X32933333Y-23430990D02*
X32980952Y-23478609D01*
X32980952Y-23478609D02*
X33076190Y-23526228D01*
X33076190Y-23526228D02*
X33457142Y-23526228D01*
X32457142Y-23478609D02*
X32123809Y-23478609D01*
X31980952Y-24002419D02*
X32457142Y-24002419D01*
X32457142Y-24002419D02*
X32457142Y-23002419D01*
X32457142Y-23002419D02*
X31980952Y-23002419D01*
D12*
X29400475Y-49694875D02*
X29209999Y-49694875D01*
X29209999Y-49694875D02*
X29114761Y-49647256D01*
X29114761Y-49647256D02*
X29067142Y-49599636D01*
X29067142Y-49599636D02*
X28971904Y-49456779D01*
X28971904Y-49456779D02*
X28924285Y-49266303D01*
X28924285Y-49266303D02*
X28924285Y-48885351D01*
X28924285Y-48885351D02*
X28971904Y-48790113D01*
X28971904Y-48790113D02*
X29019523Y-48742494D01*
X29019523Y-48742494D02*
X29114761Y-48694875D01*
X29114761Y-48694875D02*
X29305237Y-48694875D01*
X29305237Y-48694875D02*
X29400475Y-48742494D01*
X29400475Y-48742494D02*
X29448094Y-48790113D01*
X29448094Y-48790113D02*
X29495713Y-48885351D01*
X29495713Y-48885351D02*
X29495713Y-49123446D01*
X29495713Y-49123446D02*
X29448094Y-49218684D01*
X29448094Y-49218684D02*
X29400475Y-49266303D01*
X29400475Y-49266303D02*
X29305237Y-49313922D01*
X29305237Y-49313922D02*
X29114761Y-49313922D01*
X29114761Y-49313922D02*
X29019523Y-49266303D01*
X29019523Y-49266303D02*
X28971904Y-49218684D01*
X28971904Y-49218684D02*
X28924285Y-49123446D01*
X29400476Y-51304819D02*
X29971904Y-51304819D01*
X29686190Y-51304819D02*
X29686190Y-50304819D01*
X29686190Y-50304819D02*
X29781428Y-50447676D01*
X29781428Y-50447676D02*
X29876666Y-50542914D01*
X29876666Y-50542914D02*
X29971904Y-50590533D01*
X28781428Y-50304819D02*
X28686190Y-50304819D01*
X28686190Y-50304819D02*
X28590952Y-50352438D01*
X28590952Y-50352438D02*
X28543333Y-50400057D01*
X28543333Y-50400057D02*
X28495714Y-50495295D01*
X28495714Y-50495295D02*
X28448095Y-50685771D01*
X28448095Y-50685771D02*
X28448095Y-50923866D01*
X28448095Y-50923866D02*
X28495714Y-51114342D01*
X28495714Y-51114342D02*
X28543333Y-51209580D01*
X28543333Y-51209580D02*
X28590952Y-51257200D01*
X28590952Y-51257200D02*
X28686190Y-51304819D01*
X28686190Y-51304819D02*
X28781428Y-51304819D01*
X28781428Y-51304819D02*
X28876666Y-51257200D01*
X28876666Y-51257200D02*
X28924285Y-51209580D01*
X28924285Y-51209580D02*
X28971904Y-51114342D01*
X28971904Y-51114342D02*
X29019523Y-50923866D01*
X29019523Y-50923866D02*
X29019523Y-50685771D01*
X29019523Y-50685771D02*
X28971904Y-50495295D01*
X28971904Y-50495295D02*
X28924285Y-50400057D01*
X28924285Y-50400057D02*
X28876666Y-50352438D01*
X28876666Y-50352438D02*
X28781428Y-50304819D01*
D10*
X50017006Y-23404741D02*
X50702720Y-23404741D01*
X50359863Y-23404741D02*
X50359863Y-22204741D01*
X50359863Y-22204741D02*
X50474149Y-22376170D01*
X50474149Y-22376170D02*
X50588434Y-22490456D01*
X50588434Y-22490456D02*
X50702720Y-22547599D01*
X49617006Y-22204741D02*
X48817006Y-22204741D01*
X48817006Y-22204741D02*
X49331292Y-23404741D01*
D12*
X18764285Y-49694875D02*
X19335713Y-49694875D01*
X19049999Y-49694875D02*
X19049999Y-48694875D01*
X19049999Y-48694875D02*
X19145237Y-48837732D01*
X19145237Y-48837732D02*
X19240475Y-48932970D01*
X19240475Y-48932970D02*
X19335713Y-48980589D01*
X19335713Y-50400057D02*
X19288094Y-50352438D01*
X19288094Y-50352438D02*
X19192856Y-50304819D01*
X19192856Y-50304819D02*
X18954761Y-50304819D01*
X18954761Y-50304819D02*
X18859523Y-50352438D01*
X18859523Y-50352438D02*
X18811904Y-50400057D01*
X18811904Y-50400057D02*
X18764285Y-50495295D01*
X18764285Y-50495295D02*
X18764285Y-50590533D01*
X18764285Y-50590533D02*
X18811904Y-50733390D01*
X18811904Y-50733390D02*
X19383332Y-51304819D01*
X19383332Y-51304819D02*
X18764285Y-51304819D01*
D10*
X26754422Y-22604742D02*
X26754422Y-23404742D01*
X27040136Y-22147600D02*
X27325850Y-23004742D01*
X27325850Y-23004742D02*
X26582993Y-23004742D01*
X50702720Y-42639028D02*
X50645577Y-42581885D01*
X50645577Y-42581885D02*
X50531292Y-42524742D01*
X50531292Y-42524742D02*
X50245577Y-42524742D01*
X50245577Y-42524742D02*
X50131292Y-42581885D01*
X50131292Y-42581885D02*
X50074149Y-42639028D01*
X50074149Y-42639028D02*
X50017006Y-42753314D01*
X50017006Y-42753314D02*
X50017006Y-42867600D01*
X50017006Y-42867600D02*
X50074149Y-43039028D01*
X50074149Y-43039028D02*
X50759863Y-43724742D01*
X50759863Y-43724742D02*
X50017006Y-43724742D01*
X48931292Y-42524742D02*
X49502720Y-42524742D01*
X49502720Y-42524742D02*
X49559863Y-43096171D01*
X49559863Y-43096171D02*
X49502720Y-43039028D01*
X49502720Y-43039028D02*
X49388435Y-42981885D01*
X49388435Y-42981885D02*
X49102720Y-42981885D01*
X49102720Y-42981885D02*
X48988435Y-43039028D01*
X48988435Y-43039028D02*
X48931292Y-43096171D01*
X48931292Y-43096171D02*
X48874149Y-43210457D01*
X48874149Y-43210457D02*
X48874149Y-43496171D01*
X48874149Y-43496171D02*
X48931292Y-43610457D01*
X48931292Y-43610457D02*
X48988435Y-43667600D01*
X48988435Y-43667600D02*
X49102720Y-43724742D01*
X49102720Y-43724742D02*
X49388435Y-43724742D01*
X49388435Y-43724742D02*
X49502720Y-43667600D01*
X49502720Y-43667600D02*
X49559863Y-43610457D01*
X26697279Y-24744742D02*
X27268707Y-24744742D01*
X27268707Y-24744742D02*
X27325850Y-25316171D01*
X27325850Y-25316171D02*
X27268707Y-25259028D01*
X27268707Y-25259028D02*
X27154422Y-25201885D01*
X27154422Y-25201885D02*
X26868707Y-25201885D01*
X26868707Y-25201885D02*
X26754422Y-25259028D01*
X26754422Y-25259028D02*
X26697279Y-25316171D01*
X26697279Y-25316171D02*
X26640136Y-25430457D01*
X26640136Y-25430457D02*
X26640136Y-25716171D01*
X26640136Y-25716171D02*
X26697279Y-25830457D01*
X26697279Y-25830457D02*
X26754422Y-25887600D01*
X26754422Y-25887600D02*
X26868707Y-25944742D01*
X26868707Y-25944742D02*
X27154422Y-25944742D01*
X27154422Y-25944742D02*
X27268707Y-25887600D01*
X27268707Y-25887600D02*
X27325850Y-25830457D01*
X50017006Y-15784742D02*
X50702720Y-15784742D01*
X50359863Y-15784742D02*
X50359863Y-14584742D01*
X50359863Y-14584742D02*
X50474149Y-14756171D01*
X50474149Y-14756171D02*
X50588434Y-14870457D01*
X50588434Y-14870457D02*
X50702720Y-14927600D01*
X48988435Y-14984742D02*
X48988435Y-15784742D01*
X49274149Y-14527600D02*
X49559863Y-15384742D01*
X49559863Y-15384742D02*
X48817006Y-15384742D01*
X27382993Y-29824742D02*
X26582993Y-29824742D01*
X26582993Y-29824742D02*
X27097279Y-31024742D01*
X26640136Y-43724742D02*
X27325850Y-43724742D01*
X26982993Y-43724742D02*
X26982993Y-42524742D01*
X26982993Y-42524742D02*
X27097279Y-42696171D01*
X27097279Y-42696171D02*
X27211564Y-42810457D01*
X27211564Y-42810457D02*
X27325850Y-42867600D01*
X26182993Y-42639028D02*
X26125850Y-42581885D01*
X26125850Y-42581885D02*
X26011565Y-42524742D01*
X26011565Y-42524742D02*
X25725850Y-42524742D01*
X25725850Y-42524742D02*
X25611565Y-42581885D01*
X25611565Y-42581885D02*
X25554422Y-42639028D01*
X25554422Y-42639028D02*
X25497279Y-42753314D01*
X25497279Y-42753314D02*
X25497279Y-42867600D01*
X25497279Y-42867600D02*
X25554422Y-43039028D01*
X25554422Y-43039028D02*
X26240136Y-43724742D01*
X26240136Y-43724742D02*
X25497279Y-43724742D01*
D12*
X54736904Y-41729819D02*
X54736904Y-40729819D01*
X54736904Y-41206009D02*
X54165476Y-41206009D01*
X54165476Y-41729819D02*
X54165476Y-40729819D01*
X53784523Y-40729819D02*
X53165476Y-40729819D01*
X53165476Y-40729819D02*
X53498809Y-41110771D01*
X53498809Y-41110771D02*
X53355952Y-41110771D01*
X53355952Y-41110771D02*
X53260714Y-41158390D01*
X53260714Y-41158390D02*
X53213095Y-41206009D01*
X53213095Y-41206009D02*
X53165476Y-41301247D01*
X53165476Y-41301247D02*
X53165476Y-41539342D01*
X53165476Y-41539342D02*
X53213095Y-41634580D01*
X53213095Y-41634580D02*
X53260714Y-41682200D01*
X53260714Y-41682200D02*
X53355952Y-41729819D01*
X53355952Y-41729819D02*
X53641666Y-41729819D01*
X53641666Y-41729819D02*
X53736904Y-41682200D01*
X53736904Y-41682200D02*
X53784523Y-41634580D01*
X34480476Y-49694875D02*
X35051904Y-49694875D01*
X34766190Y-49694875D02*
X34766190Y-48694875D01*
X34766190Y-48694875D02*
X34861428Y-48837732D01*
X34861428Y-48837732D02*
X34956666Y-48932970D01*
X34956666Y-48932970D02*
X35051904Y-48980589D01*
X34147142Y-48694875D02*
X33528095Y-48694875D01*
X33528095Y-48694875D02*
X33861428Y-49075827D01*
X33861428Y-49075827D02*
X33718571Y-49075827D01*
X33718571Y-49075827D02*
X33623333Y-49123446D01*
X33623333Y-49123446D02*
X33575714Y-49171065D01*
X33575714Y-49171065D02*
X33528095Y-49266303D01*
X33528095Y-49266303D02*
X33528095Y-49504398D01*
X33528095Y-49504398D02*
X33575714Y-49599636D01*
X33575714Y-49599636D02*
X33623333Y-49647256D01*
X33623333Y-49647256D02*
X33718571Y-49694875D01*
X33718571Y-49694875D02*
X34004285Y-49694875D01*
X34004285Y-49694875D02*
X34099523Y-49647256D01*
X34099523Y-49647256D02*
X34147142Y-49599636D01*
D11*
X42790475Y-15822503D02*
X42790475Y-14822503D01*
X42790475Y-14822503D02*
X42409523Y-14822503D01*
X42409523Y-14822503D02*
X42314285Y-14870122D01*
X42314285Y-14870122D02*
X42266666Y-14917741D01*
X42266666Y-14917741D02*
X42219047Y-15012979D01*
X42219047Y-15012979D02*
X42219047Y-15155836D01*
X42219047Y-15155836D02*
X42266666Y-15251074D01*
X42266666Y-15251074D02*
X42314285Y-15298693D01*
X42314285Y-15298693D02*
X42409523Y-15346312D01*
X42409523Y-15346312D02*
X42790475Y-15346312D01*
X41790475Y-15822503D02*
X41790475Y-14822503D01*
X41314285Y-15822503D02*
X41314285Y-14822503D01*
X41314285Y-14822503D02*
X40742857Y-15822503D01*
X40742857Y-15822503D02*
X40742857Y-14822503D01*
X40314285Y-15774884D02*
X40171428Y-15822503D01*
X40171428Y-15822503D02*
X39933333Y-15822503D01*
X39933333Y-15822503D02*
X39838095Y-15774884D01*
X39838095Y-15774884D02*
X39790476Y-15727264D01*
X39790476Y-15727264D02*
X39742857Y-15632026D01*
X39742857Y-15632026D02*
X39742857Y-15536788D01*
X39742857Y-15536788D02*
X39790476Y-15441550D01*
X39790476Y-15441550D02*
X39838095Y-15393931D01*
X39838095Y-15393931D02*
X39933333Y-15346312D01*
X39933333Y-15346312D02*
X40123809Y-15298693D01*
X40123809Y-15298693D02*
X40219047Y-15251074D01*
X40219047Y-15251074D02*
X40266666Y-15203455D01*
X40266666Y-15203455D02*
X40314285Y-15108217D01*
X40314285Y-15108217D02*
X40314285Y-15012979D01*
X40314285Y-15012979D02*
X40266666Y-14917741D01*
X40266666Y-14917741D02*
X40219047Y-14870122D01*
X40219047Y-14870122D02*
X40123809Y-14822503D01*
X40123809Y-14822503D02*
X39885714Y-14822503D01*
X39885714Y-14822503D02*
X39742857Y-14870122D01*
X38028571Y-15822503D02*
X38599999Y-15822503D01*
X38314285Y-15822503D02*
X38314285Y-14822503D01*
X38314285Y-14822503D02*
X38409523Y-14965360D01*
X38409523Y-14965360D02*
X38504761Y-15060598D01*
X38504761Y-15060598D02*
X38599999Y-15108217D01*
X36028570Y-15822503D02*
X36076190Y-15822503D01*
X36076190Y-15822503D02*
X36171428Y-15774884D01*
X36171428Y-15774884D02*
X36314285Y-15632026D01*
X36314285Y-15632026D02*
X36552380Y-15346312D01*
X36552380Y-15346312D02*
X36647618Y-15203455D01*
X36647618Y-15203455D02*
X36695237Y-15060598D01*
X36695237Y-15060598D02*
X36695237Y-14965360D01*
X36695237Y-14965360D02*
X36647618Y-14870122D01*
X36647618Y-14870122D02*
X36552380Y-14822503D01*
X36552380Y-14822503D02*
X36504761Y-14822503D01*
X36504761Y-14822503D02*
X36409523Y-14870122D01*
X36409523Y-14870122D02*
X36361904Y-14965360D01*
X36361904Y-14965360D02*
X36361904Y-15012979D01*
X36361904Y-15012979D02*
X36409523Y-15108217D01*
X36409523Y-15108217D02*
X36457142Y-15155836D01*
X36457142Y-15155836D02*
X36742856Y-15346312D01*
X36742856Y-15346312D02*
X36790475Y-15393931D01*
X36790475Y-15393931D02*
X36838094Y-15489169D01*
X36838094Y-15489169D02*
X36838094Y-15632026D01*
X36838094Y-15632026D02*
X36790475Y-15727264D01*
X36790475Y-15727264D02*
X36742856Y-15774884D01*
X36742856Y-15774884D02*
X36647618Y-15822503D01*
X36647618Y-15822503D02*
X36504761Y-15822503D01*
X36504761Y-15822503D02*
X36409523Y-15774884D01*
X36409523Y-15774884D02*
X36361904Y-15727264D01*
X36361904Y-15727264D02*
X36219047Y-15536788D01*
X36219047Y-15536788D02*
X36171428Y-15393931D01*
X36171428Y-15393931D02*
X36171428Y-15298693D01*
X34314285Y-15822503D02*
X34885713Y-15822503D01*
X34599999Y-15822503D02*
X34599999Y-14822503D01*
X34599999Y-14822503D02*
X34695237Y-14965360D01*
X34695237Y-14965360D02*
X34790475Y-15060598D01*
X34790475Y-15060598D02*
X34885713Y-15108217D01*
X33457142Y-15155836D02*
X33457142Y-15822503D01*
X33695237Y-14774884D02*
X33933332Y-15489169D01*
X33933332Y-15489169D02*
X33314285Y-15489169D01*
X42933333Y-17146732D02*
X42457143Y-17146732D01*
X43028571Y-17432447D02*
X42695238Y-16432447D01*
X42695238Y-16432447D02*
X42361905Y-17432447D01*
X41457143Y-17432447D02*
X41790476Y-16956256D01*
X42028571Y-17432447D02*
X42028571Y-16432447D01*
X42028571Y-16432447D02*
X41647619Y-16432447D01*
X41647619Y-16432447D02*
X41552381Y-16480066D01*
X41552381Y-16480066D02*
X41504762Y-16527685D01*
X41504762Y-16527685D02*
X41457143Y-16622923D01*
X41457143Y-16622923D02*
X41457143Y-16765780D01*
X41457143Y-16765780D02*
X41504762Y-16861018D01*
X41504762Y-16861018D02*
X41552381Y-16908637D01*
X41552381Y-16908637D02*
X41647619Y-16956256D01*
X41647619Y-16956256D02*
X42028571Y-16956256D01*
X41028571Y-16908637D02*
X40695238Y-16908637D01*
X40552381Y-17432447D02*
X41028571Y-17432447D01*
X41028571Y-17432447D02*
X41028571Y-16432447D01*
X41028571Y-16432447D02*
X40552381Y-16432447D01*
X39028571Y-16908637D02*
X38885714Y-16956256D01*
X38885714Y-16956256D02*
X38838095Y-17003875D01*
X38838095Y-17003875D02*
X38790476Y-17099113D01*
X38790476Y-17099113D02*
X38790476Y-17241970D01*
X38790476Y-17241970D02*
X38838095Y-17337208D01*
X38838095Y-17337208D02*
X38885714Y-17384828D01*
X38885714Y-17384828D02*
X38980952Y-17432447D01*
X38980952Y-17432447D02*
X39361904Y-17432447D01*
X39361904Y-17432447D02*
X39361904Y-16432447D01*
X39361904Y-16432447D02*
X39028571Y-16432447D01*
X39028571Y-16432447D02*
X38933333Y-16480066D01*
X38933333Y-16480066D02*
X38885714Y-16527685D01*
X38885714Y-16527685D02*
X38838095Y-16622923D01*
X38838095Y-16622923D02*
X38838095Y-16718161D01*
X38838095Y-16718161D02*
X38885714Y-16813399D01*
X38885714Y-16813399D02*
X38933333Y-16861018D01*
X38933333Y-16861018D02*
X39028571Y-16908637D01*
X39028571Y-16908637D02*
X39361904Y-16908637D01*
X38409523Y-17146732D02*
X37933333Y-17146732D01*
X38504761Y-17432447D02*
X38171428Y-16432447D01*
X38171428Y-16432447D02*
X37838095Y-17432447D01*
X37647618Y-16432447D02*
X37076190Y-16432447D01*
X37361904Y-17432447D02*
X37361904Y-16432447D01*
X35980951Y-17432447D02*
X35980951Y-16432447D01*
X35980951Y-16432447D02*
X35599999Y-16432447D01*
X35599999Y-16432447D02*
X35504761Y-16480066D01*
X35504761Y-16480066D02*
X35457142Y-16527685D01*
X35457142Y-16527685D02*
X35409523Y-16622923D01*
X35409523Y-16622923D02*
X35409523Y-16765780D01*
X35409523Y-16765780D02*
X35457142Y-16861018D01*
X35457142Y-16861018D02*
X35504761Y-16908637D01*
X35504761Y-16908637D02*
X35599999Y-16956256D01*
X35599999Y-16956256D02*
X35980951Y-16956256D01*
X35076189Y-16432447D02*
X34838094Y-17432447D01*
X34838094Y-17432447D02*
X34647618Y-16718161D01*
X34647618Y-16718161D02*
X34457142Y-17432447D01*
X34457142Y-17432447D02*
X34219047Y-16432447D01*
X33266666Y-17432447D02*
X33599999Y-16956256D01*
X33838094Y-17432447D02*
X33838094Y-16432447D01*
X33838094Y-16432447D02*
X33457142Y-16432447D01*
X33457142Y-16432447D02*
X33361904Y-16480066D01*
X33361904Y-16480066D02*
X33314285Y-16527685D01*
X33314285Y-16527685D02*
X33266666Y-16622923D01*
X33266666Y-16622923D02*
X33266666Y-16765780D01*
X33266666Y-16765780D02*
X33314285Y-16861018D01*
X33314285Y-16861018D02*
X33361904Y-16908637D01*
X33361904Y-16908637D02*
X33457142Y-16956256D01*
X33457142Y-16956256D02*
X33838094Y-16956256D01*
X41552380Y-19042391D02*
X41552380Y-18042391D01*
X40742857Y-18518581D02*
X41076190Y-18518581D01*
X41076190Y-19042391D02*
X41076190Y-18042391D01*
X41076190Y-18042391D02*
X40600000Y-18042391D01*
X39457142Y-18042391D02*
X39457142Y-18851914D01*
X39457142Y-18851914D02*
X39409523Y-18947152D01*
X39409523Y-18947152D02*
X39361904Y-18994772D01*
X39361904Y-18994772D02*
X39266666Y-19042391D01*
X39266666Y-19042391D02*
X39076190Y-19042391D01*
X39076190Y-19042391D02*
X38980952Y-18994772D01*
X38980952Y-18994772D02*
X38933333Y-18947152D01*
X38933333Y-18947152D02*
X38885714Y-18851914D01*
X38885714Y-18851914D02*
X38885714Y-18042391D01*
X38457142Y-18994772D02*
X38314285Y-19042391D01*
X38314285Y-19042391D02*
X38076190Y-19042391D01*
X38076190Y-19042391D02*
X37980952Y-18994772D01*
X37980952Y-18994772D02*
X37933333Y-18947152D01*
X37933333Y-18947152D02*
X37885714Y-18851914D01*
X37885714Y-18851914D02*
X37885714Y-18756676D01*
X37885714Y-18756676D02*
X37933333Y-18661438D01*
X37933333Y-18661438D02*
X37980952Y-18613819D01*
X37980952Y-18613819D02*
X38076190Y-18566200D01*
X38076190Y-18566200D02*
X38266666Y-18518581D01*
X38266666Y-18518581D02*
X38361904Y-18470962D01*
X38361904Y-18470962D02*
X38409523Y-18423343D01*
X38409523Y-18423343D02*
X38457142Y-18328105D01*
X38457142Y-18328105D02*
X38457142Y-18232867D01*
X38457142Y-18232867D02*
X38409523Y-18137629D01*
X38409523Y-18137629D02*
X38361904Y-18090010D01*
X38361904Y-18090010D02*
X38266666Y-18042391D01*
X38266666Y-18042391D02*
X38028571Y-18042391D01*
X38028571Y-18042391D02*
X37885714Y-18090010D01*
X37457142Y-19042391D02*
X37457142Y-18042391D01*
X36980952Y-19042391D02*
X36980952Y-18042391D01*
X36980952Y-18042391D02*
X36409524Y-19042391D01*
X36409524Y-19042391D02*
X36409524Y-18042391D01*
X35409524Y-18090010D02*
X35504762Y-18042391D01*
X35504762Y-18042391D02*
X35647619Y-18042391D01*
X35647619Y-18042391D02*
X35790476Y-18090010D01*
X35790476Y-18090010D02*
X35885714Y-18185248D01*
X35885714Y-18185248D02*
X35933333Y-18280486D01*
X35933333Y-18280486D02*
X35980952Y-18470962D01*
X35980952Y-18470962D02*
X35980952Y-18613819D01*
X35980952Y-18613819D02*
X35933333Y-18804295D01*
X35933333Y-18804295D02*
X35885714Y-18899533D01*
X35885714Y-18899533D02*
X35790476Y-18994772D01*
X35790476Y-18994772D02*
X35647619Y-19042391D01*
X35647619Y-19042391D02*
X35552381Y-19042391D01*
X35552381Y-19042391D02*
X35409524Y-18994772D01*
X35409524Y-18994772D02*
X35361905Y-18947152D01*
X35361905Y-18947152D02*
X35361905Y-18613819D01*
X35361905Y-18613819D02*
X35552381Y-18613819D01*
X41814284Y-20652335D02*
X41814284Y-19652335D01*
X41814284Y-19652335D02*
X41242856Y-20652335D01*
X41242856Y-20652335D02*
X41242856Y-19652335D01*
X40766665Y-20652335D02*
X40766665Y-19652335D01*
X39719047Y-20557096D02*
X39766666Y-20604716D01*
X39766666Y-20604716D02*
X39909523Y-20652335D01*
X39909523Y-20652335D02*
X40004761Y-20652335D01*
X40004761Y-20652335D02*
X40147618Y-20604716D01*
X40147618Y-20604716D02*
X40242856Y-20509477D01*
X40242856Y-20509477D02*
X40290475Y-20414239D01*
X40290475Y-20414239D02*
X40338094Y-20223763D01*
X40338094Y-20223763D02*
X40338094Y-20080906D01*
X40338094Y-20080906D02*
X40290475Y-19890430D01*
X40290475Y-19890430D02*
X40242856Y-19795192D01*
X40242856Y-19795192D02*
X40147618Y-19699954D01*
X40147618Y-19699954D02*
X40004761Y-19652335D01*
X40004761Y-19652335D02*
X39909523Y-19652335D01*
X39909523Y-19652335D02*
X39766666Y-19699954D01*
X39766666Y-19699954D02*
X39719047Y-19747573D01*
X39290475Y-20128525D02*
X38957142Y-20128525D01*
X38814285Y-20652335D02*
X39290475Y-20652335D01*
X39290475Y-20652335D02*
X39290475Y-19652335D01*
X39290475Y-19652335D02*
X38814285Y-19652335D01*
X38385713Y-20557096D02*
X38338094Y-20604716D01*
X38338094Y-20604716D02*
X38385713Y-20652335D01*
X38385713Y-20652335D02*
X38433332Y-20604716D01*
X38433332Y-20604716D02*
X38385713Y-20557096D01*
X38385713Y-20557096D02*
X38385713Y-20652335D01*
X38385713Y-20271382D02*
X38433332Y-19699954D01*
X38433332Y-19699954D02*
X38385713Y-19652335D01*
X38385713Y-19652335D02*
X38338094Y-19699954D01*
X38338094Y-19699954D02*
X38385713Y-20271382D01*
X38385713Y-20271382D02*
X38385713Y-19652335D01*
X37909523Y-20652335D02*
X37909523Y-19652335D01*
X37909523Y-19652335D02*
X37338095Y-20652335D01*
X37338095Y-20652335D02*
X37338095Y-19652335D01*
X36909523Y-20366620D02*
X36433333Y-20366620D01*
X37004761Y-20652335D02*
X36671428Y-19652335D01*
X36671428Y-19652335D02*
X36338095Y-20652335D01*
X36004761Y-20652335D02*
X36004761Y-19652335D01*
X36004761Y-19652335D02*
X35433333Y-20652335D01*
X35433333Y-20652335D02*
X35433333Y-19652335D01*
X34766666Y-19652335D02*
X34576190Y-19652335D01*
X34576190Y-19652335D02*
X34480952Y-19699954D01*
X34480952Y-19699954D02*
X34385714Y-19795192D01*
X34385714Y-19795192D02*
X34338095Y-19985668D01*
X34338095Y-19985668D02*
X34338095Y-20319001D01*
X34338095Y-20319001D02*
X34385714Y-20509477D01*
X34385714Y-20509477D02*
X34480952Y-20604716D01*
X34480952Y-20604716D02*
X34576190Y-20652335D01*
X34576190Y-20652335D02*
X34766666Y-20652335D01*
X34766666Y-20652335D02*
X34861904Y-20604716D01*
X34861904Y-20604716D02*
X34957142Y-20509477D01*
X34957142Y-20509477D02*
X35004761Y-20319001D01*
X35004761Y-20319001D02*
X35004761Y-19985668D01*
X35004761Y-19985668D02*
X34957142Y-19795192D01*
X34957142Y-19795192D02*
X34861904Y-19699954D01*
X34861904Y-19699954D02*
X34766666Y-19652335D01*
D10*
X28164136Y-46264742D02*
X28849850Y-46264742D01*
X28506993Y-46264742D02*
X28506993Y-45064742D01*
X28506993Y-45064742D02*
X28621279Y-45236171D01*
X28621279Y-45236171D02*
X28735564Y-45350457D01*
X28735564Y-45350457D02*
X28849850Y-45407600D01*
X27764136Y-45064742D02*
X27021279Y-45064742D01*
X27021279Y-45064742D02*
X27421279Y-45521885D01*
X27421279Y-45521885D02*
X27249850Y-45521885D01*
X27249850Y-45521885D02*
X27135565Y-45579028D01*
X27135565Y-45579028D02*
X27078422Y-45636171D01*
X27078422Y-45636171D02*
X27021279Y-45750457D01*
X27021279Y-45750457D02*
X27021279Y-46036171D01*
X27021279Y-46036171D02*
X27078422Y-46150457D01*
X27078422Y-46150457D02*
X27135565Y-46207600D01*
X27135565Y-46207600D02*
X27249850Y-46264742D01*
X27249850Y-46264742D02*
X27592707Y-46264742D01*
X27592707Y-46264742D02*
X27706993Y-46207600D01*
X27706993Y-46207600D02*
X27764136Y-46150457D01*
X53689285Y-39137219D02*
X54260713Y-39137219D01*
X53974999Y-39137219D02*
X53974999Y-38137219D01*
X53974999Y-38137219D02*
X54070237Y-38280076D01*
X54070237Y-38280076D02*
X54165475Y-38375314D01*
X54165475Y-38375314D02*
X54260713Y-38422933D01*
D12*
X45211904Y-48790113D02*
X45164285Y-48742494D01*
X45164285Y-48742494D02*
X45069047Y-48694875D01*
X45069047Y-48694875D02*
X44830952Y-48694875D01*
X44830952Y-48694875D02*
X44735714Y-48742494D01*
X44735714Y-48742494D02*
X44688095Y-48790113D01*
X44688095Y-48790113D02*
X44640476Y-48885351D01*
X44640476Y-48885351D02*
X44640476Y-48980589D01*
X44640476Y-48980589D02*
X44688095Y-49123446D01*
X44688095Y-49123446D02*
X45259523Y-49694875D01*
X45259523Y-49694875D02*
X44640476Y-49694875D01*
X43783333Y-49028208D02*
X43783333Y-49694875D01*
X44021428Y-48647256D02*
X44259523Y-49361541D01*
X44259523Y-49361541D02*
X43640476Y-49361541D01*
X45211904Y-50400057D02*
X45164285Y-50352438D01*
X45164285Y-50352438D02*
X45069047Y-50304819D01*
X45069047Y-50304819D02*
X44830952Y-50304819D01*
X44830952Y-50304819D02*
X44735714Y-50352438D01*
X44735714Y-50352438D02*
X44688095Y-50400057D01*
X44688095Y-50400057D02*
X44640476Y-50495295D01*
X44640476Y-50495295D02*
X44640476Y-50590533D01*
X44640476Y-50590533D02*
X44688095Y-50733390D01*
X44688095Y-50733390D02*
X45259523Y-51304819D01*
X45259523Y-51304819D02*
X44640476Y-51304819D01*
X44307142Y-50304819D02*
X43688095Y-50304819D01*
X43688095Y-50304819D02*
X44021428Y-50685771D01*
X44021428Y-50685771D02*
X43878571Y-50685771D01*
X43878571Y-50685771D02*
X43783333Y-50733390D01*
X43783333Y-50733390D02*
X43735714Y-50781009D01*
X43735714Y-50781009D02*
X43688095Y-50876247D01*
X43688095Y-50876247D02*
X43688095Y-51114342D01*
X43688095Y-51114342D02*
X43735714Y-51209580D01*
X43735714Y-51209580D02*
X43783333Y-51257200D01*
X43783333Y-51257200D02*
X43878571Y-51304819D01*
X43878571Y-51304819D02*
X44164285Y-51304819D01*
X44164285Y-51304819D02*
X44259523Y-51257200D01*
X44259523Y-51257200D02*
X44307142Y-51209580D01*
X57340476Y-49694875D02*
X57911904Y-49694875D01*
X57626190Y-49694875D02*
X57626190Y-48694875D01*
X57626190Y-48694875D02*
X57721428Y-48837732D01*
X57721428Y-48837732D02*
X57816666Y-48932970D01*
X57816666Y-48932970D02*
X57911904Y-48980589D01*
X56483333Y-49028208D02*
X56483333Y-49694875D01*
X56721428Y-48647256D02*
X56959523Y-49361541D01*
X56959523Y-49361541D02*
X56340476Y-49361541D01*
X57935713Y-51304819D02*
X57935713Y-50304819D01*
X57935713Y-50304819D02*
X57364285Y-51304819D01*
X57364285Y-51304819D02*
X57364285Y-50304819D01*
X56316666Y-51209580D02*
X56364285Y-51257200D01*
X56364285Y-51257200D02*
X56507142Y-51304819D01*
X56507142Y-51304819D02*
X56602380Y-51304819D01*
X56602380Y-51304819D02*
X56745237Y-51257200D01*
X56745237Y-51257200D02*
X56840475Y-51161961D01*
X56840475Y-51161961D02*
X56888094Y-51066723D01*
X56888094Y-51066723D02*
X56935713Y-50876247D01*
X56935713Y-50876247D02*
X56935713Y-50733390D01*
X56935713Y-50733390D02*
X56888094Y-50542914D01*
X56888094Y-50542914D02*
X56840475Y-50447676D01*
X56840475Y-50447676D02*
X56745237Y-50352438D01*
X56745237Y-50352438D02*
X56602380Y-50304819D01*
X56602380Y-50304819D02*
X56507142Y-50304819D01*
X56507142Y-50304819D02*
X56364285Y-50352438D01*
X56364285Y-50352438D02*
X56316666Y-50400057D01*
D10*
X26640136Y-38644742D02*
X27325850Y-38644742D01*
X26982993Y-38644742D02*
X26982993Y-37444742D01*
X26982993Y-37444742D02*
X27097279Y-37616171D01*
X27097279Y-37616171D02*
X27211564Y-37730457D01*
X27211564Y-37730457D02*
X27325850Y-37787600D01*
X25897279Y-37444742D02*
X25782993Y-37444742D01*
X25782993Y-37444742D02*
X25668707Y-37501885D01*
X25668707Y-37501885D02*
X25611565Y-37559028D01*
X25611565Y-37559028D02*
X25554422Y-37673314D01*
X25554422Y-37673314D02*
X25497279Y-37901885D01*
X25497279Y-37901885D02*
X25497279Y-38187600D01*
X25497279Y-38187600D02*
X25554422Y-38416171D01*
X25554422Y-38416171D02*
X25611565Y-38530457D01*
X25611565Y-38530457D02*
X25668707Y-38587600D01*
X25668707Y-38587600D02*
X25782993Y-38644742D01*
X25782993Y-38644742D02*
X25897279Y-38644742D01*
X25897279Y-38644742D02*
X26011565Y-38587600D01*
X26011565Y-38587600D02*
X26068707Y-38530457D01*
X26068707Y-38530457D02*
X26125850Y-38416171D01*
X26125850Y-38416171D02*
X26182993Y-38187600D01*
X26182993Y-38187600D02*
X26182993Y-37901885D01*
X26182993Y-37901885D02*
X26125850Y-37673314D01*
X26125850Y-37673314D02*
X26068707Y-37559028D01*
X26068707Y-37559028D02*
X26011565Y-37501885D01*
X26011565Y-37501885D02*
X25897279Y-37444742D01*
X54165476Y-31617219D02*
X54736904Y-31617219D01*
X54451190Y-31617219D02*
X54451190Y-30617219D01*
X54451190Y-30617219D02*
X54546428Y-30760076D01*
X54546428Y-30760076D02*
X54641666Y-30855314D01*
X54641666Y-30855314D02*
X54736904Y-30902933D01*
X53308333Y-30950552D02*
X53308333Y-31617219D01*
X53546428Y-30569600D02*
X53784523Y-31283885D01*
X53784523Y-31283885D02*
X53165476Y-31283885D01*
X26754422Y-27284742D02*
X26982993Y-27284742D01*
X26982993Y-27284742D02*
X27097279Y-27341885D01*
X27097279Y-27341885D02*
X27154422Y-27399028D01*
X27154422Y-27399028D02*
X27268707Y-27570457D01*
X27268707Y-27570457D02*
X27325850Y-27799028D01*
X27325850Y-27799028D02*
X27325850Y-28256171D01*
X27325850Y-28256171D02*
X27268707Y-28370457D01*
X27268707Y-28370457D02*
X27211564Y-28427600D01*
X27211564Y-28427600D02*
X27097279Y-28484742D01*
X27097279Y-28484742D02*
X26868707Y-28484742D01*
X26868707Y-28484742D02*
X26754422Y-28427600D01*
X26754422Y-28427600D02*
X26697279Y-28370457D01*
X26697279Y-28370457D02*
X26640136Y-28256171D01*
X26640136Y-28256171D02*
X26640136Y-27970457D01*
X26640136Y-27970457D02*
X26697279Y-27856171D01*
X26697279Y-27856171D02*
X26754422Y-27799028D01*
X26754422Y-27799028D02*
X26868707Y-27741885D01*
X26868707Y-27741885D02*
X27097279Y-27741885D01*
X27097279Y-27741885D02*
X27211564Y-27799028D01*
X27211564Y-27799028D02*
X27268707Y-27856171D01*
X27268707Y-27856171D02*
X27325850Y-27970457D01*
D13*
%TO.C,J2*%
X52645000Y-32325000D02*
X52645000Y-34924999D01*
X55305000Y-32325000D02*
X52645000Y-32325000D01*
X55305000Y-32325000D02*
X55305000Y-34924999D01*
X55305000Y-34924999D02*
X52645000Y-34924999D01*
X55305000Y-36195000D02*
X55305000Y-37525000D01*
X55305000Y-37525000D02*
X53975000Y-37525000D01*
%TD*%
%LPC*%
D14*
%TO.C,J2*%
X53975000Y-36195000D03*
D15*
X53975000Y-33655000D03*
%TD*%
D16*
%TO.C,H2*%
X53975000Y-25400000D03*
%TD*%
D17*
%TO.C,U1*%
X29680000Y-17780000D03*
X29680000Y-20320000D03*
X29680000Y-22860000D03*
X29680000Y-25400000D03*
X29680000Y-27940000D03*
X29680000Y-30480000D03*
X29680000Y-33020000D03*
X29680000Y-35560000D03*
X29680000Y-38100000D03*
X29680000Y-40640000D03*
X29680000Y-43180000D03*
D18*
X30480000Y-46520000D03*
D19*
X46520000Y-17780000D03*
X46520000Y-20320000D03*
X46520000Y-22860000D03*
X46520000Y-25400000D03*
X46520000Y-27940000D03*
X46520000Y-30480000D03*
X46520000Y-33020000D03*
X46520000Y-35560000D03*
X46520000Y-38100000D03*
X46520000Y-40640000D03*
X46520000Y-43180000D03*
D18*
X45720000Y-46520000D03*
X33020000Y-46520000D03*
X35560000Y-46520000D03*
X38100000Y-46520000D03*
X40640000Y-46520000D03*
X43180000Y-46520000D03*
D19*
X46520000Y-15240000D03*
D17*
X29680000Y-15240000D03*
%TD*%
D15*
%TO.C,J1*%
X57150000Y-52770000D03*
D20*
X57150000Y-55310000D03*
D15*
X54610000Y-52770000D03*
X54610000Y-55310000D03*
X52070001Y-52770000D03*
X52070000Y-55310000D03*
X49530000Y-52770000D03*
X49530000Y-55310000D03*
X46990000Y-52770000D03*
X46990000Y-55310000D03*
X44450000Y-52770000D03*
X44450000Y-55310000D03*
X41910000Y-52770000D03*
X41910000Y-55310000D03*
X39369999Y-52770000D03*
X39370000Y-55310000D03*
X36830000Y-52770000D03*
X36830000Y-55310000D03*
X34290000Y-52770000D03*
X34290000Y-55310000D03*
X31750000Y-52770000D03*
X31750000Y-55310000D03*
X29210001Y-52770000D03*
X29210000Y-55310000D03*
X26670000Y-52770000D03*
X26670000Y-55310000D03*
X24130000Y-52770000D03*
X24130000Y-55310000D03*
X21590000Y-52770000D03*
X21590000Y-55310000D03*
X19050001Y-52770000D03*
X19050000Y-55310000D03*
%TD*%
D16*
%TO.C,H1*%
X22225000Y-25400000D03*
%TD*%
%TO.C,H4*%
X22225000Y-44450000D03*
%TD*%
%TO.C,H3*%
X53975000Y-44450000D03*
%TD*%
D21*
%TO.C,U2*%
X45720000Y-25400000D03*
X45720000Y-27940000D03*
X45720000Y-30480000D03*
X45720000Y-33020000D03*
X45720000Y-35560000D03*
X45720000Y-38100000D03*
X45720000Y-40640000D03*
X30480000Y-25400000D03*
X30480000Y-27940000D03*
X30480000Y-30480000D03*
X30480000Y-33020000D03*
X30480000Y-35560000D03*
X30480000Y-38100000D03*
X30480000Y-40640000D03*
D22*
X34290000Y-42227500D03*
D23*
X34290000Y-42227500D03*
D22*
X32385000Y-42227500D03*
D23*
X32385000Y-42227500D03*
%TD*%
%LPD*%
M02*
