%TF.GenerationSoftware,KiCad,Pcbnew,8.0.2*%
%TF.CreationDate,2024-05-21T12:30:07+05:30*%
%TF.ProjectId,carrier,63617272-6965-4722-9e6b-696361645f70,rev?*%
%TF.SameCoordinates,Original*%
%TF.FileFunction,Copper,L2,Bot*%
%TF.FilePolarity,Positive*%
%FSLAX46Y46*%
G04 Gerber Fmt 4.6, Leading zero omitted, Abs format (unit mm)*
G04 Created by KiCad (PCBNEW 8.0.2) date 2024-05-21 12:30:07*
%MOMM*%
%LPD*%
G01*
G04 APERTURE LIST*
G04 Aperture macros list*
%AMRoundRect*
0 Rectangle with rounded corners*
0 $1 Rounding radius*
0 $2 $3 $4 $5 $6 $7 $8 $9 X,Y pos of 4 corners*
0 Add a 4 corners polygon primitive as box body*
4,1,4,$2,$3,$4,$5,$6,$7,$8,$9,$2,$3,0*
0 Add four circle primitives for the rounded corners*
1,1,$1+$1,$2,$3*
1,1,$1+$1,$4,$5*
1,1,$1+$1,$6,$7*
1,1,$1+$1,$8,$9*
0 Add four rect primitives between the rounded corners*
20,1,$1+$1,$2,$3,$4,$5,0*
20,1,$1+$1,$4,$5,$6,$7,0*
20,1,$1+$1,$6,$7,$8,$9,0*
20,1,$1+$1,$8,$9,$2,$3,0*%
%AMOutline5P*
0 Free polygon, 5 corners , with rotation*
0 The origin of the aperture is its center*
0 number of corners: always 5*
0 $1 to $10 corner X, Y*
0 $11 Rotation angle, in degrees counterclockwise*
0 create outline with 5 corners*
4,1,5,$1,$2,$3,$4,$5,$6,$7,$8,$9,$10,$1,$2,$11*%
%AMOutline6P*
0 Free polygon, 6 corners , with rotation*
0 The origin of the aperture is its center*
0 number of corners: always 6*
0 $1 to $12 corner X, Y*
0 $13 Rotation angle, in degrees counterclockwise*
0 create outline with 6 corners*
4,1,6,$1,$2,$3,$4,$5,$6,$7,$8,$9,$10,$11,$12,$1,$2,$13*%
%AMOutline7P*
0 Free polygon, 7 corners , with rotation*
0 The origin of the aperture is its center*
0 number of corners: always 7*
0 $1 to $14 corner X, Y*
0 $15 Rotation angle, in degrees counterclockwise*
0 create outline with 7 corners*
4,1,7,$1,$2,$3,$4,$5,$6,$7,$8,$9,$10,$11,$12,$13,$14,$1,$2,$15*%
%AMOutline8P*
0 Free polygon, 8 corners , with rotation*
0 The origin of the aperture is its center*
0 number of corners: always 8*
0 $1 to $16 corner X, Y*
0 $17 Rotation angle, in degrees counterclockwise*
0 create outline with 8 corners*
4,1,8,$1,$2,$3,$4,$5,$6,$7,$8,$9,$10,$11,$12,$13,$14,$15,$16,$1,$2,$17*%
G04 Aperture macros list end*
%TA.AperFunction,ComponentPad*%
%ADD10R,1.700000X1.700000*%
%TD*%
%TA.AperFunction,ComponentPad*%
%ADD11O,1.700000X1.700000*%
%TD*%
%TA.AperFunction,ComponentPad*%
%ADD12RoundRect,0.800000X0.800000X0.000010X-0.800000X0.000010X-0.800000X-0.000010X0.800000X-0.000010X0*%
%TD*%
%TA.AperFunction,ComponentPad*%
%ADD13RoundRect,0.800000X-0.000010X0.800000X-0.000010X-0.800000X0.000010X-0.800000X0.000010X0.800000X0*%
%TD*%
%TA.AperFunction,ComponentPad*%
%ADD14RoundRect,0.800000X-0.800000X-0.000010X0.800000X-0.000010X0.800000X0.000010X-0.800000X0.000010X0*%
%TD*%
%TA.AperFunction,ComponentPad*%
%ADD15Outline8P,-0.850000X0.510000X-0.510000X0.850000X0.510000X0.850000X0.850000X0.510000X0.850000X-0.510000X0.510000X-0.850000X-0.510000X-0.850000X-0.850000X-0.510000X270.000000*%
%TD*%
%TA.AperFunction,ComponentPad*%
%ADD16C,1.600000*%
%TD*%
%TA.AperFunction,ComponentPad*%
%ADD17RoundRect,0.337500X0.337500X-0.562500X0.337500X0.562500X-0.337500X0.562500X-0.337500X-0.562500X0*%
%TD*%
%TA.AperFunction,SMDPad,CuDef*%
%ADD18RoundRect,0.337500X0.337500X-0.912500X0.337500X0.912500X-0.337500X0.912500X-0.337500X-0.912500X0*%
%TD*%
%TA.AperFunction,Conductor*%
%ADD19C,0.200000*%
%TD*%
G04 APERTURE END LIST*
D10*
%TO.P,J2,1,Pin_1*%
%TO.N,31*%
X53975000Y-36195000D03*
D11*
%TO.P,J2,2,Pin_2*%
%TO.N,1*%
X53975000Y-33655000D03*
%TD*%
D12*
%TO.P,U1,1,D3-TX*%
%TO.N,32*%
X29680000Y-17780000D03*
%TO.P,U1,2,D2-RX*%
%TO.N,29*%
X29680000Y-20320000D03*
%TO.P,U1,3,GND*%
%TO.N,30*%
X29680000Y-22860000D03*
%TO.P,U1,4,GND*%
%TO.N,27*%
X29680000Y-25400000D03*
%TO.P,U1,5,D1*%
%TO.N,28*%
X29680000Y-27940000D03*
%TO.P,U1,6,D0*%
%TO.N,25*%
X29680000Y-30480000D03*
%TO.P,U1,7,D4*%
%TO.N,26*%
X29680000Y-33020000D03*
%TO.P,U1,8,C6*%
%TO.N,23*%
X29680000Y-35560000D03*
%TO.P,U1,9,D7*%
%TO.N,24*%
X29680000Y-38100000D03*
%TO.P,U1,10,E6*%
%TO.N,21*%
X29680000Y-40640000D03*
%TO.P,U1,11,B4*%
%TO.N,22*%
X29680000Y-43180000D03*
D13*
%TO.P,U1,12,B5*%
%TO.N,19*%
X30480000Y-46520000D03*
D14*
%TO.P,U1,13,B0*%
%TO.N,4*%
X46520000Y-17780000D03*
%TO.P,U1,14,GND*%
%TO.N,3*%
X46520000Y-20320000D03*
%TO.P,U1,15,RST*%
%TO.N,6*%
X46520000Y-22860000D03*
%TO.P,U1,16,VCC*%
%TO.N,5*%
X46520000Y-25400000D03*
%TO.P,U1,17,F4*%
%TO.N,8*%
X46520000Y-27940000D03*
%TO.P,U1,18,F5*%
%TO.N,7*%
X46520000Y-30480000D03*
%TO.P,U1,19,F6*%
%TO.N,10*%
X46520000Y-33020000D03*
%TO.P,U1,20,F7*%
%TO.N,9*%
X46520000Y-35560000D03*
%TO.P,U1,21,B1*%
%TO.N,12*%
X46520000Y-38100000D03*
%TO.P,U1,22,B3*%
%TO.N,11*%
X46520000Y-40640000D03*
%TO.P,U1,23,B2*%
%TO.N,14*%
X46520000Y-43180000D03*
D13*
%TO.P,U1,24,B6*%
%TO.N,13*%
X45720000Y-46520000D03*
%TO.P,U1,25,B7*%
%TO.N,20*%
X33020000Y-46520000D03*
%TO.P,U1,26,D5*%
%TO.N,17*%
X35560000Y-46520000D03*
%TO.P,U1,27,C7*%
%TO.N,18*%
X38100000Y-46520000D03*
%TO.P,U1,28,F1*%
%TO.N,15*%
X40640000Y-46520000D03*
%TO.P,U1,29,F0*%
%TO.N,16*%
X43180000Y-46520000D03*
D14*
%TO.P,U1,30,VBUS*%
%TO.N,1*%
X46520000Y-15240000D03*
D12*
%TO.P,U1,31,D6*%
%TO.N,31*%
X29680000Y-15240000D03*
%TD*%
D11*
%TO.P,J1,1,Pin_1*%
%TO.N,1*%
X57150000Y-52770000D03*
D15*
%TO.P,J1,2,Pin_2*%
%TO.N,2*%
X57150000Y-55310000D03*
D11*
%TO.P,J1,3,Pin_3*%
%TO.N,3*%
X54610000Y-52770000D03*
%TO.P,J1,4,Pin_4*%
%TO.N,4*%
X54610000Y-55310000D03*
%TO.P,J1,5,Pin_5*%
%TO.N,5*%
X52070001Y-52770000D03*
%TO.P,J1,6,Pin_6*%
%TO.N,6*%
X52070000Y-55310000D03*
%TO.P,J1,7,Pin_7*%
%TO.N,7*%
X49530000Y-52770000D03*
%TO.P,J1,8,Pin_8*%
%TO.N,8*%
X49530000Y-55310000D03*
%TO.P,J1,9,Pin_9*%
%TO.N,9*%
X46990000Y-52770000D03*
%TO.P,J1,10,Pin_10*%
%TO.N,10*%
X46990000Y-55310000D03*
%TO.P,J1,11,Pin_11*%
%TO.N,11*%
X44450000Y-52770000D03*
%TO.P,J1,12,Pin_12*%
%TO.N,12*%
X44450000Y-55310000D03*
%TO.P,J1,13,Pin_13*%
%TO.N,13*%
X41910000Y-52770000D03*
%TO.P,J1,14,Pin_14*%
%TO.N,14*%
X41910000Y-55310000D03*
%TO.P,J1,15,Pin_15*%
%TO.N,15*%
X39369999Y-52770000D03*
%TO.P,J1,16,Pin_16*%
%TO.N,16*%
X39370000Y-55310000D03*
%TO.P,J1,17,Pin_17*%
%TO.N,17*%
X36830000Y-52770000D03*
%TO.P,J1,18,Pin_18*%
%TO.N,18*%
X36830000Y-55310000D03*
%TO.P,J1,19,Pin_19*%
%TO.N,19*%
X34290000Y-52770000D03*
%TO.P,J1,20,Pin_20*%
%TO.N,20*%
X34290000Y-55310000D03*
%TO.P,J1,21,Pin_21*%
%TO.N,21*%
X31750000Y-52770000D03*
%TO.P,J1,22,Pin_22*%
%TO.N,22*%
X31750000Y-55310000D03*
%TO.P,J1,23,Pin_23*%
%TO.N,23*%
X29210001Y-52770000D03*
%TO.P,J1,24,Pin_24*%
%TO.N,24*%
X29210000Y-55310000D03*
%TO.P,J1,25,Pin_25*%
%TO.N,25*%
X26670000Y-52770000D03*
%TO.P,J1,26,Pin_26*%
%TO.N,26*%
X26670000Y-55310000D03*
%TO.P,J1,27,Pin_27*%
%TO.N,27*%
X24130000Y-52770000D03*
%TO.P,J1,28,Pin_28*%
%TO.N,28*%
X24130000Y-55310000D03*
%TO.P,J1,29,Pin_29*%
%TO.N,29*%
X21590000Y-52770000D03*
%TO.P,J1,30,Pin_30*%
%TO.N,30*%
X21590000Y-55310000D03*
%TO.P,J1,31,Pin_31*%
%TO.N,31*%
X19050001Y-52770000D03*
%TO.P,J1,32,Pin_32*%
%TO.N,32*%
X19050000Y-55310000D03*
%TD*%
D16*
%TO.P,U2,1,P0.02*%
%TO.N,5*%
X45720000Y-25400000D03*
%TO.P,U2,2,P0.03*%
%TO.N,8*%
X45720000Y-27940000D03*
%TO.P,U2,3,P0.28*%
%TO.N,7*%
X45720000Y-30480000D03*
%TO.P,U2,4,P0.29*%
%TO.N,10*%
X45720000Y-33020000D03*
%TO.P,U2,5,P0.04*%
%TO.N,9*%
X45720000Y-35560000D03*
%TO.P,U2,6,P0.05*%
%TO.N,12*%
X45720000Y-38100000D03*
%TO.P,U2,7,P1.11*%
%TO.N,11*%
X45720000Y-40640000D03*
%TO.P,U2,8,5V*%
%TO.N,27*%
X30480000Y-25400000D03*
%TO.P,U2,9,GND*%
%TO.N,28*%
X30480000Y-27940000D03*
%TO.P,U2,10,3V3*%
%TO.N,25*%
X30480000Y-30480000D03*
%TO.P,U2,11,P1.15*%
%TO.N,26*%
X30480000Y-33020000D03*
%TO.P,U2,12,P1.14*%
%TO.N,23*%
X30480000Y-35560000D03*
%TO.P,U2,13,P1.13*%
%TO.N,24*%
X30480000Y-38100000D03*
%TO.P,U2,14,P1.12*%
%TO.N,21*%
X30480000Y-40640000D03*
D17*
%TO.P,U2,17,P0.09*%
%TO.N,17*%
X34290000Y-42227500D03*
D18*
X34290000Y-42227500D03*
D17*
%TO.P,U2,18,P0.10*%
%TO.N,20*%
X32385000Y-42227500D03*
D18*
X32385000Y-42227500D03*
%TD*%
D19*
%TO.N,26*%
X30480000Y-33020000D02*
X28702000Y-33020000D01*
X27178000Y-34544000D02*
X27178000Y-50292000D01*
X27178000Y-50292000D02*
X27940000Y-51054000D01*
X27940000Y-54040000D02*
X26670000Y-55310000D01*
X27940000Y-51054000D02*
X27940000Y-54040000D01*
X28702000Y-33020000D02*
X27178000Y-34544000D01*
%TO.N,14*%
X43180000Y-51054000D02*
X44450000Y-49784000D01*
X44450000Y-49784000D02*
X44450000Y-44450000D01*
X44450000Y-44450000D02*
X45720000Y-43180000D01*
X43180000Y-54040000D02*
X43180000Y-51054000D01*
X41910000Y-55310000D02*
X43180000Y-54040000D01*
%TO.N,8*%
X48006000Y-27940000D02*
X49530000Y-29464000D01*
X49530000Y-49784000D02*
X50800000Y-51054000D01*
X49530000Y-29464000D02*
X49530000Y-49784000D01*
X50800000Y-51054000D02*
X50800000Y-54040000D01*
X50800000Y-54040000D02*
X49530000Y-55310000D01*
X45720000Y-27940000D02*
X48006000Y-27940000D01*
%TO.N,12*%
X48514000Y-39370000D02*
X48514000Y-48260000D01*
X45720000Y-54040000D02*
X44450000Y-55310000D01*
X47244000Y-38100000D02*
X48514000Y-39370000D01*
X45720000Y-38100000D02*
X47244000Y-38100000D01*
X48514000Y-48260000D02*
X45720000Y-51054000D01*
X45720000Y-51054000D02*
X45720000Y-54040000D01*
%TO.N,6*%
X53340000Y-54040000D02*
X52070000Y-55310000D01*
X53340000Y-51054000D02*
X53340000Y-54040000D01*
X45720000Y-22860000D02*
X48514000Y-22860000D01*
X50038000Y-47752000D02*
X53340000Y-51054000D01*
X50038000Y-24384000D02*
X50038000Y-47752000D01*
X48514000Y-22860000D02*
X50038000Y-24384000D01*
%TO.N,28*%
X27940000Y-27940000D02*
X26670000Y-29210000D01*
X26670000Y-49784000D02*
X25400000Y-51054000D01*
X30480000Y-27940000D02*
X27940000Y-27940000D01*
X25400000Y-54040000D02*
X24130000Y-55310000D01*
X25400000Y-51054000D02*
X25400000Y-54040000D01*
X26670000Y-29210000D02*
X26670000Y-49784000D01*
%TO.N,31*%
X30480000Y-15240000D02*
X32385000Y-15240000D01*
X50292000Y-23114000D02*
X51054000Y-23876000D01*
X51054000Y-35052000D02*
X52197000Y-36195000D01*
X50292000Y-17780000D02*
X50292000Y-23114000D01*
X51054000Y-23876000D02*
X51054000Y-35052000D01*
X49022000Y-16510000D02*
X50292000Y-17780000D01*
X33655000Y-16510000D02*
X49022000Y-16510000D01*
X52197000Y-36195000D02*
X53975000Y-36195000D01*
X32385000Y-15240000D02*
X33655000Y-16510000D01*
%TO.N,24*%
X30480000Y-54040000D02*
X29210000Y-55310000D01*
X27686000Y-46990000D02*
X30480000Y-49784000D01*
X30480000Y-49784000D02*
X30480000Y-54040000D01*
X27686000Y-39116000D02*
X27686000Y-46990000D01*
X28702000Y-38100000D02*
X27686000Y-39116000D01*
%TO.N,32*%
X24130000Y-49022000D02*
X22352000Y-49022000D01*
X22352000Y-49022000D02*
X20320000Y-51054000D01*
X20320000Y-51054000D02*
X20320000Y-54040000D01*
X26924000Y-17780000D02*
X25654000Y-19050000D01*
X30480000Y-17780000D02*
X26924000Y-17780000D01*
X25654000Y-19050000D02*
X25654000Y-47498000D01*
X25654000Y-47498000D02*
X24130000Y-49022000D01*
X20320000Y-54040000D02*
X19050000Y-55310000D01*
%TO.N,30*%
X26162000Y-47752000D02*
X22860000Y-51054000D01*
X30480000Y-22860000D02*
X28194000Y-22860000D01*
X28194000Y-22860000D02*
X26162000Y-24892000D01*
X26162000Y-24892000D02*
X26162000Y-47752000D01*
X22860000Y-51054000D02*
X22860000Y-54040000D01*
X22860000Y-54040000D02*
X21590000Y-55310000D01*
%TO.N,4*%
X49784000Y-18542000D02*
X49784000Y-23368000D01*
X50546000Y-24130000D02*
X50546000Y-45720000D01*
X45720000Y-17780000D02*
X49022000Y-17780000D01*
X50546000Y-45720000D02*
X55880000Y-51054000D01*
X55880000Y-54040000D02*
X54610000Y-55310000D01*
X49022000Y-17780000D02*
X49784000Y-18542000D01*
X55880000Y-51054000D02*
X55880000Y-54040000D01*
X49784000Y-23368000D02*
X50546000Y-24130000D01*
%TO.N,10*%
X45720000Y-33020000D02*
X48006000Y-33020000D01*
X48260000Y-51054000D02*
X48260000Y-54040000D01*
X49022000Y-34036000D02*
X49022000Y-50292000D01*
X48006000Y-33020000D02*
X49022000Y-34036000D01*
X48260000Y-54040000D02*
X46990000Y-55310000D01*
X49022000Y-50292000D02*
X48260000Y-51054000D01*
%TO.N,22*%
X33020000Y-54040000D02*
X31750000Y-55310000D01*
X30480000Y-43180000D02*
X31750000Y-44450000D01*
X33020000Y-51054000D02*
X33020000Y-54040000D01*
X31750000Y-44450000D02*
X31750000Y-49784000D01*
X31750000Y-49784000D02*
X33020000Y-51054000D01*
%TD*%
M02*
