%TF.GenerationSoftware,KiCad,Pcbnew,8.0.2*%
%TF.CreationDate,2024-05-21T12:30:08+05:30*%
%TF.ProjectId,carrier,63617272-6965-4722-9e6b-696361645f70,rev?*%
%TF.SameCoordinates,Original*%
%TF.FileFunction,Profile,NP*%
%FSLAX46Y46*%
G04 Gerber Fmt 4.6, Leading zero omitted, Abs format (unit mm)*
G04 Created by KiCad (PCBNEW 8.0.2) date 2024-05-21 12:30:08*
%MOMM*%
%LPD*%
G01*
G04 APERTURE LIST*
%TA.AperFunction,Profile*%
%ADD10C,0.050000*%
%TD*%
G04 APERTURE END LIST*
D10*
X48768000Y-21440000D02*
G75*
G02*
X48768000Y-21740000I0J-150000D01*
G01*
X27432000Y-21440000D02*
X33020000Y-21440000D01*
X41285000Y-33655000D02*
G75*
G02*
X41035000Y-33405000I0J250000D01*
G01*
X43180000Y-21440000D02*
X48768000Y-21440000D01*
X56900000Y-21740000D02*
X57150000Y-21990000D01*
X17780000Y-57285000D02*
X18280000Y-57785000D01*
X44055000Y-30095000D02*
X44055000Y-33405000D01*
X27432000Y-21740000D02*
G75*
G02*
X27432000Y-21440000I0J150000D01*
G01*
X34290000Y-21440000D02*
X41910000Y-21440000D01*
X56650000Y-13970000D02*
X57150000Y-14470000D01*
X33020000Y-21440000D02*
G75*
G02*
X33020000Y-21740000I0J-150000D01*
G01*
X43180000Y-21740000D02*
G75*
G02*
X43180000Y-21440000I0J150000D01*
G01*
X57150000Y-47625000D02*
X58420000Y-48895000D01*
X19050000Y-47625000D02*
X17780000Y-48895000D01*
X34290000Y-21740000D02*
G75*
G02*
X34290000Y-21440000I0J150000D01*
G01*
X24892000Y-21440000D02*
G75*
G02*
X24892000Y-21740000I0J-150000D01*
G01*
X19300000Y-21740000D02*
X19050000Y-21990000D01*
X57920000Y-57785000D02*
X18280000Y-57785000D01*
X19300000Y-21440000D02*
X24892000Y-21440000D01*
X58420000Y-57285000D02*
X57920000Y-57785000D01*
X44055000Y-33405000D02*
G75*
G02*
X43805000Y-33655000I-250000J0D01*
G01*
X51308000Y-21440000D02*
X56900000Y-21440000D01*
X41910000Y-21440000D02*
G75*
G02*
X41910000Y-21740000I0J-150000D01*
G01*
X56900000Y-21440000D02*
X57150000Y-21190000D01*
X41910000Y-21740000D02*
X34290000Y-21740000D01*
X19050000Y-21190000D02*
X19050000Y-14470000D01*
X24892000Y-21740000D02*
X19300000Y-21740000D01*
X43180000Y-21740000D02*
X48768000Y-21740000D01*
X27432000Y-21740000D02*
X33020000Y-21740000D01*
X17780000Y-48895000D02*
X17780000Y-57285000D01*
X51308000Y-21740000D02*
G75*
G02*
X51308000Y-21440000I0J150000D01*
G01*
X51308000Y-21740000D02*
X56900000Y-21740000D01*
X41035000Y-30095000D02*
G75*
G02*
X41285000Y-29845000I250000J0D01*
G01*
X41285000Y-29845000D02*
X43805000Y-29845000D01*
X57150000Y-21990000D02*
X57150000Y-47625000D01*
X19550000Y-13970000D02*
X56650000Y-13970000D01*
X19050000Y-21990000D02*
X19050000Y-47625000D01*
X57150000Y-21190000D02*
X57150000Y-14470000D01*
X19050000Y-21190000D02*
X19300000Y-21440000D01*
X19550000Y-13970000D02*
X19050000Y-14470000D01*
X58420000Y-48895000D02*
X58420000Y-57285000D01*
X43805000Y-33655000D02*
X41285000Y-33655000D01*
X43805000Y-29845000D02*
G75*
G02*
X44055000Y-30095000I0J-250000D01*
G01*
X41035000Y-33405000D02*
X41035000Y-30095000D01*
M02*
