%TF.GenerationSoftware,KiCad,Pcbnew,8.0.2*%
%TF.CreationDate,2024-05-21T12:30:08+05:30*%
%TF.ProjectId,carrier,63617272-6965-4722-9e6b-696361645f70,rev?*%
%TF.SameCoordinates,Original*%
%TF.FileFunction,Soldermask,Bot*%
%TF.FilePolarity,Negative*%
%FSLAX46Y46*%
G04 Gerber Fmt 4.6, Leading zero omitted, Abs format (unit mm)*
G04 Created by KiCad (PCBNEW 8.0.2) date 2024-05-21 12:30:08*
%MOMM*%
%LPD*%
G01*
G04 APERTURE LIST*
G04 Aperture macros list*
%AMRoundRect*
0 Rectangle with rounded corners*
0 $1 Rounding radius*
0 $2 $3 $4 $5 $6 $7 $8 $9 X,Y pos of 4 corners*
0 Add a 4 corners polygon primitive as box body*
4,1,4,$2,$3,$4,$5,$6,$7,$8,$9,$2,$3,0*
0 Add four circle primitives for the rounded corners*
1,1,$1+$1,$2,$3*
1,1,$1+$1,$4,$5*
1,1,$1+$1,$6,$7*
1,1,$1+$1,$8,$9*
0 Add four rect primitives between the rounded corners*
20,1,$1+$1,$2,$3,$4,$5,0*
20,1,$1+$1,$4,$5,$6,$7,0*
20,1,$1+$1,$6,$7,$8,$9,0*
20,1,$1+$1,$8,$9,$2,$3,0*%
%AMOutline5P*
0 Free polygon, 5 corners , with rotation*
0 The origin of the aperture is its center*
0 number of corners: always 5*
0 $1 to $10 corner X, Y*
0 $11 Rotation angle, in degrees counterclockwise*
0 create outline with 5 corners*
4,1,5,$1,$2,$3,$4,$5,$6,$7,$8,$9,$10,$1,$2,$11*%
%AMOutline6P*
0 Free polygon, 6 corners , with rotation*
0 The origin of the aperture is its center*
0 number of corners: always 6*
0 $1 to $12 corner X, Y*
0 $13 Rotation angle, in degrees counterclockwise*
0 create outline with 6 corners*
4,1,6,$1,$2,$3,$4,$5,$6,$7,$8,$9,$10,$11,$12,$1,$2,$13*%
%AMOutline7P*
0 Free polygon, 7 corners , with rotation*
0 The origin of the aperture is its center*
0 number of corners: always 7*
0 $1 to $14 corner X, Y*
0 $15 Rotation angle, in degrees counterclockwise*
0 create outline with 7 corners*
4,1,7,$1,$2,$3,$4,$5,$6,$7,$8,$9,$10,$11,$12,$13,$14,$1,$2,$15*%
%AMOutline8P*
0 Free polygon, 8 corners , with rotation*
0 The origin of the aperture is its center*
0 number of corners: always 8*
0 $1 to $16 corner X, Y*
0 $17 Rotation angle, in degrees counterclockwise*
0 create outline with 8 corners*
4,1,8,$1,$2,$3,$4,$5,$6,$7,$8,$9,$10,$11,$12,$13,$14,$15,$16,$1,$2,$17*%
G04 Aperture macros list end*
%ADD10R,1.700000X1.700000*%
%ADD11O,1.700000X1.700000*%
%ADD12C,2.200000*%
%ADD13RoundRect,0.800000X0.800000X0.000010X-0.800000X0.000010X-0.800000X-0.000010X0.800000X-0.000010X0*%
%ADD14RoundRect,0.800000X-0.000010X0.800000X-0.000010X-0.800000X0.000010X-0.800000X0.000010X0.800000X0*%
%ADD15RoundRect,0.800000X-0.800000X-0.000010X0.800000X-0.000010X0.800000X0.000010X-0.800000X0.000010X0*%
%ADD16Outline8P,-0.850000X0.510000X-0.510000X0.850000X0.510000X0.850000X0.850000X0.510000X0.850000X-0.510000X0.510000X-0.850000X-0.510000X-0.850000X-0.850000X-0.510000X270.000000*%
%ADD17C,1.600000*%
%ADD18RoundRect,0.337500X0.337500X-0.562500X0.337500X0.562500X-0.337500X0.562500X-0.337500X-0.562500X0*%
%ADD19RoundRect,0.337500X0.337500X-0.912500X0.337500X0.912500X-0.337500X0.912500X-0.337500X-0.912500X0*%
G04 APERTURE END LIST*
D10*
%TO.C,J2*%
X53975000Y-36195000D03*
D11*
X53975000Y-33655000D03*
%TD*%
D12*
%TO.C,H2*%
X53975000Y-25400000D03*
%TD*%
D13*
%TO.C,U1*%
X29680000Y-17780000D03*
X29680000Y-20320000D03*
X29680000Y-22860000D03*
X29680000Y-25400000D03*
X29680000Y-27940000D03*
X29680000Y-30480000D03*
X29680000Y-33020000D03*
X29680000Y-35560000D03*
X29680000Y-38100000D03*
X29680000Y-40640000D03*
X29680000Y-43180000D03*
D14*
X30480000Y-46520000D03*
D15*
X46520000Y-17780000D03*
X46520000Y-20320000D03*
X46520000Y-22860000D03*
X46520000Y-25400000D03*
X46520000Y-27940000D03*
X46520000Y-30480000D03*
X46520000Y-33020000D03*
X46520000Y-35560000D03*
X46520000Y-38100000D03*
X46520000Y-40640000D03*
X46520000Y-43180000D03*
D14*
X45720000Y-46520000D03*
X33020000Y-46520000D03*
X35560000Y-46520000D03*
X38100000Y-46520000D03*
X40640000Y-46520000D03*
X43180000Y-46520000D03*
D15*
X46520000Y-15240000D03*
D13*
X29680000Y-15240000D03*
%TD*%
D11*
%TO.C,J1*%
X57150000Y-52770000D03*
D16*
X57150000Y-55310000D03*
D11*
X54610000Y-52770000D03*
X54610000Y-55310000D03*
X52070001Y-52770000D03*
X52070000Y-55310000D03*
X49530000Y-52770000D03*
X49530000Y-55310000D03*
X46990000Y-52770000D03*
X46990000Y-55310000D03*
X44450000Y-52770000D03*
X44450000Y-55310000D03*
X41910000Y-52770000D03*
X41910000Y-55310000D03*
X39369999Y-52770000D03*
X39370000Y-55310000D03*
X36830000Y-52770000D03*
X36830000Y-55310000D03*
X34290000Y-52770000D03*
X34290000Y-55310000D03*
X31750000Y-52770000D03*
X31750000Y-55310000D03*
X29210001Y-52770000D03*
X29210000Y-55310000D03*
X26670000Y-52770000D03*
X26670000Y-55310000D03*
X24130000Y-52770000D03*
X24130000Y-55310000D03*
X21590000Y-52770000D03*
X21590000Y-55310000D03*
X19050001Y-52770000D03*
X19050000Y-55310000D03*
%TD*%
D12*
%TO.C,H1*%
X22225000Y-25400000D03*
%TD*%
%TO.C,H4*%
X22225000Y-44450000D03*
%TD*%
%TO.C,H3*%
X53975000Y-44450000D03*
%TD*%
D17*
%TO.C,U2*%
X45720000Y-25400000D03*
X45720000Y-27940000D03*
X45720000Y-30480000D03*
X45720000Y-33020000D03*
X45720000Y-35560000D03*
X45720000Y-38100000D03*
X45720000Y-40640000D03*
X30480000Y-25400000D03*
X30480000Y-27940000D03*
X30480000Y-30480000D03*
X30480000Y-33020000D03*
X30480000Y-35560000D03*
X30480000Y-38100000D03*
X30480000Y-40640000D03*
D18*
X34290000Y-42227500D03*
D19*
X34290000Y-42227500D03*
D18*
X32385000Y-42227500D03*
D19*
X32385000Y-42227500D03*
%TD*%
M02*
